<?xml version="1.0" encoding="UTF-8" standalone="no"?>
<!-- Created with Inkscape (http://www.inkscape.org/) -->

<svg
   xmlns:dc="http://purl.org/dc/elements/1.1/"
   xmlns:cc="http://creativecommons.org/ns#"
   xmlns:rdf="http://www.w3.org/1999/02/22-rdf-syntax-ns#"
   xmlns:svg="http://www.w3.org/2000/svg"
   xmlns="http://www.w3.org/2000/svg"
   xmlns:sodipodi="http://sodipodi.sourceforge.net/DTD/sodipodi-0.dtd"
   xmlns:inkscape="http://www.inkscape.org/namespaces/inkscape"
   width="1052.3622"
   height="744.09448"
   id="svg5390"
   version="1.1"
   inkscape:version="0.48.1 r9760"
   sodipodi:docname="curvature2.svg">
  <sodipodi:namedview
     id="base"
     pagecolor="#ffffff"
     bordercolor="#666666"
     borderopacity="1.0"
     inkscape:pageopacity="0.0"
     inkscape:pageshadow="2"
     inkscape:zoom="0.70710678"
     inkscape:cx="509.43501"
     inkscape:cy="328.55501"
     inkscape:document-units="px"
     inkscape:current-layer="layer1"
     showgrid="false"
     inkscape:window-width="1222"
     inkscape:window-height="765"
     inkscape:window-x="428"
     inkscape:window-y="69"
     inkscape:window-maximized="0" />
  <defs
     id="defs5392">
    <inkscape:path-effect
       effect="spiro"
       id="path-effect3100"
       is_visible="true" />
    <marker
       inkscape:stockid="TriangleInM"
       orient="auto"
       refY="0.0"
       refX="0.0"
       id="TriangleInM"
       style="overflow:visible">
      <path
         id="path4094"
         d="M 5.77,0.0 L -2.88,5.0 L -2.88,-5.0 L 5.77,0.0 z "
         style="fill-rule:evenodd;stroke:#000000;stroke-width:1.0pt;marker-start:none"
         transform="scale(-0.4)" />
    </marker>
    <marker
       inkscape:stockid="Arrow1Mstart"
       orient="auto"
       refY="0.0"
       refX="0.0"
       id="Arrow1Mstart"
       style="overflow:visible">
      <path
         id="path3963"
         d="M 0.0,0.0 L 5.0,-5.0 L -12.5,0.0 L 5.0,5.0 L 0.0,0.0 z "
         style="fill-rule:evenodd;stroke:#000000;stroke-width:1.0pt;marker-start:none"
         transform="scale(0.4) translate(10,0)" />
    </marker>
    <inkscape:path-effect
       effect="spiro"
       id="path-effect11307"
       is_visible="true" />
    <inkscape:path-effect
       effect="spiro"
       id="path-effect11301"
       is_visible="true" />
    <inkscape:path-effect
       effect="spiro"
       id="path-effect11297"
       is_visible="true" />
    <inkscape:path-effect
       effect="spiro"
       id="path-effect10362"
       is_visible="true" />
    <inkscape:path-effect
       effect="spiro"
       id="path-effect10358"
       is_visible="true" />
    <inkscape:path-effect
       effect="spiro"
       id="path-effect10354"
       is_visible="true" />
    <inkscape:path-effect
       effect="spiro"
       id="path-effect10338"
       is_visible="true" />
    <marker
       inkscape:stockid="TriangleOutM"
       orient="auto"
       refY="0.0"
       refX="0.0"
       id="TriangleOutM"
       style="overflow:visible">
      <path
         id="path4103"
         d="M 5.77,0.0 L -2.88,5.0 L -2.88,-5.0 L 5.77,0.0 z "
         style="fill-rule:evenodd;stroke:#000000;stroke-width:1.0pt;marker-start:none"
         transform="scale(0.4)" />
    </marker>
    <marker
       style="overflow:visible"
       inkscape:stockid="InfiniteLineEnd"
       id="InfiniteLineEnd"
       refX="0"
       refY="0"
       orient="auto">
      <g
         id="g4193">
        <circle
           id="circle4195"
           r="0.8"
           cy="0"
           cx="3" />
        <circle
           id="circle4197"
           r="0.8"
           cy="0"
           cx="6.5" />
        <circle
           id="circle4199"
           r="0.8"
           cy="0"
           cx="10" />
      </g>
    </marker>
    <marker
       inkscape:stockid="TriangleOutL"
       orient="auto"
       refY="0.0"
       refX="0.0"
       id="TriangleOutL"
       style="overflow:visible">
      <path
         id="path4100"
         d="M 5.77,0.0 L -2.88,5.0 L -2.88,-5.0 L 5.77,0.0 z "
         style="fill-rule:evenodd;stroke:#000000;stroke-width:1.0pt;marker-start:none"
         transform="scale(0.8)" />
    </marker>
    <marker
       inkscape:stockid="Arrow1Lend"
       orient="auto"
       refY="0.0"
       refX="0.0"
       id="Arrow1Lend"
       style="overflow:visible;">
      <path
         id="path3960"
         d="M 0.0,0.0 L 5.0,-5.0 L -12.5,0.0 L 5.0,5.0 L 0.0,0.0 z "
         style="fill-rule:evenodd;stroke:#000000;stroke-width:1.0pt;marker-start:none;"
         transform="scale(0.8) rotate(180) translate(12.5,0)" />
    </marker>
    <inkscape:path-effect
       effect="spiro"
       id="path-effect5459"
       is_visible="true" />
    <inkscape:path-effect
       effect="spiro"
       id="path-effect5451"
       is_visible="true" />
    <inkscape:path-effect
       effect="spiro"
       id="path-effect5447"
       is_visible="true" />
    <inkscape:path-effect
       effect="spiro"
       id="path-effect5422"
       is_visible="true" />
    <inkscape:path-effect
       effect="spiro"
       id="path-effect5418"
       is_visible="true" />
    <inkscape:path-effect
       effect="spiro"
       id="path-effect5414"
       is_visible="true" />
    <inkscape:path-effect
       effect="spiro"
       id="path-effect5410"
       is_visible="true" />
    <inkscape:path-effect
       effect="spiro"
       id="path-effect5422-5"
       is_visible="true" />
    <inkscape:path-effect
       effect="spiro"
       id="path-effect5459-1"
       is_visible="true" />
    <marker
       inkscape:stockid="TriangleOutL"
       orient="auto"
       refY="0"
       refX="0"
       id="TriangleOutL-4"
       style="overflow:visible">
      <path
         inkscape:connector-curvature="0"
         id="path4100-6"
         d="m 5.77,0 -8.65,5 0,-10 8.65,5 z"
         style="fill-rule:evenodd;stroke:#000000;stroke-width:1pt;marker-start:none"
         transform="scale(0.8,0.8)" />
    </marker>
    <inkscape:path-effect
       effect="spiro"
       id="path-effect5459-1-7"
       is_visible="true" />
    <marker
       inkscape:stockid="TriangleOutL"
       orient="auto"
       refY="0"
       refX="0"
       id="TriangleOutL-3"
       style="overflow:visible">
      <path
         inkscape:connector-curvature="0"
         id="path4100-9"
         d="m 5.77,0 -8.65,5 0,-10 8.65,5 z"
         style="fill-rule:evenodd;stroke:#000000;stroke-width:1pt;marker-start:none"
         transform="scale(0.8,0.8)" />
    </marker>
    <inkscape:path-effect
       effect="spiro"
       id="path-effect5459-9"
       is_visible="true" />
    <marker
       inkscape:stockid="TriangleOutL"
       orient="auto"
       refY="0"
       refX="0"
       id="TriangleOutL-6"
       style="overflow:visible">
      <path
         inkscape:connector-curvature="0"
         id="path4100-7"
         d="m 5.77,0 -8.65,5 0,-10 8.65,5 z"
         style="fill-rule:evenodd;stroke:#000000;stroke-width:1pt;marker-start:none"
         transform="scale(0.8,0.8)" />
    </marker>
    <inkscape:path-effect
       effect="spiro"
       id="path-effect5459-1-1"
       is_visible="true" />
    <marker
       inkscape:stockid="Arrow1Lstart"
       orient="auto"
       refY="0"
       refX="0"
       id="Arrow1Lstart"
       style="overflow:visible">
      <path
         inkscape:connector-curvature="0"
         id="path3957"
         d="M 0,0 5,-5 -12.5,0 5,5 0,0 z"
         style="fill-rule:evenodd;stroke:#000000;stroke-width:1pt;marker-start:none"
         transform="matrix(0.8,0,0,0.8,10,0)" />
    </marker>
    <marker
       inkscape:stockid="Arrow2Lend"
       orient="auto"
       refY="0"
       refX="0"
       id="Arrow2Lend"
       style="overflow:visible">
      <path
         inkscape:connector-curvature="0"
         id="path3978"
         style="font-size:12px;fill-rule:evenodd;stroke-width:0.625;stroke-linejoin:round"
         d="M 8.7185878,4.0337352 -2.2072895,0.01601326 8.7185884,-4.0017078 c -1.7454984,2.3720609 -1.7354408,5.6174519 -6e-7,8.035443 z"
         transform="matrix(-1.1,0,0,-1.1,-1.1,0)" />
    </marker>
    <marker
       inkscape:stockid="Arrow2Lend"
       orient="auto"
       refY="0"
       refX="0"
       id="Arrow2Lend-5"
       style="overflow:visible">
      <path
         inkscape:connector-curvature="0"
         id="path3978-4"
         style="font-size:12px;fill-rule:evenodd;stroke-width:0.625;stroke-linejoin:round"
         d="M 8.7185878,4.0337352 -2.2072895,0.01601326 8.7185884,-4.0017078 c -1.7454984,2.3720609 -1.7354408,5.6174519 -6e-7,8.035443 z"
         transform="matrix(-1.1,0,0,-1.1,-1.1,0)" />
    </marker>
    <marker
       inkscape:stockid="Arrow2Lend"
       orient="auto"
       refY="0"
       refX="0"
       id="Arrow2Lend-4"
       style="overflow:visible">
      <path
         inkscape:connector-curvature="0"
         id="path3978-5"
         style="font-size:12px;fill-rule:evenodd;stroke-width:0.625;stroke-linejoin:round"
         d="M 8.7185878,4.0337352 -2.2072895,0.01601326 8.7185884,-4.0017078 c -1.7454984,2.3720609 -1.7354408,5.6174519 -6e-7,8.035443 z"
         transform="matrix(-1.1,0,0,-1.1,-1.1,0)" />
    </marker>
    <font
       horiz-adv-x="1024"
       id="font11480"
       inkscape:label="font 1">
      <font-face
         units-per-em="1024"
         id="font-face11482"
         font-family="SVGFont 1" />
      <missing-glyph
         d="M0,0h1000v1024h-1000z"
         id="missing-glyph11484" />
    </font>
    <marker
       inkscape:stockid="Arrow1Lstart"
       orient="auto"
       refY="0"
       refX="0"
       id="Arrow1Lstart-3"
       style="overflow:visible">
      <path
         inkscape:connector-curvature="0"
         id="path3957-6"
         d="M 0,0 5,-5 -12.5,0 5,5 0,0 z"
         style="fill-rule:evenodd;stroke:#000000;stroke-width:1pt;marker-start:none"
         transform="matrix(0.8,0,0,0.8,10,0)" />
    </marker>
    <inkscape:path-effect
       effect="spiro"
       id="path-effect3100-2"
       is_visible="true" />
  </defs>
  <metadata
     id="metadata5395">
    <rdf:RDF>
      <cc:Work
         rdf:about="">
        <dc:format>image/svg+xml</dc:format>
        <dc:type
           rdf:resource="http://purl.org/dc/dcmitype/StillImage" />
        <dc:title />
      </cc:Work>
    </rdf:RDF>
  </metadata>
  <g
     inkscape:label="Layer 1"
     inkscape:groupmode="layer"
     id="layer1"
     transform="translate(0,-308.2677)">
    <path
       style="fill:none;stroke:#000000;stroke-width:1px;stroke-linecap:butt;stroke-linejoin:miter;stroke-opacity:1"
       d="M 502,438.09448 472.99038,598.07267"
       id="path3098"
       inkscape:path-effect="#path-effect3100"
       inkscape:original-d="M 502,438.09448 472.99038,598.07267"
       inkscape:connector-curvature="0"
       transform="translate(0,308.2677)"
       sodipodi:nodetypes="cc" />
    <path
       style="fill:none;stroke:#000000;stroke-width:1px;stroke-linecap:butt;stroke-linejoin:miter;stroke-opacity:1"
       d="m 672.50481,682.37309 98.99038,92.97819"
       id="path3098-2"
       inkscape:path-effect="#path-effect3100-2"
       inkscape:original-d="m 672.50481,682.37309 98.99038,92.97819"
       inkscape:connector-curvature="0"
       sodipodi:nodetypes="cc" />
    <path
       sodipodi:type="star"
       style="fill:none;stroke:#000000;stroke-width:1px;stroke-linecap:butt;stroke-linejoin:miter;stroke-opacity:1"
       id="path2993"
       sodipodi:sides="5"
       sodipodi:cx="321.22852"
       sodipodi:cy="297.60706"
       sodipodi:r1="286.41342"
       sodipodi:r2="231.71333"
       sodipodi:arg1="0.46049305"
       sodipodi:arg2="1.0888116"
       inkscape:flatsided="true"
       inkscape:rounded="0"
       inkscape:randomized="0"
       d="M 577.80725,424.88627 279.46598,580.95938 38.839109,345.4492 188.4648,43.822807 521.56544,92.917616 z"
       transform="matrix(1.0000395,0,0,0.83914488,194.52513,421.39417)"
       inkscape:transform-center-x="12.905835"
       inkscape:transform-center-y="12.405947" />
    <path
       style="fill:none;stroke:#000000;stroke-width:1px;stroke-linecap:butt;stroke-linejoin:miter;stroke-opacity:1"
       d="m 382.92813,458.10189 157.08039,87.39502 176.09422,-45.95156"
       id="path3011"
       inkscape:connector-curvature="0"
       sodipodi:nodetypes="ccc" />
    <path
       sodipodi:type="arc"
       style="fill:#000000;stroke-width:3.29999995;stroke-miterlimit:4;stroke-dasharray:none;stroke-dashoffset:0"
       id="path3787-8-4"
       sodipodi:cx="150.51273"
       sodipodi:cy="204.67302"
       sodipodi:rx="10.101525"
       sodipodi:ry="10.101525"
       d="m 160.61425,204.67302 c 0,5.57892 -4.52261,10.10152 -10.10152,10.10152 -5.57892,0 -10.10153,-4.5226 -10.10153,-10.10152 0,-5.57892 4.52261,-10.10153 10.10153,-10.10153 5.57891,0 10.10152,4.52261 10.10152,10.10153 z"
       transform="matrix(0.8232233,0,0,0.8232233,591.0141,330.64185)" />
    <path
       sodipodi:type="arc"
       style="fill:#000000;stroke-width:3.29999995;stroke-miterlimit:4;stroke-dasharray:none;stroke-dashoffset:0"
       id="path3787-8-7"
       sodipodi:cx="150.51273"
       sodipodi:cy="204.67302"
       sodipodi:rx="10.101525"
       sodipodi:ry="10.101525"
       d="m 160.61425,204.67302 c 0,5.57892 -4.52261,10.10152 -10.10152,10.10152 -5.57892,0 -10.10153,-4.5226 -10.10153,-10.10152 0,-5.57892 4.52261,-10.10153 10.10153,-10.10153 5.57891,0 10.10152,4.52261 10.10152,10.10153 z"
       transform="matrix(0.8232233,0,0,0.8232233,110.05997,540.72151)" />
    <path
       sodipodi:type="arc"
       style="fill:#000000;stroke-width:3.29999995;stroke-miterlimit:4;stroke-dasharray:none;stroke-dashoffset:0"
       id="path3787-8-9"
       sodipodi:cx="150.51273"
       sodipodi:cy="204.67302"
       sodipodi:rx="10.101525"
       sodipodi:ry="10.101525"
       d="m 160.61425,204.67302 c 0,5.57892 -4.52261,10.10152 -10.10152,10.10152 -5.57892,0 -10.10153,-4.5226 -10.10153,-10.10152 0,-5.57892 4.52261,-10.10153 10.10153,-10.10153 5.57891,0 10.10152,4.52261 10.10152,10.10153 z"
       transform="matrix(0.8232233,0,0,0.8232233,259.80743,290.6519)" />
    <path
       style="fill:none;stroke:#000000;stroke-width:1px;stroke-linecap:butt;stroke-linejoin:miter;stroke-opacity:1"
       d="M 234.28571,401.23734 540,238.3802"
       id="path11295"
       inkscape:path-effect="#path-effect11297"
       inkscape:original-d="M 234.28571,401.23734 540,238.3802"
       inkscape:connector-curvature="0"
       transform="translate(0,308.2677)" />
    <path
       style="fill:#b3b3b3;stroke:#000000;stroke-width:4;stroke-linecap:butt;stroke-linejoin:miter;stroke-miterlimit:4;stroke-opacity:1;stroke-dasharray:none"
       d="m 501.04333,747.66585 38.91334,-202.19399 133.2908,138.20366 -172.20414,63.99033"
       id="path11299"
       inkscape:path-effect="#path-effect11301"
       inkscape:original-d="m 501.04333,747.66585 38.91334,-202.19399 133.2908,138.20366 z"
       inkscape:connector-curvature="0"
       sodipodi:nodetypes="cccc" />
    <path
       style="fill:none;stroke:#000000;stroke-width:1.5;stroke-linecap:butt;stroke-linejoin:miter;stroke-miterlimit:4;stroke-opacity:1;stroke-dasharray:none;stroke-dashoffset:0;marker-start:none;marker-end:url(#Arrow2Lend)"
       d="m 585.51956,715.73032 34.3518,68.14148"
       id="path3952"
       inkscape:connector-curvature="0"
       sodipodi:nodetypes="cc" />
    <path
       sodipodi:type="arc"
       style="fill:#000000;stroke-width:3.29999995;stroke-miterlimit:4;stroke-dasharray:none;stroke-dashoffset:0"
       id="path3787-8-8"
       sodipodi:cx="150.51273"
       sodipodi:cy="204.67302"
       sodipodi:rx="10.101525"
       sodipodi:ry="10.101525"
       d="m 160.61425,204.67302 c 0,5.57892 -4.52261,10.10152 -10.10152,10.10152 -5.57892,0 -10.10153,-4.5226 -10.10153,-10.10152 0,-5.57892 4.52261,-10.10153 10.10153,-10.10153 5.57891,0 10.10152,4.52261 10.10152,10.10153 z"
       transform="matrix(0.8232233,0,0,0.8232233,349.89672,737.98212)" />
    <path
       sodipodi:type="arc"
       style="fill:#000000;stroke-width:3.29999995;stroke-miterlimit:4;stroke-dasharray:none;stroke-dashoffset:0"
       id="path3787-8-42"
       sodipodi:cx="150.51273"
       sodipodi:cy="204.67302"
       sodipodi:rx="10.101525"
       sodipodi:ry="10.101525"
       d="m 160.61425,204.67302 c 0,5.57892 -4.52261,10.10152 -10.10152,10.10152 -5.57892,0 -10.10153,-4.5226 -10.10153,-10.10152 0,-5.57892 4.52261,-10.10153 10.10153,-10.10153 5.57891,0 10.10152,4.52261 10.10152,10.10153 z"
       transform="matrix(0.8232233,0,0,0.8232233,648.02171,607.62498)" />
    <path
       style="fill:none;stroke:#000000;stroke-width:1px;stroke-linecap:butt;stroke-linejoin:miter;stroke-opacity:1"
       d="m 592.5,729.3979 14.25,-5.42858 -6.85714,-13.32143"
       id="path11305"
       inkscape:path-effect="#path-effect11307"
       inkscape:original-d="m 592.5,729.3979 14.25,-5.42858 -6.85714,-13.32143"
       inkscape:connector-curvature="0"
       sodipodi:nodetypes="ccc" />
    <path
       sodipodi:type="arc"
       id="path11309"
       style="fill:#000000;stroke:none"
       sodipodi:cx="655.71429"
       sodipodi:cy="836.29077"
       sodipodi:rx="1.5"
       sodipodi:ry="1.5"
       d="m 657.21429,836.29077 c 0,0.82843 -0.67157,1.5 -1.5,1.5 -0.82842,0 -1.5,-0.67157 -1.5,-1.5 0,-0.82843 0.67158,-1.5 1.5,-1.5 0.82843,0 1.5,0.67157 1.5,1.5 z"
       transform="translate(-59,-116)" />
    <path
       style="fill:none;stroke:#000000;stroke-width:1.5;stroke-linecap:butt;stroke-linejoin:miter;stroke-miterlimit:4;stroke-opacity:1;stroke-dasharray:none;stroke-dashoffset:0;marker-start:none;marker-end:url(#Arrow2Lend)"
       d="M 549.59608,582.35443 532.51931,690.49591"
       id="path3952-0"
       inkscape:connector-curvature="0"
       sodipodi:nodetypes="cc" />
    <path
       style="fill:none;stroke:#000000;stroke-width:1.5;stroke-linecap:butt;stroke-linejoin:miter;stroke-miterlimit:4;stroke-opacity:1;stroke-dasharray:none;stroke-dashoffset:0;marker-start:none;marker-end:url(#Arrow2Lend)"
       d="m 549.27867,581.89429 85.42322,88.14148"
       id="path3952-0-7"
       inkscape:connector-curvature="0"
       sodipodi:nodetypes="cc" />
    <text
       xml:space="preserve"
       style="font-size:40px;font-style:normal;font-weight:normal;line-height:125%;letter-spacing:0px;word-spacing:0px;fill:#000000;fill-opacity:1;stroke:none;font-family:Sans"
       x="484"
       y="642.79077"
       id="text11359"
       sodipodi:linespacing="125%"><tspan
         sodipodi:role="line"
         id="tspan11361"
         x="484"
         y="642.79077"
         style="font-style:normal;font-variant:normal;font-weight:normal;font-stretch:normal;font-family:TeXGyreBonum;-inkscape-font-specification:TeXGyreBonum">t<tspan
   style="font-size:65.00091553%;font-style:normal;font-variant:normal;font-weight:normal;font-stretch:normal;baseline-shift:sub;font-family:TeXGyreBonum;-inkscape-font-specification:TeXGyreBonum"
   id="tspan11363">1</tspan></tspan></text>
    <text
       xml:space="preserve"
       style="font-size:40px;font-style:normal;font-weight:normal;line-height:125%;letter-spacing:0px;word-spacing:0px;fill:#000000;fill-opacity:1;stroke:none;font-family:Sans"
       x="635.53992"
       y="626.26227"
       id="text11359-0"
       sodipodi:linespacing="125%"><tspan
         sodipodi:role="line"
         id="tspan11361-3"
         x="635.53992"
         y="626.26227"
         style="font-style:normal;font-variant:normal;font-weight:normal;font-stretch:normal;font-family:TeXGyreBonum;-inkscape-font-specification:TeXGyreBonum">t<tspan
   style="font-size:65.00091553%;font-style:normal;font-variant:normal;font-weight:normal;font-stretch:normal;baseline-shift:sub;font-family:TeXGyreBonum;-inkscape-font-specification:TeXGyreBonum"
   id="tspan11363-5">2</tspan></tspan></text>
    <text
       xml:space="preserve"
       style="font-size:40px;font-style:normal;font-weight:normal;line-height:125%;letter-spacing:0px;word-spacing:0px;fill:#000000;fill-opacity:1;stroke:none;font-family:Sans"
       x="626.35583"
       y="764.97656"
       id="text11359-0-6"
       sodipodi:linespacing="125%"><tspan
         sodipodi:role="line"
         id="tspan11361-3-6"
         x="626.35583"
         y="764.97656"
         style="font-style:normal;font-variant:normal;font-weight:normal;font-stretch:normal;font-family:TeXGyreBonum;-inkscape-font-specification:TeXGyreBonum">t<tspan
   style="font-size:65.00091553%;font-style:normal;font-variant:normal;font-weight:normal;font-stretch:normal;baseline-shift:sub;font-family:TeXGyreBonum;-inkscape-font-specification:TeXGyreBonum"
   id="tspan11363-5-9">R</tspan></tspan></text>
    <path
       sodipodi:type="arc"
       style="fill:#000000;stroke-width:3.29999995;stroke-miterlimit:4;stroke-dasharray:none;stroke-dashoffset:0"
       id="path3787-8"
       sodipodi:cx="150.51273"
       sodipodi:cy="204.67302"
       sodipodi:rx="10.101525"
       sodipodi:ry="10.101525"
       d="m 160.61425,204.67302 c 0,5.57892 -4.52261,10.10152 -10.10152,10.10152 -5.57892,0 -10.10153,-4.5226 -10.10153,-10.10152 0,-5.57892 4.52261,-10.10153 10.10153,-10.10153 5.57891,0 10.10152,4.52261 10.10152,10.10153 z"
       transform="matrix(0.8232233,0,0,0.8232233,415.83602,377.57153)" />
    <path
       sodipodi:type="arc"
       style="fill:#000000;stroke-width:3.29999995;stroke-miterlimit:4;stroke-dasharray:none;stroke-dashoffset:0"
       id="path3787-8-76"
       sodipodi:cx="150.51273"
       sodipodi:cy="204.67302"
       sodipodi:rx="10.101525"
       sodipodi:ry="10.101525"
       d="m 160.61425,204.67302 c 0,5.57892 -4.52261,10.10152 -10.10152,10.10152 -5.57892,0 -10.10153,-4.5226 -10.10153,-10.10152 0,-5.57892 4.52261,-10.10153 10.10153,-10.10153 5.57891,0 10.10152,4.52261 10.10152,10.10153 z"
       transform="matrix(0.35034563,0,0,0.35034563,497.6346,512.52196)" />
    <text
       xml:space="preserve"
       style="font-size:40px;font-style:normal;font-weight:normal;line-height:125%;letter-spacing:0px;word-spacing:0px;fill:#000000;fill-opacity:1;stroke:none;font-family:Sans"
       x="675.28455"
       y="764.27362"
       id="text11359-0-6-0"
       sodipodi:linespacing="125%"><tspan
         sodipodi:role="line"
         id="tspan11361-3-6-1"
         x="675.28455"
         y="764.27362"
         style="font-style:normal;font-variant:normal;font-weight:bold;font-stretch:normal;font-family:TeXGyreBonum;-inkscape-font-specification:TeXGyreBonum Bold">n</tspan></text>
    <text
       xml:space="preserve"
       style="font-size:40px;font-style:normal;font-weight:normal;line-height:125%;letter-spacing:0px;word-spacing:0px;fill:#000000;fill-opacity:1;stroke:none;font-family:Sans"
       x="661.9057"
       y="754.0993"
       id="text11359-0-6-0-0"
       sodipodi:linespacing="125%"><tspan
         sodipodi:role="line"
         id="tspan11361-3-6-1-8"
         x="661.9057"
         y="754.0993"
         style="font-style:normal;font-variant:normal;font-weight:normal;font-stretch:normal;font-family:TeXGyreBonum;-inkscape-font-specification:TeXGyreBonum">.</tspan></text>
    <text
       xml:space="preserve"
       style="font-size:40px;font-style:normal;font-variant:normal;font-weight:normal;font-stretch:normal;line-height:125%;letter-spacing:0px;word-spacing:0px;fill:#000000;fill-opacity:1;stroke:none;font-family:Symbol;-inkscape-font-specification:Symbol"
       x="288.57144"
       y="612.66589"
       id="text11476"
       sodipodi:linespacing="125%"
       transform="translate(0,308.2677)"><tspan
         sodipodi:role="line"
         id="tspan11478"
         x="288.57144"
         y="612.66589" /></text>
    <path
       sodipodi:type="arc"
       style="fill:none;stroke:#000000;stroke-width:1.97675836;stroke-linecap:butt;stroke-linejoin:miter;stroke-miterlimit:4;stroke-opacity:1;stroke-dasharray:none;marker-start:url(#TriangleInM);marker-end:none"
       id="path3024"
       sodipodi:cx="237.89093"
       sodipodi:cy="224.87608"
       sodipodi:rx="78.037827"
       sodipodi:ry="37.691685"
       d="m 315.26672,229.77531 c -5.6021,20.63994 -44.78581,35.17847 -87.51927,32.4727 -42.73347,-2.70577 -72.8344,-21.63121 -67.2323,-42.27115 5.60209,-20.63995 44.7858,-35.17847 87.51926,-32.4727 1.45348,0.092 2.9013,0.20382 4.34174,0.33525"
       transform="matrix(-0.44450926,0.42483669,-1.983301,-0.40735771,1091.2221,540.80811)"
       sodipodi:start="0.13035045"
       sodipodi:end="4.8990897"
       sodipodi:open="true" />
    <text
       xml:space="preserve"
       style="font-size:32px;font-style:normal;font-weight:normal;line-height:125%;letter-spacing:0px;word-spacing:0px;fill:#000000;fill-opacity:1;stroke:none;font-family:Sans"
       x="565.55005"
       y="564.22839"
       id="text11359-0-6-7"
       sodipodi:linespacing="125%"><tspan
         sodipodi:role="line"
         id="tspan11361-3-6-7"
         x="565.55005"
         y="564.22839"
         style="font-size:32px;font-style:normal;font-variant:normal;font-weight:normal;font-stretch:normal;font-family:TeXGyreBonum;-inkscape-font-specification:TeXGyreBonum">0</tspan></text>
    <text
       xml:space="preserve"
       style="font-size:32px;font-style:normal;font-variant:normal;font-weight:normal;font-stretch:normal;line-height:125%;letter-spacing:0px;word-spacing:0px;fill:#000000;fill-opacity:1;stroke:none;font-family:Symbol;-inkscape-font-specification:Symbol"
       x="508.48529"
       y="919.22003"
       id="text3099"
       sodipodi:linespacing="125%"><tspan
         sodipodi:role="line"
         id="tspan3101"
         x="508.48529"
         y="919.22003">1</tspan></text>
    <text
       xml:space="preserve"
       style="font-size:32px;font-style:normal;font-variant:normal;font-weight:normal;font-stretch:normal;line-height:125%;letter-spacing:0px;word-spacing:0px;fill:#000000;fill-opacity:1;stroke:none;font-family:Symbol;-inkscape-font-specification:Symbol"
       x="753.85785"
       y="822.43323"
       id="text3103"
       sodipodi:linespacing="125%"><tspan
         sodipodi:role="line"
         id="tspan3105"
         x="753.85785"
         y="822.43323">2</tspan></text>
    <path
       sodipodi:type="star"
       style="color:#000000;fill:#ffffff;stroke:#000000;stroke-width:1.0454545;stroke-linecap:butt;stroke-linejoin:miter;stroke-miterlimit:4;stroke-opacity:1;stroke-dasharray:none;stroke-dashoffset:0;marker:none;visibility:visible;display:inline;overflow:visible;enable-background:accumulate"
       id="path10494-1"
       sodipodi:sides="4"
       sodipodi:cx="383.92856"
       sodipodi:cy="155.8802"
       sodipodi:r1="3.5714285"
       sodipodi:r2="2.5253813"
       sodipodi:arg1="0.92729522"
       sodipodi:arg2="1.7126934"
       inkscape:flatsided="true"
       inkscape:rounded="0"
       inkscape:randomized="0"
       d="m 386.07142,158.73735 -5,-0.71429 0.71428,-5 5,0.71429 z"
       transform="matrix(2.2,0,0,2.2,-342.64283,405.42574)" />
    <path
       sodipodi:type="star"
       style="color:#000000;fill:#ffffff;stroke:#000000;stroke-width:1.0454545;stroke-linecap:butt;stroke-linejoin:miter;stroke-miterlimit:4;stroke-opacity:1;stroke-dasharray:none;stroke-dashoffset:0;marker:none;visibility:visible;display:inline;overflow:visible;enable-background:accumulate"
       id="path10494-1-4"
       sodipodi:sides="4"
       sodipodi:cx="383.92856"
       sodipodi:cy="155.8802"
       sodipodi:r1="3.5714285"
       sodipodi:r2="2.5253813"
       sodipodi:arg1="0.92729522"
       sodipodi:arg2="1.7126934"
       inkscape:flatsided="true"
       inkscape:rounded="0"
       inkscape:randomized="0"
       d="m 386.07142,158.73735 -5,-0.71429 0.71428,-5 5,0.71429 z"
       transform="matrix(2.2,0,0,2.2,-171.64283,338.42574)" />
    <text
       xml:space="preserve"
       style="font-size:16px;font-style:normal;font-variant:normal;font-weight:normal;font-stretch:normal;text-align:center;line-height:125%;letter-spacing:0px;word-spacing:0px;text-anchor:middle;fill:#000000;fill-opacity:1;stroke:none;font-family:TeXGyreBonum;-inkscape-font-specification:TeXGyreBonum"
       x="686.12561"
       y="896.37787"
       id="text4768-1"
       sodipodi:linespacing="125%"><tspan
         sodipodi:role="line"
         x="686.12561"
         y="896.37787"
         id="tspan5043"
         style="font-size:22px">edge mid point</tspan></text>
    <path
       sodipodi:type="star"
       style="color:#000000;fill:#ffffff;stroke:#000000;stroke-width:0.87619048;stroke-linecap:butt;stroke-linejoin:miter;stroke-miterlimit:4;stroke-opacity:1;stroke-dasharray:none;stroke-dashoffset:0;marker:none;visibility:visible;display:inline;overflow:visible;enable-background:accumulate"
       id="path10494-5-0"
       sodipodi:sides="4"
       sodipodi:cx="383.92856"
       sodipodi:cy="155.8802"
       sodipodi:r1="3.5714285"
       sodipodi:r2="2.5253813"
       sodipodi:arg1="0.92729522"
       sodipodi:arg2="1.7126934"
       inkscape:flatsided="true"
       inkscape:rounded="0"
       inkscape:randomized="0"
       d="m 386.07142,158.73735 -5,-0.71429 0.71428,-5 5,0.71429 z"
       transform="matrix(2.606152,-0.3140016,0.5292082,2.5802228,-494.18027,608.51638)" />
    <g
       transform="matrix(0.91073991,0,0,0.91073991,248.80365,533.95489)"
       id="g3223">
      <g
         style="font-style:normal;font-variant:normal;font-weight:normal;font-stretch:normal;letter-spacing:normal;word-spacing:normal;text-anchor:start;fill:none;stroke:#000000;stroke-width:1.09800828;stroke-linecap:butt;stroke-linejoin:miter;stroke-miterlimit:10.43299961;stroke-opacity:1;stroke-dasharray:none;stroke-dashoffset:0"
         id="content"
         transform="matrix(1.0629921,0,0,-1.0629921,-186.02362,789.27165)"
         xml:space="preserve"
         stroke-miterlimit="10.433"
         font-style="normal"
         font-variant="normal"
         font-weight="normal"
         font-stretch="normal"
         font-size-adjust="none"
         letter-spacing="normal"
         word-spacing="normal"><path
           style="fill:#000000;stroke-width:0"
           inkscape:connector-curvature="0"
           d="m 464.24,427.67 v 5.78 c 0,4.39 2.39,6.78 4.58,6.78 0.15,0 0.9,0 1.65,-0.36 -0.61,-0.19 -1.5,-0.84 -1.5,-2.08 0,-1.15 0.8,-2.15 2.14,-2.15 1.44,0 2.19,1 2.19,2.2 0,1.84 -1.84,3.48 -4.48,3.48 -3.49,0 -7.72,-2.64 -7.72,-7.92 v -5.73 h -3.94 v -1.55 h 3.94 v -16.14 c 0,-2.23 -0.55,-2.23 -3.89,-2.23 v -1.55 c 1.95,0.05 4.29,0.16 5.68,0.16 1.99,0 4.33,0 6.33,-0.16 v 1.55 h -1.04 c -3.69,0 -3.79,0.54 -3.79,2.34 v 16.03 h 5.68 v 1.55 z"
           id="path3226" /></g>    </g>
    <g
       id="g3442"
       transform="matrix(0.62404031,0,0,0.62404031,247.0334,529.38992)">
      <g
         word-spacing="normal"
         letter-spacing="normal"
         font-size-adjust="none"
         font-stretch="normal"
         font-weight="normal"
         font-variant="normal"
         font-style="normal"
         stroke-miterlimit="10.433"
         xml:space="preserve"
         transform="matrix(1.0629921,0,0,-1.0629921,-186.02362,789.27165)"
         id="g3444"
         style="font-style:normal;font-variant:normal;font-weight:normal;font-stretch:normal;letter-spacing:normal;word-spacing:normal;text-anchor:start;fill:none;stroke:#000000;stroke-width:1.6024605;stroke-linecap:butt;stroke-linejoin:miter;stroke-miterlimit:10.43299961;stroke-opacity:1;stroke-dasharray:none;stroke-dashoffset:0"><path
           id="path3446"
           d="m 459.91,409.14 -0.02,-0.07 -0.01,-0.08 -0.02,-0.07 -0.01,-0.08 -0.04,-0.16 -0.04,-0.16 -0.03,-0.16 -0.04,-0.16 -0.04,-0.16 -0.04,-0.16 -0.01,-0.08 -0.02,-0.07 -0.02,-0.07 -0.01,-0.07 -0.02,-0.07 -0.01,-0.07 -0.01,-0.06 -0.01,-0.06 -0.01,-0.06 -0.01,-0.05 -0.01,-0.05 -0.01,-0.04 -0.01,-0.04 0,-0.04 0,-0.03 0,-0.02 c 0,-0.89 0.7,-1.35 1.43,-1.35 0.61,0 1.5,0.39 1.85,1.39 0.06,0.11 0.65,2.44 0.95,3.69 l 1.1,4.48 c 0.29,1.1 0.59,2.19 0.84,3.35 0.2,0.84 0.61,2.28 0.66,2.48 0.75,1.55 3.39,6.08 8.1,6.08 2.25,0 2.71,-1.84 2.71,-3.48 0,-1.25 -0.36,-2.64 -0.75,-4.14 l -1.39,-5.79 -1,-3.78 c -0.21,-1 -0.66,-2.68 -0.66,-2.93 0,-0.89 0.7,-1.35 1.45,-1.35 1.55,0 1.85,1.25 2.24,2.85 0.7,2.78 2.55,10.06 3,12 0.14,0.65 2.78,6.62 8.22,6.62 2.14,0 2.68,-1.69 2.68,-3.48 0,-2.85 -2.09,-8.52 -3.09,-11.16 -0.45,-1.2 -0.64,-1.75 -0.64,-2.75 0,-2.33 1.73,-4.08 4.08,-4.08 4.69,0 6.53,7.27 6.53,7.67 0,0.5 -0.45,0.5 -0.59,0.5 -0.5,0 -0.5,-0.15 -0.75,-0.9 -0.75,-2.64 -2.35,-6.17 -5.08,-6.17 -0.86,0 -1.21,0.5 -1.21,1.64 0,1.25 0.46,2.45 0.9,3.54 0.95,2.58 3.04,8.11 3.04,10.96 0,3.23 -2,5.32 -5.73,5.32 -3.74,0 -6.27,-2.18 -8.11,-4.82 -0.06,0.65 -0.2,2.34 -1.61,3.53 -1.24,1.04 -2.83,1.29 -4.08,1.29 -4.48,0 -6.92,-3.18 -7.76,-4.32 -0.25,2.84 -2.35,4.32 -4.6,4.32 -2.28,0 -3.23,-1.93 -3.69,-2.82 -0.89,-1.75 -1.54,-4.69 -1.54,-4.85 0,-0.5 0.5,-0.5 0.61,-0.5 0.5,0 0.54,0.07 0.84,1.16 0.84,3.53 1.84,5.92 3.64,5.92 0.8,0 1.55,-0.39 1.55,-2.28 0,-1.05 -0.16,-1.61 -0.8,-4.19 z"
           inkscape:connector-curvature="0"
           style="fill:#000000;stroke-width:0" /><path
           id="path3448"
           d="m 517.18,409.87 0,0.71 -0.02,0.68 -0.03,0.66 -0.04,0.64 -0.06,0.62 -0.07,0.6 -0.1,0.57 -0.1,0.56 -0.13,0.55 -0.15,0.53 -0.17,0.51 -0.19,0.5 -0.21,0.49 -0.24,0.48 -0.26,0.47 -0.14,0.23 -0.15,0.23 c -1.08,1.61 -3.23,3 -6.03,3 v -0.98 c 1.89,0 3.7,-1.14 4.33,-3.17 0.56,-1.88 0.59,-4.39 0.59,-7.43 0,-2.57 0,-5.15 -0.45,-7.34 -0.71,-3.17 -3.06,-3.94 -4.47,-3.94 h 0 c -1.59,0 -3.72,0.94 -4.42,3.8 -0.49,2.05 -0.49,4.91 -0.49,7.48 0,2.55 0,5.21 0.52,7.11 0.73,2.75 2.97,3.49 4.39,3.49 v 0.98 c -8.08,0 -8.08,-9.51 -8.08,-12.03 0,-2.5 0,-11.81 8.08,-11.81 8.09,0 8.09,9.31 8.09,11.81 z"
           inkscape:connector-curvature="0"
           style="fill:#000000;stroke-width:0" /><path
           id="path3450"
           d="m 530.67,420.92 0,0.04 0,0.04 0,0.05 0,0.04 0,0.03 0,0.04 -0.01,0.04 0,0.03 0,0.04 0,0.03 0,0.03 0,0.03 -0.01,0.03 0,0.03 0,0.03 -0.01,0.02 0,0.03 -0.01,0.02 0,0.03 -0.01,0.02 -0.01,0.04 -0.01,0.04 -0.02,0.03 -0.02,0.03 -0.02,0.03 -0.03,0.03 -0.02,0.02 -0.03,0.02 -0.04,0.02 -0.04,0.01 -0.04,0.01 -0.04,0.02 -0.02,0 -0.03,0 -0.02,0.01 -0.03,0 -0.03,0.01 -0.03,0 -0.03,0 -0.03,0 -0.03,0 -0.03,0.01 -0.04,0 -0.03,0 -0.04,0 -0.04,0 -0.03,0 -0.05,0 -0.04,0 -0.04,0 -0.04,0 -0.05,0 c -2.23,-2.2 -5.39,-2.23 -6.83,-2.23 v -1.25 c 0.85,0 3.14,0 5.05,0.97 v -17.77 c 0,-1.16 0,-1.61 -3.49,-1.61 h -1.31 v -1.25 c 0.63,0.03 4.91,0.14 6.21,0.14 1.07,0 5.47,-0.11 6.23,-0.14 v 1.25 h -1.33 c -3.48,0 -3.48,0.45 -3.48,1.61 z"
           inkscape:connector-curvature="0"
           style="fill:#000000;stroke-width:0" /></g>    </g>
    <g
       transform="matrix(0.6240403,0,0,0.6240403,500.17763,458.67924)"
       id="g3676">
      <g
         style="font-style:normal;font-variant:normal;font-weight:normal;font-stretch:normal;letter-spacing:normal;word-spacing:normal;text-anchor:start;fill:none;stroke:#000000;stroke-width:1.60246062;stroke-linecap:butt;stroke-linejoin:miter;stroke-miterlimit:10.43299961;stroke-opacity:1;stroke-dasharray:none;stroke-dashoffset:0"
         id="g3678"
         transform="matrix(1.0629921,0,0,-1.0629921,-186.02362,789.27165)"
         xml:space="preserve"
         stroke-miterlimit="10.433"
         font-style="normal"
         font-variant="normal"
         font-weight="normal"
         font-stretch="normal"
         font-size-adjust="none"
         letter-spacing="normal"
         word-spacing="normal"><path
           style="fill:#000000;stroke-width:0"
           inkscape:connector-curvature="0"
           d="m 459.91,409.14 -0.02,-0.07 -0.01,-0.08 -0.02,-0.07 -0.01,-0.08 -0.04,-0.16 -0.04,-0.16 -0.03,-0.16 -0.04,-0.16 -0.04,-0.16 -0.04,-0.16 -0.01,-0.08 -0.02,-0.07 -0.02,-0.07 -0.01,-0.07 -0.02,-0.07 -0.01,-0.07 -0.01,-0.06 -0.01,-0.06 -0.01,-0.06 -0.01,-0.05 -0.01,-0.05 -0.01,-0.04 -0.01,-0.04 0,-0.04 0,-0.03 0,-0.02 c 0,-0.89 0.7,-1.35 1.43,-1.35 0.61,0 1.5,0.39 1.85,1.39 0.06,0.11 0.65,2.44 0.95,3.69 l 1.1,4.48 c 0.29,1.1 0.59,2.19 0.84,3.35 0.2,0.84 0.61,2.28 0.66,2.48 0.75,1.55 3.39,6.08 8.1,6.08 2.25,0 2.71,-1.84 2.71,-3.48 0,-1.25 -0.36,-2.64 -0.75,-4.14 l -1.39,-5.79 -1,-3.78 c -0.21,-1 -0.66,-2.68 -0.66,-2.93 0,-0.89 0.7,-1.35 1.45,-1.35 1.55,0 1.85,1.25 2.24,2.85 0.7,2.78 2.55,10.06 3,12 0.14,0.65 2.78,6.62 8.22,6.62 2.14,0 2.68,-1.69 2.68,-3.48 0,-2.85 -2.09,-8.52 -3.09,-11.16 -0.45,-1.2 -0.64,-1.75 -0.64,-2.75 0,-2.33 1.73,-4.08 4.08,-4.08 4.69,0 6.53,7.27 6.53,7.67 0,0.5 -0.45,0.5 -0.59,0.5 -0.5,0 -0.5,-0.15 -0.75,-0.9 -0.75,-2.64 -2.35,-6.17 -5.08,-6.17 -0.86,0 -1.21,0.5 -1.21,1.64 0,1.25 0.46,2.45 0.9,3.54 0.95,2.58 3.04,8.11 3.04,10.96 0,3.23 -2,5.32 -5.73,5.32 -3.74,0 -6.27,-2.18 -8.11,-4.82 -0.06,0.65 -0.2,2.34 -1.61,3.53 -1.24,1.04 -2.83,1.29 -4.08,1.29 -4.48,0 -6.92,-3.18 -7.76,-4.32 -0.25,2.84 -2.35,4.32 -4.6,4.32 -2.28,0 -3.23,-1.93 -3.69,-2.82 -0.89,-1.75 -1.54,-4.69 -1.54,-4.85 0,-0.5 0.5,-0.5 0.61,-0.5 0.5,0 0.54,0.07 0.84,1.16 0.84,3.53 1.84,5.92 3.64,5.92 0.8,0 1.55,-0.39 1.55,-2.28 0,-1.05 -0.16,-1.61 -0.8,-4.19 z"
           id="path3680" /><path
           style="fill:#000000;stroke-width:0"
           inkscape:connector-curvature="0"
           d="m 517.18,409.87 0,0.71 -0.02,0.68 -0.03,0.66 -0.04,0.64 -0.06,0.62 -0.07,0.6 -0.1,0.57 -0.1,0.56 -0.13,0.55 -0.15,0.53 -0.17,0.51 -0.19,0.5 -0.21,0.49 -0.24,0.48 -0.26,0.47 -0.14,0.23 -0.15,0.23 c -1.08,1.61 -3.23,3 -6.03,3 v -0.98 c 1.89,0 3.7,-1.14 4.33,-3.17 0.56,-1.88 0.59,-4.39 0.59,-7.43 0,-2.57 0,-5.15 -0.45,-7.34 -0.71,-3.17 -3.06,-3.94 -4.47,-3.94 h 0 c -1.59,0 -3.72,0.94 -4.42,3.8 -0.49,2.05 -0.49,4.91 -0.49,7.48 0,2.55 0,5.21 0.52,7.11 0.73,2.75 2.97,3.49 4.39,3.49 v 0.98 c -8.08,0 -8.08,-9.51 -8.08,-12.03 0,-2.5 0,-11.81 8.08,-11.81 8.09,0 8.09,9.31 8.09,11.81 z"
           id="path3682" /><path
           style="fill:#000000;stroke-width:0"
           inkscape:connector-curvature="0"
           d="m 536.59,405.11 h -1.19 c -0.09,-0.77 -0.45,-2.83 -0.9,-3.18 -0.27,-0.2 -2.96,-0.2 -3.44,-0.2 h -6.42 c 3.65,3.23 4.87,4.2 6.96,5.84 2.58,2.07 4.99,4.22 4.99,7.54 0,4.21 -3.69,6.79 -8.16,6.79 -4.31,0 -7.25,-3.03 -7.25,-6.23 0,-1.78 1.5,-1.96 1.86,-1.96 0.83,0 1.85,0.6 1.85,1.85 0,0.62 -0.25,1.84 -2.07,1.84 1.08,2.47 3.46,3.24 5.1,3.24 3.48,0 5.3,-2.71 5.3,-5.53 0,-3.04 -2.16,-5.44 -3.29,-6.69 l -8.39,-8.3 c -0.36,-0.31 -0.36,-0.39 -0.36,-1.36 h 14.36 z"
           id="path3684" /></g>    </g>
  </g>
</svg>
