<?xml version="1.0" encoding="UTF-8" standalone="no"?>
<!-- Created with Inkscape (http://www.inkscape.org/) -->

<svg
   xmlns:dc="http://purl.org/dc/elements/1.1/"
   xmlns:cc="http://creativecommons.org/ns#"
   xmlns:rdf="http://www.w3.org/1999/02/22-rdf-syntax-ns#"
   xmlns:svg="http://www.w3.org/2000/svg"
   xmlns="http://www.w3.org/2000/svg"
   xmlns:sodipodi="http://sodipodi.sourceforge.net/DTD/sodipodi-0.dtd"
   xmlns:inkscape="http://www.inkscape.org/namespaces/inkscape"
   width="1052.3622"
   height="744.09448"
   id="svg3120"
   version="1.1"
   inkscape:version="0.48.2 r9819"
   sodipodi:docname="curvatureDetail1.svg">
  <sodipodi:namedview
     id="base"
     pagecolor="#ffffff"
     bordercolor="#666666"
     borderopacity="1.0"
     inkscape:pageopacity="0.0"
     inkscape:pageshadow="2"
     inkscape:zoom="1.4"
     inkscape:cx="475.21188"
     inkscape:cy="365.77493"
     inkscape:document-units="px"
     inkscape:current-layer="layer1"
     showgrid="false"
     inkscape:window-width="958"
     inkscape:window-height="612"
     inkscape:window-x="87"
     inkscape:window-y="48"
     inkscape:window-maximized="0" />
  <defs
     id="defs3122">
    <marker
       inkscape:stockid="Arrow1Lend"
       orient="auto"
       refY="0"
       refX="0"
       id="Arrow1Lend"
       style="overflow:visible">
      <path
         inkscape:connector-curvature="0"
         id="path3958"
         d="M 0,0 5,-5 -12.5,0 5,5 0,0 z"
         style="fill-rule:evenodd;stroke:#000000;stroke-width:1pt;marker-start:none"
         transform="matrix(-0.8,0,0,-0.8,-10,0)" />
    </marker>
    <marker
       inkscape:stockid="Arrow1Lend"
       orient="auto"
       refY="0"
       refX="0"
       id="marker3140"
       style="overflow:visible">
      <path
         inkscape:connector-curvature="0"
         id="path3142"
         d="M 0,0 5,-5 -12.5,0 5,5 0,0 z"
         style="fill-rule:evenodd;stroke:#000000;stroke-width:1pt;marker-start:none"
         transform="matrix(-0.8,0,0,-0.8,-10,0)" />
    </marker>
    <inkscape:path-effect
       effect="spiro"
       id="path-effect11301"
       is_visible="true" />
    <marker
       style="overflow:visible"
       id="Arrow1Lend-1"
       refX="0"
       refY="0"
       orient="auto"
       inkscape:stockid="Arrow1Lend">
      <path
         transform="matrix(-0.8,0,0,-0.8,-10,0)"
         style="fill-rule:evenodd;stroke:#000000;stroke-width:1pt;marker-start:none"
         d="M 0,0 5,-5 -12.5,0 5,5 0,0 z"
         id="path3958-5"
         inkscape:connector-curvature="0" />
    </marker>
    <marker
       style="overflow:visible"
       id="marker3045"
       refX="0"
       refY="0"
       orient="auto"
       inkscape:stockid="Arrow1Lend">
      <path
         transform="matrix(-0.8,0,0,-0.8,-10,0)"
         style="fill-rule:evenodd;stroke:#000000;stroke-width:1pt;marker-start:none"
         d="M 0,0 5,-5 -12.5,0 5,5 0,0 z"
         id="path3047"
         inkscape:connector-curvature="0" />
    </marker>
    <marker
       style="overflow:visible"
       id="marker3049"
       refX="0"
       refY="0"
       orient="auto"
       inkscape:stockid="Arrow1Lend">
      <path
         transform="matrix(-0.8,0,0,-0.8,-10,0)"
         style="fill-rule:evenodd;stroke:#000000;stroke-width:1pt;marker-start:none"
         d="M 0,0 5,-5 -12.5,0 5,5 0,0 z"
         id="path3051"
         inkscape:connector-curvature="0" />
    </marker>
    <marker
       style="overflow:visible"
       id="marker3053"
       refX="0"
       refY="0"
       orient="auto"
       inkscape:stockid="Arrow1Lend">
      <path
         transform="matrix(-0.8,0,0,-0.8,-10,0)"
         style="fill-rule:evenodd;stroke:#000000;stroke-width:1pt;marker-start:none"
         d="M 0,0 5,-5 -12.5,0 5,5 0,0 z"
         id="path3055"
         inkscape:connector-curvature="0" />
    </marker>
    <marker
       style="overflow:visible"
       id="marker3057"
       refX="0"
       refY="0"
       orient="auto"
       inkscape:stockid="Arrow1Lend">
      <path
         transform="matrix(-0.8,0,0,-0.8,-10,0)"
         style="fill-rule:evenodd;stroke:#000000;stroke-width:1pt;marker-start:none"
         d="M 0,0 5,-5 -12.5,0 5,5 0,0 z"
         id="path3059"
         inkscape:connector-curvature="0" />
    </marker>
    <marker
       style="overflow:visible"
       id="marker3061"
       refX="0"
       refY="0"
       orient="auto"
       inkscape:stockid="Arrow1Lend">
      <path
         transform="matrix(-0.8,0,0,-0.8,-10,0)"
         style="fill-rule:evenodd;stroke:#000000;stroke-width:1pt;marker-start:none"
         d="M 0,0 5,-5 -12.5,0 5,5 0,0 z"
         id="path3063"
         inkscape:connector-curvature="0" />
    </marker>
    <marker
       style="overflow:visible"
       id="marker3065"
       refX="0"
       refY="0"
       orient="auto"
       inkscape:stockid="Arrow1Lend">
      <path
         transform="matrix(-0.8,0,0,-0.8,-10,0)"
         style="fill-rule:evenodd;stroke:#000000;stroke-width:1pt;marker-start:none"
         d="M 0,0 5,-5 -12.5,0 5,5 0,0 z"
         id="path3067"
         inkscape:connector-curvature="0" />
    </marker>
    <marker
       style="overflow:visible"
       id="marker3069"
       refX="0"
       refY="0"
       orient="auto"
       inkscape:stockid="Arrow1Lend">
      <path
         transform="matrix(-0.8,0,0,-0.8,-10,0)"
         style="fill-rule:evenodd;stroke:#000000;stroke-width:1pt;marker-start:none"
         d="M 0,0 5,-5 -12.5,0 5,5 0,0 z"
         id="path3071"
         inkscape:connector-curvature="0" />
    </marker>
    <marker
       style="overflow:visible"
       id="marker3073"
       refX="0"
       refY="0"
       orient="auto"
       inkscape:stockid="Arrow1Lend">
      <path
         transform="matrix(-0.8,0,0,-0.8,-10,0)"
         style="fill-rule:evenodd;stroke:#000000;stroke-width:1pt;marker-start:none"
         d="M 0,0 5,-5 -12.5,0 5,5 0,0 z"
         id="path3075"
         inkscape:connector-curvature="0" />
    </marker>
    <marker
       style="overflow:visible"
       id="marker3077"
       refX="0"
       refY="0"
       orient="auto"
       inkscape:stockid="Arrow1Lend">
      <path
         transform="matrix(-0.8,0,0,-0.8,-10,0)"
         style="fill-rule:evenodd;stroke:#000000;stroke-width:1pt;marker-start:none"
         d="M 0,0 5,-5 -12.5,0 5,5 0,0 z"
         id="path3079"
         inkscape:connector-curvature="0" />
    </marker>
    <marker
       style="overflow:visible"
       id="marker3081"
       refX="0"
       refY="0"
       orient="auto"
       inkscape:stockid="Arrow1Lend">
      <path
         transform="matrix(-0.8,0,0,-0.8,-10,0)"
         style="fill-rule:evenodd;stroke:#000000;stroke-width:1pt;marker-start:none"
         d="M 0,0 5,-5 -12.5,0 5,5 0,0 z"
         id="path3083"
         inkscape:connector-curvature="0" />
    </marker>
    <marker
       inkscape:stockid="Arrow1Lend"
       orient="auto"
       refY="0"
       refX="0"
       id="Arrow1Lend-0"
       style="overflow:visible">
      <path
         inkscape:connector-curvature="0"
         id="path3958-4"
         d="M 0,0 5,-5 -12.5,0 5,5 0,0 z"
         style="fill-rule:evenodd;stroke:#000000;stroke-width:1pt;marker-start:none"
         transform="matrix(-0.8,0,0,-0.8,-10,0)" />
    </marker>
    <marker
       inkscape:stockid="Arrow1Lend"
       orient="auto"
       refY="0"
       refX="0"
       id="marker3188"
       style="overflow:visible">
      <path
         inkscape:connector-curvature="0"
         id="path3190"
         d="M 0,0 5,-5 -12.5,0 5,5 0,0 z"
         style="fill-rule:evenodd;stroke:#000000;stroke-width:1pt;marker-start:none"
         transform="matrix(-0.8,0,0,-0.8,-10,0)" />
    </marker>
    <marker
       inkscape:stockid="Arrow1Lend"
       orient="auto"
       refY="0"
       refX="0"
       id="marker3192"
       style="overflow:visible">
      <path
         inkscape:connector-curvature="0"
         id="path3194"
         d="M 0,0 5,-5 -12.5,0 5,5 0,0 z"
         style="fill-rule:evenodd;stroke:#000000;stroke-width:1pt;marker-start:none"
         transform="matrix(-0.8,0,0,-0.8,-10,0)" />
    </marker>
    <marker
       inkscape:stockid="Arrow1Lend"
       orient="auto"
       refY="0"
       refX="0"
       id="marker3196"
       style="overflow:visible">
      <path
         inkscape:connector-curvature="0"
         id="path3198"
         d="M 0,0 5,-5 -12.5,0 5,5 0,0 z"
         style="fill-rule:evenodd;stroke:#000000;stroke-width:1pt;marker-start:none"
         transform="matrix(-0.8,0,0,-0.8,-10,0)" />
    </marker>
    <marker
       inkscape:stockid="Arrow1Lend"
       orient="auto"
       refY="0"
       refX="0"
       id="marker3200"
       style="overflow:visible">
      <path
         inkscape:connector-curvature="0"
         id="path3202"
         d="M 0,0 5,-5 -12.5,0 5,5 0,0 z"
         style="fill-rule:evenodd;stroke:#000000;stroke-width:1pt;marker-start:none"
         transform="matrix(-0.8,0,0,-0.8,-10,0)" />
    </marker>
    <marker
       inkscape:stockid="Arrow1Lend"
       orient="auto"
       refY="0"
       refX="0"
       id="Arrow1Lend-2"
       style="overflow:visible">
      <path
         inkscape:connector-curvature="0"
         id="path3958-2"
         d="M 0,0 5,-5 -12.5,0 5,5 0,0 z"
         style="fill-rule:evenodd;stroke:#000000;stroke-width:1pt;marker-start:none"
         transform="matrix(-0.8,0,0,-0.8,-10,0)" />
    </marker>
    <marker
       inkscape:stockid="Arrow1Lend"
       orient="auto"
       refY="0"
       refX="0"
       id="marker4300"
       style="overflow:visible">
      <path
         inkscape:connector-curvature="0"
         id="path4302"
         d="M 0,0 5,-5 -12.5,0 5,5 0,0 z"
         style="fill-rule:evenodd;stroke:#000000;stroke-width:1pt;marker-start:none"
         transform="matrix(-0.8,0,0,-0.8,-10,0)" />
    </marker>
    <marker
       inkscape:stockid="Arrow1Lend"
       orient="auto"
       refY="0"
       refX="0"
       id="marker4304"
       style="overflow:visible">
      <path
         inkscape:connector-curvature="0"
         id="path4306"
         d="M 0,0 5,-5 -12.5,0 5,5 0,0 z"
         style="fill-rule:evenodd;stroke:#000000;stroke-width:1pt;marker-start:none"
         transform="matrix(-0.8,0,0,-0.8,-10,0)" />
    </marker>
    <marker
       inkscape:stockid="Arrow1Lend"
       orient="auto"
       refY="0"
       refX="0"
       id="marker4308"
       style="overflow:visible">
      <path
         inkscape:connector-curvature="0"
         id="path4310"
         d="M 0,0 5,-5 -12.5,0 5,5 0,0 z"
         style="fill-rule:evenodd;stroke:#000000;stroke-width:1pt;marker-start:none"
         transform="matrix(-0.8,0,0,-0.8,-10,0)" />
    </marker>
    <marker
       inkscape:stockid="Arrow1Lend"
       orient="auto"
       refY="0"
       refX="0"
       id="marker4312"
       style="overflow:visible">
      <path
         inkscape:connector-curvature="0"
         id="path4314"
         d="M 0,0 5,-5 -12.5,0 5,5 0,0 z"
         style="fill-rule:evenodd;stroke:#000000;stroke-width:1pt;marker-start:none"
         transform="matrix(-0.8,0,0,-0.8,-10,0)" />
    </marker>
    <marker
       inkscape:stockid="Arrow1Lend"
       orient="auto"
       refY="0"
       refX="0"
       id="Arrow1Lend-9"
       style="overflow:visible">
      <path
         inkscape:connector-curvature="0"
         id="path3958-1"
         d="M 0,0 5,-5 -12.5,0 5,5 0,0 z"
         style="fill-rule:evenodd;stroke:#000000;stroke-width:1pt;marker-start:none"
         transform="matrix(-0.8,0,0,-0.8,-10,0)" />
    </marker>
    <marker
       inkscape:stockid="Arrow1Lend"
       orient="auto"
       refY="0"
       refX="0"
       id="marker4374"
       style="overflow:visible">
      <path
         inkscape:connector-curvature="0"
         id="path4376"
         d="M 0,0 5,-5 -12.5,0 5,5 0,0 z"
         style="fill-rule:evenodd;stroke:#000000;stroke-width:1pt;marker-start:none"
         transform="matrix(-0.8,0,0,-0.8,-10,0)" />
    </marker>
    <marker
       inkscape:stockid="Arrow1Lend"
       orient="auto"
       refY="0"
       refX="0"
       id="marker4378"
       style="overflow:visible">
      <path
         inkscape:connector-curvature="0"
         id="path4380"
         d="M 0,0 5,-5 -12.5,0 5,5 0,0 z"
         style="fill-rule:evenodd;stroke:#000000;stroke-width:1pt;marker-start:none"
         transform="matrix(-0.8,0,0,-0.8,-10,0)" />
    </marker>
    <marker
       inkscape:stockid="Arrow1Lend"
       orient="auto"
       refY="0"
       refX="0"
       id="marker4382"
       style="overflow:visible">
      <path
         inkscape:connector-curvature="0"
         id="path4384"
         d="M 0,0 5,-5 -12.5,0 5,5 0,0 z"
         style="fill-rule:evenodd;stroke:#000000;stroke-width:1pt;marker-start:none"
         transform="matrix(-0.8,0,0,-0.8,-10,0)" />
    </marker>
    <marker
       inkscape:stockid="Arrow1Lend"
       orient="auto"
       refY="0"
       refX="0"
       id="marker4386"
       style="overflow:visible">
      <path
         inkscape:connector-curvature="0"
         id="path4388"
         d="M 0,0 5,-5 -12.5,0 5,5 0,0 z"
         style="fill-rule:evenodd;stroke:#000000;stroke-width:1pt;marker-start:none"
         transform="matrix(-0.8,0,0,-0.8,-10,0)" />
    </marker>
  </defs>
  <metadata
     id="metadata3125">
    <rdf:RDF>
      <cc:Work
         rdf:about="">
        <dc:format>image/svg+xml</dc:format>
        <dc:type
           rdf:resource="http://purl.org/dc/dcmitype/StillImage" />
        <dc:title />
      </cc:Work>
    </rdf:RDF>
  </metadata>
  <g
     inkscape:label="Layer 1"
     inkscape:groupmode="layer"
     id="layer1"
     transform="translate(0,-308.2677)">
    <path
       transform="translate(0,308.2677)"
       inkscape:connector-curvature="0"
       id="path4461"
       d="m 513.57143,254.09448 77.14286,121.42857 -73.57143,36.42858 -73.57143,-38.57143 z"
       style="fill:#959595;stroke:none;stroke-width:1px;stroke-linecap:butt;stroke-linejoin:miter;stroke-opacity:1;fill-opacity:1" />
    <path
       style="fill:none;stroke:#000000;stroke-width:1.9;stroke-linecap:butt;stroke-linejoin:miter;stroke-opacity:1;stroke-miterlimit:4;stroke-dasharray:none"
       d="M 445.47727,374.37865 517.1981,411.75429 590,374.80877"
       id="path3007"
       inkscape:connector-curvature="0"
       transform="translate(0,308.2677)" />
    <path
       style="fill:none;stroke:#000000;stroke-width:3.92328668;stroke-linecap:butt;stroke-linejoin:miter;stroke-miterlimit:4;stroke-opacity:1;stroke-dasharray:none"
       d="m 377.12673,805.13182 135.09698,-245.69545 156.40728,245.30145 -291.50426,0.394"
       id="path11299"
       inkscape:path-effect="#path-effect11301"
       inkscape:original-d="M 377.12673,805.13182 512.22371,559.43637 668.63099,804.73782 z"
       inkscape:connector-curvature="0"
       sodipodi:nodetypes="cccc" />
    <path
       sodipodi:type="arc"
       style="fill:#000000;stroke-width:3.29999995;stroke-miterlimit:4;stroke-dasharray:none;stroke-dashoffset:0"
       id="path3787-8-8"
       sodipodi:cx="150.51273"
       sodipodi:cy="204.67302"
       sodipodi:rx="10.101525"
       sodipodi:ry="10.101525"
       d="m 160.61425,204.67302 c 0,5.57892 -4.52261,10.10152 -10.10152,10.10152 -5.57892,0 -10.10153,-4.5226 -10.10153,-10.10152 0,-5.57892 4.52261,-10.10153 10.10153,-10.10153 5.57891,0 10.10152,4.52261 10.10152,10.10153 z"
       transform="matrix(1.1767767,0,0,1.1767767,201.66585,560.76871)" />
    <path
       sodipodi:type="arc"
       style="fill:#000000;stroke-width:3.29999995;stroke-miterlimit:4;stroke-dasharray:none;stroke-dashoffset:0"
       id="path3787-8-8-5"
       sodipodi:cx="150.51273"
       sodipodi:cy="204.67302"
       sodipodi:rx="10.101525"
       sodipodi:ry="10.101525"
       d="m 160.61425,204.67302 c 0,5.57892 -4.52261,10.10152 -10.10152,10.10152 -5.57892,0 -10.10153,-4.5226 -10.10153,-10.10152 0,-5.57892 4.52261,-10.10153 10.10153,-10.10153 5.57891,0 10.10152,4.52261 10.10152,10.10153 z"
       transform="matrix(1.1767767,0,0,1.1767767,334.38013,321.7687)" />
    <path
       sodipodi:type="arc"
       style="fill:#000000;stroke-width:3.29999995;stroke-miterlimit:4;stroke-dasharray:none;stroke-dashoffset:0"
       id="path3787-8-8-5-0"
       sodipodi:cx="150.51273"
       sodipodi:cy="204.67302"
       sodipodi:rx="10.101525"
       sodipodi:ry="10.101525"
       d="m 160.61425,204.67302 c 0,5.57892 -4.52261,10.10152 -10.10152,10.10152 -5.57892,0 -10.10153,-4.5226 -10.10153,-10.10152 0,-5.57892 4.52261,-10.10153 10.10153,-10.10153 5.57891,0 10.10152,4.52261 10.10152,10.10153 z"
       transform="matrix(1.1767767,0,0,1.1767767,490.09442,561.76871)" />
    <path
       sodipodi:type="star"
       style="color:#000000;fill:#ffffff;stroke:#000000;stroke-width:1.0454545;stroke-linecap:butt;stroke-linejoin:miter;stroke-miterlimit:4;stroke-opacity:1;stroke-dasharray:none;stroke-dashoffset:0;marker:none;visibility:visible;display:inline;overflow:visible;enable-background:accumulate"
       id="path10494-1"
       sodipodi:sides="4"
       sodipodi:cx="383.92856"
       sodipodi:cy="155.8802"
       sodipodi:r1="3.5714285"
       sodipodi:r2="2.5253813"
       sodipodi:arg1="0.92729522"
       sodipodi:arg2="1.7126934"
       inkscape:flatsided="true"
       inkscape:rounded="0"
       inkscape:randomized="0"
       d="m 386.07142,158.73735 -5,-0.71429 0.71428,-5 5,0.71429 z"
       transform="matrix(3.2566763,0,0,3.2566763,-804.18822,174.97179)" />
    <path
       sodipodi:type="star"
       style="color:#000000;fill:#ffffff;stroke:#000000;stroke-width:1.0454545;stroke-linecap:butt;stroke-linejoin:miter;stroke-miterlimit:4;stroke-opacity:1;stroke-dasharray:none;stroke-dashoffset:0;marker:none;visibility:visible;display:inline;overflow:visible;enable-background:accumulate"
       id="path10494-1-1"
       sodipodi:sides="4"
       sodipodi:cx="383.92856"
       sodipodi:cy="155.8802"
       sodipodi:r1="3.5714285"
       sodipodi:r2="2.5253813"
       sodipodi:arg1="0.92729522"
       sodipodi:arg2="1.7126934"
       inkscape:flatsided="true"
       inkscape:rounded="0"
       inkscape:randomized="0"
       d="m 386.07142,158.73735 -5,-0.71429 0.71428,-5 5,0.71429 z"
       transform="matrix(3.2566763,0,0,3.2566763,-660.61672,174.61464)" />
    <path
       sodipodi:type="star"
       style="color:#000000;fill:#ffffff;stroke:#000000;stroke-width:1.0454545;stroke-linecap:butt;stroke-linejoin:miter;stroke-miterlimit:4;stroke-opacity:1;stroke-dasharray:none;stroke-dashoffset:0;marker:none;visibility:visible;display:inline;overflow:visible;enable-background:accumulate"
       id="path10494-1-15"
       sodipodi:sides="4"
       sodipodi:cx="383.92856"
       sodipodi:cy="155.8802"
       sodipodi:r1="3.5714285"
       sodipodi:r2="2.5253813"
       sodipodi:arg1="0.92729522"
       sodipodi:arg2="1.7126934"
       inkscape:flatsided="true"
       inkscape:rounded="0"
       inkscape:randomized="0"
       d="m 386.07142,158.73735 -5,-0.71429 0.71428,-5 5,0.71429 z"
       transform="matrix(3.2566763,0,0,3.2566763,-731.75961,212.56796)" />
    <g
       transform="matrix(0.49253443,0,0,0.49253443,330.4003,516.13862)"
       id="g3059">
      <g
         style="font-style:normal;font-variant:normal;font-weight:normal;font-stretch:normal;letter-spacing:normal;word-spacing:normal;text-anchor:start;fill:none;stroke:#000000;stroke-linecap:butt;stroke-linejoin:miter;stroke-miterlimit:10.43299961;stroke-opacity:1;stroke-dasharray:none;stroke-dashoffset:0"
         id="content"
         transform="matrix(1.0629921,0,0,-1.0629921,-186.02362,789.27165)"
         xml:space="preserve"
         stroke-miterlimit="10.433"
         font-style="normal"
         font-variant="normal"
         font-weight="normal"
         font-stretch="normal"
         font-size-adjust="none"
         letter-spacing="normal"
         word-spacing="normal"><path
           style="fill:#000000;stroke-width:0"
           inkscape:connector-curvature="0"
           d="m 481.22,440.23 0,0 0,0.01 0,0 0,0.01 0,0.02 0,0.01 0,0.02 0,0.02 -0.01,0.02 0,0.02 -0.01,0.02 0,0.02 -0.01,0.02 -0.01,0.03 -0.01,0.02 -0.01,0.03 -0.02,0.02 -0.01,0.03 -0.02,0.02 -0.02,0.02 -0.02,0.03 -0.02,0.01 -0.01,0.01 -0.01,0.01 -0.02,0.01 -0.01,0.01 -0.02,0.01 -0.01,0.01 -0.02,0.01 -0.01,0.01 -0.02,0.01 -0.02,0 -0.02,0.01 -0.02,0.01 -0.02,0 -0.02,0.01 -0.03,0.01 -0.02,0 -0.02,0 -0.03,0.01 -0.03,0 -0.02,0 -0.03,0.01 -0.03,0 -0.03,0 c -0.75,0 -5.48,-0.46 -6.33,-0.55 -0.4,-0.05 -0.7,-0.3 -0.7,-0.95 0,-0.6 0.45,-0.6 1.2,-0.6 2.39,0 2.49,-0.34 2.49,-0.84 l -0.14,-1 -3,-11.81 c -0.89,1.84 -2.35,3.18 -4.58,3.18 l 0.05,-1.09 c 3.23,0 3.93,-4.08 3.93,-4.37 0,-0.32 -0.09,-0.61 -0.14,-0.86 l -2.5,-9.77 c -0.25,-0.89 -0.25,-0.98 -1,-1.84 -2.18,-2.74 -4.23,-3.53 -5.62,-3.53 -2.49,0 -3.19,2.73 -3.19,4.68 0,2.49 1.59,8.61 2.74,10.91 1.54,2.94 3.79,4.78 5.78,4.78 l -0.05,1.09 c -5.83,0 -12,-7.31 -12,-14.59 0,-4.69 2.73,-7.97 6.62,-7.97 0.99,0 3.49,0.21 6.47,3.74 0.41,-2.1 2.14,-3.74 4.53,-3.74 1.75,0 2.9,1.14 3.69,2.74 0.85,1.79 1.5,4.84 1.5,4.93 0,0.5 -0.45,0.5 -0.59,0.5 -0.5,0 -0.55,-0.2 -0.7,-0.9 -0.85,-3.24 -1.75,-6.17 -3.79,-6.17 -1.34,0 -1.5,1.29 -1.5,2.29 0,1.19 0.1,1.55 0.3,2.39 z"
           id="path3062" /><path
           style="fill:#000000;stroke-width:0"
           inkscape:connector-curvature="0"
           d="m 493.11,420.92 0,0.04 0,0.04 0,0.05 0,0.04 0,0.03 0,0.04 0,0.04 0,0.03 0,0.04 0,0.03 -0.01,0.03 0,0.03 0,0.03 0,0.03 -0.01,0.03 0,0.02 -0.01,0.03 0,0.02 -0.01,0.03 0,0.02 -0.01,0.04 -0.02,0.04 -0.02,0.03 -0.01,0.03 -0.03,0.03 -0.02,0.03 -0.03,0.02 -0.03,0.02 -0.03,0.02 -0.04,0.01 -0.04,0.01 -0.04,0.02 -0.03,0 -0.02,0 -0.03,0.01 -0.02,0 -0.03,0.01 -0.03,0 -0.03,0 -0.03,0 -0.03,0 -0.04,0.01 -0.03,0 -0.04,0 -0.03,0 -0.04,0 -0.04,0 -0.04,0 -0.04,0 -0.04,0 -0.05,0 -0.04,0 c -2.24,-2.2 -5.39,-2.23 -6.83,-2.23 v -1.25 c 0.84,0 3.14,0 5.05,0.97 v -17.77 c 0,-1.16 0,-1.61 -3.49,-1.61 h -1.31 v -1.25 c 0.62,0.03 4.9,0.14 6.2,0.14 1.08,0 5.47,-0.11 6.24,-0.14 v 1.25 h -1.33 c -3.49,0 -3.49,0.45 -3.49,1.61 z"
           id="path3064" /></g>    </g>
    <g
       id="g3136"
       transform="matrix(0.49253443,0,0,0.49253443,389.97173,516.13862)">
      <g
         word-spacing="normal"
         letter-spacing="normal"
         font-size-adjust="none"
         font-stretch="normal"
         font-weight="normal"
         font-variant="normal"
         font-style="normal"
         stroke-miterlimit="10.433"
         xml:space="preserve"
         transform="matrix(1.0629921,0,0,-1.0629921,-186.02362,789.27165)"
         id="g3138"
         style="font-style:normal;font-variant:normal;font-weight:normal;font-stretch:normal;letter-spacing:normal;word-spacing:normal;text-anchor:start;fill:none;stroke:#000000;stroke-linecap:butt;stroke-linejoin:miter;stroke-miterlimit:10.43299961;stroke-opacity:1;stroke-dasharray:none;stroke-dashoffset:0"><path
           id="path3140"
           d="m 481.22,440.23 0,0 0,0.01 0,0 0,0.01 0,0.02 0,0.01 0,0.02 0,0.02 -0.01,0.02 0,0.02 -0.01,0.02 0,0.02 -0.01,0.02 -0.01,0.03 -0.01,0.02 -0.01,0.03 -0.02,0.02 -0.01,0.03 -0.02,0.02 -0.02,0.02 -0.02,0.03 -0.02,0.01 -0.01,0.01 -0.01,0.01 -0.02,0.01 -0.01,0.01 -0.02,0.01 -0.01,0.01 -0.02,0.01 -0.01,0.01 -0.02,0.01 -0.02,0 -0.02,0.01 -0.02,0.01 -0.02,0 -0.02,0.01 -0.03,0.01 -0.02,0 -0.02,0 -0.03,0.01 -0.03,0 -0.02,0 -0.03,0.01 -0.03,0 -0.03,0 c -0.75,0 -5.48,-0.46 -6.33,-0.55 -0.4,-0.05 -0.7,-0.3 -0.7,-0.95 0,-0.6 0.45,-0.6 1.2,-0.6 2.39,0 2.49,-0.34 2.49,-0.84 l -0.14,-1 -3,-11.81 c -0.89,1.84 -2.35,3.18 -4.58,3.18 l 0.05,-1.09 c 3.23,0 3.93,-4.08 3.93,-4.37 0,-0.32 -0.09,-0.61 -0.14,-0.86 l -2.5,-9.77 c -0.25,-0.89 -0.25,-0.98 -1,-1.84 -2.18,-2.74 -4.23,-3.53 -5.62,-3.53 -2.49,0 -3.19,2.73 -3.19,4.68 0,2.49 1.59,8.61 2.74,10.91 1.54,2.94 3.79,4.78 5.78,4.78 l -0.05,1.09 c -5.83,0 -12,-7.31 -12,-14.59 0,-4.69 2.73,-7.97 6.62,-7.97 0.99,0 3.49,0.21 6.47,3.74 0.41,-2.1 2.14,-3.74 4.53,-3.74 1.75,0 2.9,1.14 3.69,2.74 0.85,1.79 1.5,4.84 1.5,4.93 0,0.5 -0.45,0.5 -0.59,0.5 -0.5,0 -0.55,-0.2 -0.7,-0.9 -0.85,-3.24 -1.75,-6.17 -3.79,-6.17 -1.34,0 -1.5,1.29 -1.5,2.29 0,1.19 0.1,1.55 0.3,2.39 z"
           inkscape:connector-curvature="0"
           style="fill:#000000;stroke-width:0" /><path
           id="path3143"
           d="m 499.04,405.11 h -1.19 c -0.1,-0.77 -0.46,-2.83 -0.91,-3.18 -0.26,-0.2 -2.95,-0.2 -3.44,-0.2 h -6.42 c 3.66,3.23 4.88,4.2 6.97,5.84 2.58,2.07 4.99,4.22 4.99,7.54 0,4.21 -3.69,6.79 -8.16,6.79 -4.31,0 -7.25,-3.03 -7.25,-6.23 0,-1.78 1.5,-1.96 1.86,-1.96 0.83,0 1.84,0.6 1.84,1.85 0,0.62 -0.25,1.84 -2.06,1.84 1.08,2.47 3.45,3.24 5.09,3.24 3.49,0 5.3,-2.71 5.3,-5.53 0,-3.04 -2.16,-5.44 -3.28,-6.69 l -8.39,-8.3 c -0.36,-0.31 -0.36,-0.39 -0.36,-1.36 h 14.36 z"
           inkscape:connector-curvature="0"
           style="fill:#000000;stroke-width:0" /></g>    </g>
    <g
       id="g4329"
       transform="matrix(0.49253443,0,0,0.49253443,406.48568,577.5842)">
      <g
         id="g4331"
         transform="matrix(1.0629921,0,0,-1.0629921,-186.02362,789.27165)"
         xml:space="preserve"
         stroke-miterlimit="10.433"
         font-style="normal"
         font-variant="normal"
         font-weight="normal"
         font-stretch="normal"
         font-size-adjust="none"
         letter-spacing="normal"
         word-spacing="normal"
         style="font-style:normal;font-variant:normal;font-weight:normal;font-stretch:normal;letter-spacing:normal;word-spacing:normal;text-anchor:start;fill:none;stroke:#000000;stroke-linecap:butt;stroke-linejoin:miter;stroke-miterlimit:10.43299961;stroke-opacity:1;stroke-dasharray:none;stroke-dashoffset:0"><path
           d="m 460.64,425.98 v -13.66 c 0,-5.32 4.35,-6.42 7.88,-6.42 3.8,0 6.03,2.85 6.03,6.47 v 2.64 h -2.34 v -2.53 c 0,-3.39 -1.6,-4.59 -2.99,-4.59 -2.89,0 -2.89,3.18 -2.89,4.34 v 13.75 h 7.27 v 2.34 h -7.27 v 9.52 h -2.34 c -0.05,-4.98 -2.49,-9.92 -7.42,-10.06 v -1.8 z"
           id="path4333"
           inkscape:connector-curvature="0"
           style="fill:#000000;stroke-width:0" /><path
           d="m 497.98,406.7 h -2.2 c -0.07,-0.41 -0.38,-2.89 -1,-3.03 -0.74,-0.13 -2.83,-0.13 -3.63,-0.13 h -4.78 c 1.92,1.42 3.88,2.85 5.89,4.14 2.83,1.82 5.72,3.66 5.72,7.14 0,4.19 -3.94,6.8 -9.48,6.8 -4.74,0 -8.29,-1.84 -8.29,-5.16 0,-2.01 1.63,-2.75 2.68,-2.75 1.26,0 2.72,0.86 2.72,2.72 0,1.68 -1.29,2.36 -1.4,2.41 1.25,0.8 2.86,0.83 3.29,0.83 2.95,0 5.29,-1.88 5.29,-4.88 0,-2.68 -1.81,-4.92 -3.84,-6.68 l -8.28,-7.36 c -0.42,-0.43 -0.46,-0.46 -0.46,-1.14 v -0.85 h 16.58 z"
           id="path4335"
           inkscape:connector-curvature="0"
           style="fill:#000000;stroke-width:0" /><path
           d="m 521.73,409.25 -0.01,0.19 0,0.2 -0.01,0.19 -0.01,0.18 -0.02,0.18 -0.02,0.18 -0.06,0.33 -0.07,0.32 -0.08,0.3 -0.09,0.29 -0.11,0.26 -0.12,0.25 -0.14,0.24 -0.15,0.22 -0.15,0.2 -0.17,0.19 -0.18,0.18 -0.19,0.16 -0.2,0.15 -0.21,0.14 -0.22,0.12 -0.22,0.11 -0.24,0.11 -0.24,0.09 -0.25,0.08 -0.26,0.07 -0.26,0.06 -0.27,0.05 -0.28,0.05 -0.28,0.03 -0.28,0.03 -0.29,0.02 -0.29,0.02 -0.3,0.01 -0.3,0 c -4.21,0 -6.16,-2.52 -6.83,-3.63 v 3.63 l -6.3,-0.28 v -1.96 c 2.05,0 2.33,0 2.33,-1.35 v -10.15 h -2.33 v -1.95 c 0.03,0 2.86,0.14 4.53,0.14 1.71,0 4.54,-0.14 4.57,-0.14 v 1.95 h -2.35 v 6.72 c 0,4.05 3.63,5.41 5.72,5.41 1.53,0 2.2,-0.8 2.2,-3.31 v -8.82 h -2.34 v -1.95 c 0.03,0 2.86,0.14 4.53,0.14 1.71,0 4.53,-0.14 4.56,-0.14 v 1.95 h -2.32 z"
           id="path4337"
           inkscape:connector-curvature="0"
           style="fill:#000000;stroke-width:0" /><path
           d="m 553.7,440.23 0,0 0,0.01 0,0 0,0.01 0,0.02 0,0.01 0,0.02 0,0.02 -0.01,0.02 0,0.02 -0.01,0.02 0,0.02 -0.01,0.02 -0.01,0.03 -0.01,0.02 -0.01,0.03 -0.02,0.02 -0.01,0.03 -0.02,0.02 -0.02,0.02 -0.02,0.03 -0.02,0.01 -0.01,0.01 -0.01,0.01 -0.02,0.01 -0.01,0.01 -0.02,0.01 -0.01,0.01 -0.02,0.01 -0.01,0.01 -0.02,0.01 -0.02,0 -0.02,0.01 -0.02,0.01 -0.02,0 -0.02,0.01 -0.03,0.01 -0.02,0 -0.02,0 -0.03,0.01 -0.03,0 -0.02,0 -0.03,0.01 -0.03,0 -0.03,0 c -0.75,0 -5.48,-0.46 -6.33,-0.55 -0.4,-0.05 -0.7,-0.3 -0.7,-0.95 0,-0.6 0.45,-0.6 1.2,-0.6 2.39,0 2.49,-0.34 2.49,-0.84 l -0.14,-1 -3,-11.81 c -0.89,1.84 -2.35,3.18 -4.58,3.18 l 0.05,-1.09 c 3.23,0 3.93,-4.08 3.93,-4.37 0,-0.32 -0.09,-0.61 -0.14,-0.86 l -2.5,-9.77 c -0.25,-0.89 -0.25,-0.98 -1,-1.84 -2.18,-2.74 -4.23,-3.53 -5.62,-3.53 -2.49,0 -3.19,2.73 -3.19,4.68 0,2.49 1.59,8.61 2.74,10.91 1.54,2.94 3.79,4.78 5.78,4.78 l -0.05,1.09 c -5.83,0 -12,-7.31 -12,-14.59 0,-4.69 2.73,-7.97 6.62,-7.97 0.99,0 3.49,0.21 6.47,3.74 0.41,-2.1 2.14,-3.74 4.53,-3.74 1.76,0 2.9,1.14 3.69,2.74 0.85,1.79 1.5,4.84 1.5,4.93 0,0.5 -0.45,0.5 -0.59,0.5 -0.5,0 -0.55,-0.2 -0.7,-0.9 -0.85,-3.24 -1.75,-6.17 -3.79,-6.17 -1.34,0 -1.5,1.29 -1.5,2.29 0,1.19 0.1,1.55 0.3,2.39 z"
           id="path4339"
           inkscape:connector-curvature="0"
           style="fill:#000000;stroke-width:0" /><path
           d="m 571.52,405.11 h -1.19 c -0.1,-0.77 -0.45,-2.83 -0.91,-3.18 -0.26,-0.2 -2.95,-0.2 -3.44,-0.2 h -6.42 c 3.66,3.23 4.88,4.2 6.97,5.84 2.58,2.07 4.99,4.22 4.99,7.54 0,4.21 -3.69,6.79 -8.16,6.79 -4.31,0 -7.25,-3.03 -7.25,-6.23 0,-1.78 1.5,-1.96 1.86,-1.96 0.83,0 1.84,0.6 1.84,1.85 0,0.62 -0.25,1.84 -2.06,1.84 1.08,2.47 3.45,3.24 5.09,3.24 3.49,0 5.3,-2.71 5.3,-5.53 0,-3.04 -2.16,-5.44 -3.28,-6.69 l -8.39,-8.3 c -0.36,-0.31 -0.36,-0.39 -0.36,-1.36 h 14.36 z"
           id="path4341"
           inkscape:connector-curvature="0"
           style="fill:#000000;stroke-width:0" /></g>    </g>
    <g
       id="g4192"
       transform="matrix(0.50746718,0,0,0.50746718,272.60618,575.6993)">
      <g
         word-spacing="normal"
         letter-spacing="normal"
         font-size-adjust="none"
         font-stretch="normal"
         font-weight="normal"
         font-variant="normal"
         font-style="normal"
         stroke-miterlimit="10.433"
         xml:space="preserve"
         transform="matrix(1.0629921,0,0,-1.0629921,-186.02362,789.27165)"
         id="content-96"
         style="font-style:normal;font-variant:normal;font-weight:normal;font-stretch:normal;letter-spacing:normal;word-spacing:normal;text-anchor:start;fill:none;stroke:#000000;stroke-linecap:butt;stroke-linejoin:miter;stroke-miterlimit:10.43299961;stroke-opacity:1;stroke-dasharray:none;stroke-dashoffset:0"><path
           id="path4195"
           d="m 460.64,425.98 v -13.66 c 0,-5.32 4.35,-6.42 7.88,-6.42 3.8,0 6.03,2.85 6.03,6.47 v 2.64 h -2.34 v -2.53 c 0,-3.39 -1.6,-4.59 -2.99,-4.59 -2.89,0 -2.89,3.18 -2.89,4.34 v 13.75 h 7.27 v 2.34 h -7.27 v 9.52 h -2.34 c -0.05,-4.98 -2.49,-9.92 -7.42,-10.06 v -1.8 z"
           inkscape:connector-curvature="0"
           style="fill:#000000;stroke-width:0" /><path
           id="path4197"
           d="m 491.75,420.4 0,0.06 0,0.05 -0.01,0.06 0,0.05 0,0.05 0,0.04 0,0.05 -0.01,0.04 0,0.05 -0.01,0.04 0,0.04 -0.01,0.04 0,0.03 -0.01,0.04 -0.02,0.07 -0.01,0.06 -0.03,0.05 -0.02,0.06 -0.03,0.04 -0.03,0.05 -0.04,0.03 -0.04,0.04 -0.04,0.03 -0.05,0.03 -0.05,0.02 -0.06,0.02 -0.06,0.02 -0.07,0.01 -0.07,0.01 -0.08,0.01 -0.08,0.01 -0.09,0.01 -0.09,0 -0.1,0.01 -0.05,0 -0.06,0 -0.05,0 -0.06,0 -0.06,0 -0.06,0 -0.06,0 -0.06,0 -0.07,0 -0.07,0 c -2.17,-1.75 -5.03,-2.23 -7.81,-2.23 h -0.84 v -1.96 h 0.84 c 1.39,0 3.52,0.25 4.98,0.74 v -17.46 h -5.5 v -1.95 c 1.71,0.14 5.88,0.14 7.77,0.14 1.25,0 2.5,-0.03 3.77,-0.03 1.04,0 2.86,-0.05 3.86,-0.11 v 1.95 h -5.36 z"
           inkscape:connector-curvature="0"
           style="fill:#000000;stroke-width:0" /><path
           id="path4199"
           d="m 521.73,409.25 -0.01,0.19 0,0.2 -0.01,0.19 -0.01,0.18 -0.02,0.18 -0.02,0.18 -0.06,0.33 -0.07,0.32 -0.08,0.3 -0.09,0.29 -0.11,0.26 -0.12,0.25 -0.14,0.24 -0.15,0.22 -0.15,0.2 -0.17,0.19 -0.18,0.18 -0.19,0.16 -0.2,0.15 -0.21,0.14 -0.22,0.12 -0.22,0.11 -0.24,0.11 -0.24,0.09 -0.25,0.08 -0.26,0.07 -0.26,0.06 -0.27,0.05 -0.28,0.05 -0.28,0.03 -0.28,0.03 -0.29,0.02 -0.29,0.02 -0.3,0.01 -0.3,0 c -4.21,0 -6.16,-2.52 -6.83,-3.63 v 3.63 l -6.3,-0.28 v -1.96 c 2.05,0 2.33,0 2.33,-1.35 v -10.15 h -2.33 v -1.95 c 0.03,0 2.86,0.14 4.53,0.14 1.71,0 4.54,-0.14 4.57,-0.14 v 1.95 h -2.35 v 6.72 c 0,4.05 3.63,5.41 5.72,5.41 1.53,0 2.2,-0.8 2.2,-3.31 v -8.82 h -2.34 v -1.95 c 0.03,0 2.86,0.14 4.53,0.14 1.71,0 4.53,-0.14 4.56,-0.14 v 1.95 h -2.32 z"
           inkscape:connector-curvature="0"
           style="fill:#000000;stroke-width:0" /><path
           id="path4201"
           d="m 553.7,440.23 0,0 0,0.01 0,0 0,0.01 0,0.02 0,0.01 0,0.02 0,0.02 -0.01,0.02 0,0.02 -0.01,0.02 0,0.02 -0.01,0.02 -0.01,0.03 -0.01,0.02 -0.01,0.03 -0.02,0.02 -0.01,0.03 -0.02,0.02 -0.02,0.02 -0.02,0.03 -0.02,0.01 -0.01,0.01 -0.01,0.01 -0.02,0.01 -0.01,0.01 -0.02,0.01 -0.01,0.01 -0.02,0.01 -0.01,0.01 -0.02,0.01 -0.02,0 -0.02,0.01 -0.02,0.01 -0.02,0 -0.02,0.01 -0.03,0.01 -0.02,0 -0.02,0 -0.03,0.01 -0.03,0 -0.02,0 -0.03,0.01 -0.03,0 -0.03,0 c -0.75,0 -5.48,-0.46 -6.33,-0.55 -0.4,-0.05 -0.7,-0.3 -0.7,-0.95 0,-0.6 0.45,-0.6 1.2,-0.6 2.39,0 2.49,-0.34 2.49,-0.84 l -0.14,-1 -3,-11.81 c -0.89,1.84 -2.35,3.18 -4.58,3.18 l 0.05,-1.09 c 3.23,0 3.93,-4.08 3.93,-4.37 0,-0.32 -0.09,-0.61 -0.14,-0.86 l -2.5,-9.77 c -0.25,-0.89 -0.25,-0.98 -1,-1.84 -2.18,-2.74 -4.23,-3.53 -5.62,-3.53 -2.49,0 -3.19,2.73 -3.19,4.68 0,2.49 1.59,8.61 2.74,10.91 1.54,2.94 3.79,4.78 5.78,4.78 l -0.05,1.09 c -5.83,0 -12,-7.31 -12,-14.59 0,-4.69 2.73,-7.97 6.62,-7.97 0.99,0 3.49,0.21 6.47,3.74 0.41,-2.1 2.14,-3.74 4.53,-3.74 1.76,0 2.9,1.14 3.69,2.74 0.85,1.79 1.5,4.84 1.5,4.93 0,0.5 -0.45,0.5 -0.59,0.5 -0.5,0 -0.55,-0.2 -0.7,-0.9 -0.85,-3.24 -1.75,-6.17 -3.79,-6.17 -1.34,0 -1.5,1.29 -1.5,2.29 0,1.19 0.1,1.55 0.3,2.39 z"
           inkscape:connector-curvature="0"
           style="fill:#000000;stroke-width:0" /><path
           id="path4203"
           d="m 565.59,420.92 0,0.04 0,0.04 0,0.05 0,0.04 0,0.03 0,0.04 0,0.04 0,0.03 0,0.04 0,0.03 -0.01,0.03 0,0.03 0,0.03 0,0.03 -0.01,0.03 0,0.02 -0.01,0.03 0,0.02 -0.01,0.03 0,0.02 -0.01,0.04 -0.02,0.04 -0.01,0.03 -0.02,0.03 -0.03,0.03 -0.02,0.03 -0.03,0.02 -0.03,0.02 -0.03,0.02 -0.04,0.01 -0.04,0.01 -0.04,0.02 -0.03,0 -0.02,0 -0.03,0.01 -0.02,0 -0.03,0.01 -0.03,0 -0.03,0 -0.03,0 -0.03,0 -0.04,0.01 -0.03,0 -0.04,0 -0.03,0 -0.04,0 -0.04,0 -0.04,0 -0.04,0 -0.04,0 -0.05,0 -0.04,0 c -2.24,-2.2 -5.39,-2.23 -6.83,-2.23 v -1.25 c 0.84,0 3.14,0 5.05,0.97 v -17.77 c 0,-1.16 0,-1.61 -3.49,-1.61 h -1.31 v -1.25 c 0.62,0.03 4.91,0.14 6.2,0.14 1.08,0 5.47,-0.11 6.24,-0.14 v 1.25 h -1.33 c -3.49,0 -3.49,0.45 -3.49,1.61 z"
           inkscape:connector-curvature="0"
           style="fill:#000000;stroke-width:0" /></g>    </g>
    <path
       sodipodi:nodetypes="cc"
       inkscape:connector-curvature="0"
       id="path3182-0-6-6-05-9"
       d="m 454.49688,688.48045 -13.90334,26.83777"
       style="fill:none;stroke:#000000;stroke-width:0.7933104;stroke-linecap:butt;stroke-linejoin:miter;stroke-miterlimit:4;stroke-opacity:1;stroke-dasharray:none;marker-end:url(#Arrow1Lend)" />
    <path
       sodipodi:nodetypes="cc"
       inkscape:connector-curvature="0"
       id="path3182-0-6-6-05-2-7"
       d="M 481.87476,703.14296 468.34582,729.2626"
       style="fill:none;stroke:#000000;stroke-width:0.78260994;stroke-linecap:butt;stroke-linejoin:miter;stroke-miterlimit:4;stroke-opacity:1;stroke-dasharray:none;marker-end:url(#Arrow1Lend)" />
    <path
       sodipodi:nodetypes="cc"
       inkscape:connector-curvature="0"
       id="path3182-0-6-6-05-3-4"
       d="m 467.84771,695.67003 -13.92343,26.87634"
       style="fill:none;stroke:#000000;stroke-width:0.79388082;stroke-linecap:butt;stroke-linejoin:miter;stroke-miterlimit:4;stroke-opacity:1;stroke-dasharray:none;marker-end:url(#Arrow1Lend)" />
    <path
       sodipodi:nodetypes="cc"
       inkscape:connector-curvature="0"
       id="path3182-0-6-6-05-4-3"
       d="m 495.90182,710.61591 -13.52895,26.11964"
       style="fill:none;stroke:#000000;stroke-width:0.78260994;stroke-linecap:butt;stroke-linejoin:miter;stroke-miterlimit:4;stroke-opacity:1;stroke-dasharray:none;marker-end:url(#Arrow1Lend)" />
    <path
       sodipodi:nodetypes="cc"
       inkscape:connector-curvature="0"
       id="path3182-0-6-6-05-8-56"
       d="m 507.93607,716.88969 -13.52894,26.11964"
       style="fill:none;stroke:#000000;stroke-width:0.78260994;stroke-linecap:butt;stroke-linejoin:miter;stroke-miterlimit:4;stroke-opacity:1;stroke-dasharray:none;marker-end:url(#Arrow1Lend)" />
    <path
       inkscape:connector-curvature="0"
       id="path4534-5-7-1"
       d="m 439.02599,714.31878 c 56.82047,29.62212 57.37213,29.90972 57.37213,29.90972"
       style="fill:#999999;stroke:#000000;stroke-width:2;stroke-linecap:butt;stroke-linejoin:miter;stroke-miterlimit:4;stroke-opacity:1;stroke-dasharray:none" />
    <path
       sodipodi:nodetypes="cc"
       inkscape:connector-curvature="0"
       id="path3182-0-6-6-05-9-3"
       d="m 527.2561,715.6042 14.47738,26.53252"
       style="fill:none;stroke:#000000;stroke-width:0.7933104;stroke-linecap:butt;stroke-linejoin:miter;stroke-miterlimit:4;stroke-opacity:1;stroke-dasharray:none;marker-end:url(#Arrow1Lend)" />
    <path
       sodipodi:nodetypes="cc"
       inkscape:connector-curvature="0"
       id="path3182-0-6-6-05-2-7-1"
       d="m 554.72003,701.10349 14.0913,25.8206"
       style="fill:none;stroke:#000000;stroke-width:0.78260994;stroke-linecap:butt;stroke-linejoin:miter;stroke-miterlimit:4;stroke-opacity:1;stroke-dasharray:none;marker-end:url(#Arrow1Lend)" />
    <path
       sodipodi:nodetypes="cc"
       inkscape:connector-curvature="0"
       id="path3182-0-6-6-05-3-4-5"
       d="m 540.68157,708.55495 14.4981,26.57074"
       style="fill:none;stroke:#000000;stroke-width:0.79388082;stroke-linecap:butt;stroke-linejoin:miter;stroke-miterlimit:4;stroke-opacity:1;stroke-dasharray:none;marker-end:url(#Arrow1Lend)" />
    <path
       sodipodi:nodetypes="cc"
       inkscape:connector-curvature="0"
       id="path3182-0-6-6-05-4-3-2"
       d="m 568.75851,693.65204 14.0913,25.82058"
       style="fill:none;stroke:#000000;stroke-width:0.78260994;stroke-linecap:butt;stroke-linejoin:miter;stroke-miterlimit:4;stroke-opacity:1;stroke-dasharray:none;marker-end:url(#Arrow1Lend)" />
    <path
       sodipodi:nodetypes="cc"
       inkscape:connector-curvature="0"
       id="path3182-0-6-6-05-8-56-6"
       d="m 580.68858,687.18232 14.09129,25.82059"
       style="fill:none;stroke:#000000;stroke-width:0.78260994;stroke-linecap:butt;stroke-linejoin:miter;stroke-miterlimit:4;stroke-opacity:1;stroke-dasharray:none;marker-end:url(#Arrow1Lend)" />
    <path
       inkscape:connector-curvature="0"
       id="path4534-5-7-1-9"
       d="m 540.02841,742.87755 c 56.32858,-30.54712 56.87545,-30.8437 56.87545,-30.8437"
       style="fill:#999999;stroke:#000000;stroke-width:2;stroke-linecap:butt;stroke-linejoin:miter;stroke-miterlimit:4;stroke-opacity:1;stroke-dasharray:none" />
    <path
       transform="translate(0,308.2677)"
       inkscape:connector-curvature="0"
       id="path4455"
       d="m 513.57143,254.09448 c 1.19047,0.71429 2.38095,1.42857 3.57143,2.14286"
       style="fill:none;stroke:#000000;stroke-width:1px;stroke-linecap:butt;stroke-linejoin:miter;stroke-opacity:1" />
    <g
       id="g3197"
       transform="translate(240.71429,230)">
      <g
         word-spacing="normal"
         letter-spacing="normal"
         font-size-adjust="none"
         font-stretch="normal"
         font-weight="normal"
         font-variant="normal"
         font-style="normal"
         stroke-miterlimit="10.433"
         xml:space="preserve"
         transform="matrix(1.0629921,0,0,-1.0629921,-186.02362,789.27165)"
         id="g3199"
         style="font-style:normal;font-variant:normal;font-weight:normal;font-stretch:normal;letter-spacing:normal;word-spacing:normal;text-anchor:start;fill:none;stroke:#000000;stroke-linecap:butt;stroke-linejoin:miter;stroke-miterlimit:10.43299961;stroke-opacity:1;stroke-dasharray:none;stroke-dashoffset:0"><path
           id="path3201"
           d="m 469.68,437.34 -0.01,0.09 0,0.09 -0.01,0.1 -0.02,0.08 -0.01,0.09 -0.03,0.09 -0.02,0.08 -0.03,0.08 -0.03,0.08 -0.04,0.08 -0.04,0.08 -0.05,0.07 -0.04,0.07 -0.06,0.07 -0.05,0.06 -0.06,0.06 -0.06,0.06 -0.06,0.06 -0.07,0.05 -0.07,0.05 -0.08,0.05 -0.07,0.04 -0.09,0.04 -0.08,0.04 -0.08,0.03 -0.09,0.03 -0.1,0.02 -0.09,0.02 -0.1,0.02 -0.1,0.01 -0.1,0 -0.11,0.01 c -1.36,0 -2.7,-1.3 -2.7,-2.64 0,-0.96 0.7,-1.8 1.91,-1.8 1.14,0 2.64,1.14 2.64,2.64 z"
           inkscape:connector-curvature="0"
           style="fill:#000000;stroke-width:0" /><path
           id="path3203"
           d="m 465.88,418.61 0.05,0.13 0.05,0.12 0.05,0.12 0.05,0.11 0.04,0.1 0.04,0.1 0.03,0.09 0.04,0.09 0.03,0.09 0.04,0.08 0.03,0.08 0.02,0.08 0.03,0.07 0.03,0.07 0.05,0.15 0.05,0.14 0.05,0.14 0.03,0.07 0.03,0.08 0.03,0.08 0.02,0.08 0.04,0.08 0.03,0.09 0.03,0.1 0.04,0.09 0.03,0.11 0.04,0.11 0.05,0.11 0.04,0.13 c 0.41,1 0.66,1.68 0.66,2.64 0,2.23 -1.59,4.07 -4.09,4.07 -4.68,0 -6.58,-7.21 -6.58,-7.67 0,-0.5 0.5,-0.5 0.61,-0.5 0.5,0 0.54,0.11 0.79,0.91 1.35,4.69 3.33,6.17 5.03,6.17 0.4,0 1.25,0 1.25,-1.59 0,-1.05 -0.35,-2.1 -0.56,-2.6 -0.39,-1.29 -2.64,-7.06 -3.44,-9.22 -0.48,-1.28 -1.14,-2.93 -1.14,-3.98 0,-2.33 1.69,-4.08 4.1,-4.08 4.67,0 6.51,7.22 6.51,7.67 0,0.5 -0.43,0.5 -0.59,0.5 -0.5,0 -0.5,-0.15 -0.75,-0.9 -0.89,-3.13 -2.53,-6.17 -5.08,-6.17 -0.84,0 -1.2,0.5 -1.2,1.64 0,1.25 0.31,1.95 1.45,4.98 z"
           inkscape:connector-curvature="0"
           style="fill:#000000;stroke-width:0" /></g>    </g>
  </g>
</svg>
