<?xml version="1.0" encoding="UTF-8" standalone="no"?>
<!-- Created with Inkscape (http://www.inkscape.org/) -->

<svg
   xmlns:dc="http://purl.org/dc/elements/1.1/"
   xmlns:cc="http://creativecommons.org/ns#"
   xmlns:rdf="http://www.w3.org/1999/02/22-rdf-syntax-ns#"
   xmlns:svg="http://www.w3.org/2000/svg"
   xmlns="http://www.w3.org/2000/svg"
   xmlns:sodipodi="http://sodipodi.sourceforge.net/DTD/sodipodi-0.dtd"
   xmlns:inkscape="http://www.inkscape.org/namespaces/inkscape"
   width="1052.3622"
   height="744.09448"
   id="svg3607"
   version="1.1"
   inkscape:version="0.48.2 r9819"
   sodipodi:docname="curvatureDetail3.svg">
  <sodipodi:namedview
     id="base"
     pagecolor="#ffffff"
     bordercolor="#666666"
     borderopacity="1.0"
     inkscape:pageopacity="0.0"
     inkscape:pageshadow="2"
     inkscape:zoom="1.3066778"
     inkscape:cx="530.38802"
     inkscape:cy="344.58707"
     inkscape:document-units="px"
     inkscape:current-layer="layer1"
     showgrid="false"
     inkscape:window-width="872"
     inkscape:window-height="565"
     inkscape:window-x="767"
     inkscape:window-y="26"
     inkscape:window-maximized="0" />
  <defs
     id="defs3609">
    <marker
       style="overflow:visible"
       id="Arrow1Lend"
       refX="0"
       refY="0"
       orient="auto"
       inkscape:stockid="Arrow1Lend">
      <path
         transform="matrix(-0.8,0,0,-0.8,-10,0)"
         style="fill-rule:evenodd;stroke:#000000;stroke-width:1pt;marker-start:none"
         d="M 0,0 5,-5 -12.5,0 5,5 0,0 z"
         id="path3958"
         inkscape:connector-curvature="0" />
    </marker>
    <marker
       style="overflow:visible"
       id="marker3627"
       refX="0"
       refY="0"
       orient="auto"
       inkscape:stockid="Arrow1Lend">
      <path
         transform="matrix(-0.8,0,0,-0.8,-10,0)"
         style="fill-rule:evenodd;stroke:#000000;stroke-width:1pt;marker-start:none"
         d="M 0,0 5,-5 -12.5,0 5,5 0,0 z"
         id="path3629"
         inkscape:connector-curvature="0" />
    </marker>
    <marker
       style="overflow:visible"
       id="marker3631"
       refX="0"
       refY="0"
       orient="auto"
       inkscape:stockid="Arrow1Lend">
      <path
         transform="matrix(-0.8,0,0,-0.8,-10,0)"
         style="fill-rule:evenodd;stroke:#000000;stroke-width:1pt;marker-start:none"
         d="M 0,0 5,-5 -12.5,0 5,5 0,0 z"
         id="path3633"
         inkscape:connector-curvature="0" />
    </marker>
    <marker
       style="overflow:visible"
       id="marker3635"
       refX="0"
       refY="0"
       orient="auto"
       inkscape:stockid="Arrow1Lend">
      <path
         transform="matrix(-0.8,0,0,-0.8,-10,0)"
         style="fill-rule:evenodd;stroke:#000000;stroke-width:1pt;marker-start:none"
         d="M 0,0 5,-5 -12.5,0 5,5 0,0 z"
         id="path3637"
         inkscape:connector-curvature="0" />
    </marker>
    <marker
       style="overflow:visible"
       id="marker3639"
       refX="0"
       refY="0"
       orient="auto"
       inkscape:stockid="Arrow1Lend">
      <path
         transform="matrix(-0.8,0,0,-0.8,-10,0)"
         style="fill-rule:evenodd;stroke:#000000;stroke-width:1pt;marker-start:none"
         d="M 0,0 5,-5 -12.5,0 5,5 0,0 z"
         id="path3641"
         inkscape:connector-curvature="0" />
    </marker>
    <marker
       style="overflow:visible"
       id="marker3643"
       refX="0"
       refY="0"
       orient="auto"
       inkscape:stockid="Arrow1Lend">
      <path
         transform="matrix(-0.8,0,0,-0.8,-10,0)"
         style="fill-rule:evenodd;stroke:#000000;stroke-width:1pt;marker-start:none"
         d="M 0,0 5,-5 -12.5,0 5,5 0,0 z"
         id="path3645"
         inkscape:connector-curvature="0" />
    </marker>
    <marker
       style="overflow:visible"
       id="marker3647"
       refX="0"
       refY="0"
       orient="auto"
       inkscape:stockid="Arrow1Lend">
      <path
         transform="matrix(-0.8,0,0,-0.8,-10,0)"
         style="fill-rule:evenodd;stroke:#000000;stroke-width:1pt;marker-start:none"
         d="M 0,0 5,-5 -12.5,0 5,5 0,0 z"
         id="path3649"
         inkscape:connector-curvature="0" />
    </marker>
    <marker
       style="overflow:visible"
       id="marker3651"
       refX="0"
       refY="0"
       orient="auto"
       inkscape:stockid="Arrow1Lend">
      <path
         transform="matrix(-0.8,0,0,-0.8,-10,0)"
         style="fill-rule:evenodd;stroke:#000000;stroke-width:1pt;marker-start:none"
         d="M 0,0 5,-5 -12.5,0 5,5 0,0 z"
         id="path3653"
         inkscape:connector-curvature="0" />
    </marker>
    <marker
       style="overflow:visible"
       id="marker3655"
       refX="0"
       refY="0"
       orient="auto"
       inkscape:stockid="Arrow1Lend">
      <path
         transform="matrix(-0.8,0,0,-0.8,-10,0)"
         style="fill-rule:evenodd;stroke:#000000;stroke-width:1pt;marker-start:none"
         d="M 0,0 5,-5 -12.5,0 5,5 0,0 z"
         id="path3657"
         inkscape:connector-curvature="0" />
    </marker>
    <inkscape:path-effect
       is_visible="true"
       id="path-effect11301-6-2"
       effect="spiro" />
    <marker
       style="overflow:visible"
       id="marker3660"
       refX="0"
       refY="0"
       orient="auto"
       inkscape:stockid="Arrow1Lend">
      <path
         transform="matrix(-0.8,0,0,-0.8,-10,0)"
         style="fill-rule:evenodd;stroke:#000000;stroke-width:1pt;marker-start:none"
         d="M 0,0 5,-5 -12.5,0 5,5 0,0 z"
         id="path3662"
         inkscape:connector-curvature="0" />
    </marker>
    <marker
       style="overflow:visible"
       id="marker3664"
       refX="0"
       refY="0"
       orient="auto"
       inkscape:stockid="Arrow1Lend">
      <path
         transform="matrix(-0.8,0,0,-0.8,-10,0)"
         style="fill-rule:evenodd;stroke:#000000;stroke-width:1pt;marker-start:none"
         d="M 0,0 5,-5 -12.5,0 5,5 0,0 z"
         id="path3666"
         inkscape:connector-curvature="0" />
    </marker>
  </defs>
  <metadata
     id="metadata3612">
    <rdf:RDF>
      <cc:Work
         rdf:about="">
        <dc:format>image/svg+xml</dc:format>
        <dc:type
           rdf:resource="http://purl.org/dc/dcmitype/StillImage" />
        <dc:title />
      </cc:Work>
    </rdf:RDF>
  </metadata>
  <g
     transform="translate(0,-308.2677)"
     id="layer1"
     inkscape:groupmode="layer"
     inkscape:label="Layer 1">
    <path
       sodipodi:nodetypes="cc"
       inkscape:connector-curvature="0"
       id="path3182-0-6-6-05-49-8-5"
       d="m 628.35387,658.85121 0.078,38.61568"
       style="fill:none;stroke:#000000;stroke-width:0.89668584;stroke-linecap:butt;stroke-linejoin:miter;stroke-miterlimit:4;stroke-opacity:1;stroke-dasharray:none;marker-end:url(#Arrow1Lend)" />
    <path
       sodipodi:nodetypes="cc"
       inkscape:connector-curvature="0"
       id="path3182-0-6-6-05"
       d="m 481.85236,657.6515 0.078,39.67886"
       style="fill:none;stroke:#000000;stroke-width:0.90894604;stroke-linecap:butt;stroke-linejoin:miter;stroke-miterlimit:4;stroke-opacity:1;stroke-dasharray:none;marker-end:url(#Arrow1Lend)" />
    <path
       sodipodi:nodetypes="cccc"
       inkscape:connector-curvature="0"
       inkscape:original-d="M 415.24787,778.82291 550.34484,533.12746 706.75214,778.42891 z"
       inkscape:path-effect="#path-effect11301-6-2"
       id="path11299-9-2"
       d="m 415.24787,778.82291 135.09697,-245.69545 156.4073,245.30145 -291.50427,0.394"
       style="fill:none;stroke:#000000;stroke-width:3.92328668;stroke-linecap:butt;stroke-linejoin:miter;stroke-miterlimit:4;stroke-opacity:1;stroke-dasharray:none" />
    <path
       transform="matrix(1.1767767,0,0,1.1767767,373.02299,291.69216)"
       d="m 160.61425,204.67302 c 0,5.57892 -4.52261,10.10152 -10.10152,10.10152 -5.57892,0 -10.10153,-4.5226 -10.10153,-10.10152 0,-5.57892 4.52261,-10.10153 10.10153,-10.10153 5.57891,0 10.10152,4.52261 10.10152,10.10153 z"
       sodipodi:ry="10.101525"
       sodipodi:rx="10.101525"
       sodipodi:cy="204.67302"
       sodipodi:cx="150.51273"
       id="path3787-8-8-5-0-6-6-2"
       style="fill:#000000;stroke-width:3.29999995;stroke-miterlimit:4;stroke-dasharray:none;stroke-dashoffset:0"
       sodipodi:type="arc" />
    <path
       transform="matrix(1.1767767,0,0,1.1767767,241.02299,535.97788)"
       d="m 160.61425,204.67302 c 0,5.57892 -4.52261,10.10152 -10.10152,10.10152 -5.57892,0 -10.10153,-4.5226 -10.10153,-10.10152 0,-5.57892 4.52261,-10.10153 10.10153,-10.10153 5.57891,0 10.10152,4.52261 10.10152,10.10153 z"
       sodipodi:ry="10.101525"
       sodipodi:rx="10.101525"
       sodipodi:cy="204.67302"
       sodipodi:cx="150.51273"
       id="path3787-8-8-5-0-6-6-2-5"
       style="fill:#000000;stroke-width:3.29999995;stroke-miterlimit:4;stroke-dasharray:none;stroke-dashoffset:0"
       sodipodi:type="arc" />
    <path
       transform="matrix(1.1767767,0,0,1.1767767,526.73727,534.54931)"
       d="m 160.61425,204.67302 c 0,5.57892 -4.52261,10.10152 -10.10152,10.10152 -5.57892,0 -10.10153,-4.5226 -10.10153,-10.10152 0,-5.57892 4.52261,-10.10153 10.10153,-10.10153 5.57891,0 10.10152,4.52261 10.10152,10.10153 z"
       sodipodi:ry="10.101525"
       sodipodi:rx="10.101525"
       sodipodi:cy="204.67302"
       sodipodi:cx="150.51273"
       id="path3787-8-8-5-0-6-6-2-5-8"
       style="fill:#000000;stroke-width:3.29999995;stroke-miterlimit:4;stroke-dasharray:none;stroke-dashoffset:0"
       sodipodi:type="arc" />
    <path
       inkscape:connector-curvature="0"
       id="path4534-5"
       d="m 480.64286,658.32458 c 147.14286,0 148.57143,0 148.57143,0"
       style="fill:#999999;stroke:#000000;stroke-width:1.66899097;stroke-linecap:butt;stroke-linejoin:miter;stroke-miterlimit:4;stroke-opacity:1;stroke-dasharray:none" />
    <path
       transform="matrix(3.2566763,0,0,3.2566763,-621.02748,150.16311)"
       d="m 386.07142,158.73735 -5,-0.71429 0.71428,-5 5,0.71429 z"
       inkscape:randomized="0"
       inkscape:rounded="0"
       inkscape:flatsided="true"
       sodipodi:arg2="1.7126934"
       sodipodi:arg1="0.92729522"
       sodipodi:r2="2.5253813"
       sodipodi:r1="3.5714285"
       sodipodi:cy="155.8802"
       sodipodi:cx="383.92856"
       sodipodi:sides="4"
       id="path10494-1-1-9-1-9"
       style="color:#000000;fill:#ffffff;stroke:#000000;stroke-width:1.0454545;stroke-linecap:butt;stroke-linejoin:miter;stroke-miterlimit:4;stroke-opacity:1;stroke-dasharray:none;stroke-dashoffset:0;marker:none;visibility:visible;display:inline;overflow:visible;enable-background:accumulate"
       sodipodi:type="star" />
    <path
       sodipodi:nodetypes="cc"
       inkscape:connector-curvature="0"
       id="path3182-0-6-6-05-2"
       d="m 512.90745,658.10509 0.078,38.61567"
       style="fill:none;stroke:#000000;stroke-width:0.89668584;stroke-linecap:butt;stroke-linejoin:miter;stroke-miterlimit:4;stroke-opacity:1;stroke-dasharray:none;marker-end:url(#Arrow1Lend)" />
    <path
       sodipodi:nodetypes="cc"
       inkscape:connector-curvature="0"
       id="path3182-0-6-6-05-3"
       d="m 497.0146,657.91856 0.078,39.73593"
       style="fill:none;stroke:#000000;stroke-width:0.9095996;stroke-linecap:butt;stroke-linejoin:miter;stroke-miterlimit:4;stroke-opacity:1;stroke-dasharray:none;marker-end:url(#Arrow1Lend)" />
    <path
       sodipodi:nodetypes="cc"
       inkscape:connector-curvature="0"
       id="path3182-0-6-6-05-4"
       d="m 528.80031,658.29162 0.078,38.61568"
       style="fill:none;stroke:#000000;stroke-width:0.89668584;stroke-linecap:butt;stroke-linejoin:miter;stroke-miterlimit:4;stroke-opacity:1;stroke-dasharray:none;marker-end:url(#Arrow1Lend)" />
    <path
       sodipodi:nodetypes="cc"
       inkscape:connector-curvature="0"
       id="path3182-0-6-6-05-8"
       d="m 542.37174,658.29161 0.078,38.61568"
       style="fill:none;stroke:#000000;stroke-width:0.89668584;stroke-linecap:butt;stroke-linejoin:miter;stroke-miterlimit:4;stroke-opacity:1;stroke-dasharray:none;marker-end:url(#Arrow1Lend)" />
    <path
       sodipodi:nodetypes="cc"
       inkscape:connector-curvature="0"
       id="path3182-0-6-6-05-49"
       d="m 557.0146,658.47816 0.078,38.61567"
       style="fill:none;stroke:#000000;stroke-width:0.89668584;stroke-linecap:butt;stroke-linejoin:miter;stroke-miterlimit:4;stroke-opacity:1;stroke-dasharray:none;marker-end:url(#Arrow1Lend)" />
    <path
       sodipodi:nodetypes="cc"
       inkscape:connector-curvature="0"
       id="path3182-0-6-6-05-2-3"
       d="m 570.31817,658.66468 0.078,38.61568"
       style="fill:none;stroke:#000000;stroke-width:0.89668584;stroke-linecap:butt;stroke-linejoin:miter;stroke-miterlimit:4;stroke-opacity:1;stroke-dasharray:none;marker-end:url(#Arrow1Lend)" />
    <path
       sodipodi:nodetypes="cc"
       inkscape:connector-curvature="0"
       id="path3182-0-6-6-05-4-5"
       d="m 585.05031,658.72686 0.078,38.61568"
       style="fill:none;stroke:#000000;stroke-width:0.89668584;stroke-linecap:butt;stroke-linejoin:miter;stroke-miterlimit:4;stroke-opacity:1;stroke-dasharray:none;marker-end:url(#Arrow1Lend)" />
    <path
       sodipodi:nodetypes="cc"
       inkscape:connector-curvature="0"
       id="path3182-0-6-6-05-8-4"
       d="m 599.42531,658.85121 0.078,38.61567"
       style="fill:none;stroke:#000000;stroke-width:0.89668584;stroke-linecap:butt;stroke-linejoin:miter;stroke-miterlimit:4;stroke-opacity:1;stroke-dasharray:none;marker-end:url(#Arrow1Lend)" />
    <path
       sodipodi:nodetypes="cc"
       inkscape:connector-curvature="0"
       id="path3182-0-6-6-05-49-8"
       d="m 614.42531,658.91339 0.078,38.61568"
       style="fill:none;stroke:#000000;stroke-width:0.89668584;stroke-linecap:butt;stroke-linejoin:miter;stroke-miterlimit:4;stroke-opacity:1;stroke-dasharray:none;marker-end:url(#Arrow1Lend)" />
    <path
       inkscape:connector-curvature="0"
       id="path4534-5-7"
       d="m 480.64286,698.11787 c 147.14286,0 148.57143,0 148.57143,0"
       style="fill:#999999;stroke:#000000;stroke-width:2;stroke-linecap:butt;stroke-linejoin:miter;stroke-miterlimit:4;stroke-opacity:1;stroke-dasharray:none" />
    <path
       transform="matrix(3.2566763,0,0,3.2566763,-767.89878,147.93503)"
       d="m 386.07142,158.73735 -5,-0.71429 0.71428,-5 5,0.71429 z"
       inkscape:randomized="0"
       inkscape:rounded="0"
       inkscape:flatsided="true"
       sodipodi:arg2="1.7126934"
       sodipodi:arg1="0.92729522"
       sodipodi:r2="2.5253813"
       sodipodi:r1="3.5714285"
       sodipodi:cy="155.8802"
       sodipodi:cx="383.92856"
       sodipodi:sides="4"
       id="path10494-1-1-9-1-9-1"
       style="color:#000000;fill:#ffffff;stroke:#000000;stroke-width:1.0454545;stroke-linecap:butt;stroke-linejoin:miter;stroke-miterlimit:4;stroke-opacity:1;stroke-dasharray:none;stroke-dashoffset:0;marker:none;visibility:visible;display:inline;overflow:visible;enable-background:accumulate"
       sodipodi:type="star" />
    <text
       sodipodi:linespacing="125%"
       id="text11359-0-6-5-3-2"
       y="725.99738"
       x="537.17865"
       style="font-size:25.65920639px;font-style:normal;font-weight:normal;line-height:125%;letter-spacing:0px;word-spacing:0px;fill:#000000;fill-opacity:1;stroke:none;font-family:Sans"
       xml:space="preserve"><tspan
         style="font-style:normal;font-variant:normal;font-weight:normal;font-stretch:normal;font-family:TeXGyreBonum;-inkscape-font-specification:TeXGyreBonum"
         y="725.99738"
         x="537.17865"
         id="tspan11361-3-6-10-8-8"
         sodipodi:role="line">t<tspan
   id="tspan3116"
   style="font-size:65.00091553%;font-weight:bold;baseline-shift:sub;-inkscape-font-specification:TeXGyreBonum Bold">n</tspan>d</tspan></text>
    <g
       id="g3197"
       transform="translate(277.21317,200.87295)">
      <g
         word-spacing="normal"
         letter-spacing="normal"
         font-size-adjust="none"
         font-stretch="normal"
         font-weight="normal"
         font-variant="normal"
         font-style="normal"
         stroke-miterlimit="10.433"
         xml:space="preserve"
         transform="matrix(1.0629921,0,0,-1.0629921,-186.02362,789.27165)"
         id="g3199"
         style="font-style:normal;font-variant:normal;font-weight:normal;font-stretch:normal;letter-spacing:normal;word-spacing:normal;text-anchor:start;fill:none;stroke:#000000;stroke-linecap:butt;stroke-linejoin:miter;stroke-miterlimit:10.43299961;stroke-opacity:1;stroke-dasharray:none;stroke-dashoffset:0"><path
           id="path3201"
           d="m 469.68,437.34 -0.01,0.09 0,0.09 -0.01,0.1 -0.02,0.08 -0.01,0.09 -0.03,0.09 -0.02,0.08 -0.03,0.08 -0.03,0.08 -0.04,0.08 -0.04,0.08 -0.05,0.07 -0.04,0.07 -0.06,0.07 -0.05,0.06 -0.06,0.06 -0.06,0.06 -0.06,0.06 -0.07,0.05 -0.07,0.05 -0.08,0.05 -0.07,0.04 -0.09,0.04 -0.08,0.04 -0.08,0.03 -0.09,0.03 -0.1,0.02 -0.09,0.02 -0.1,0.02 -0.1,0.01 -0.1,0 -0.11,0.01 c -1.36,0 -2.7,-1.3 -2.7,-2.64 0,-0.96 0.7,-1.8 1.91,-1.8 1.14,0 2.64,1.14 2.64,2.64 z"
           inkscape:connector-curvature="0"
           style="fill:#000000;stroke-width:0" /><path
           id="path3203"
           d="m 465.88,418.61 0.05,0.13 0.05,0.12 0.05,0.12 0.05,0.11 0.04,0.1 0.04,0.1 0.03,0.09 0.04,0.09 0.03,0.09 0.04,0.08 0.03,0.08 0.02,0.08 0.03,0.07 0.03,0.07 0.05,0.15 0.05,0.14 0.05,0.14 0.03,0.07 0.03,0.08 0.03,0.08 0.02,0.08 0.04,0.08 0.03,0.09 0.03,0.1 0.04,0.09 0.03,0.11 0.04,0.11 0.05,0.11 0.04,0.13 c 0.41,1 0.66,1.68 0.66,2.64 0,2.23 -1.59,4.07 -4.09,4.07 -4.68,0 -6.58,-7.21 -6.58,-7.67 0,-0.5 0.5,-0.5 0.61,-0.5 0.5,0 0.54,0.11 0.79,0.91 1.35,4.69 3.33,6.17 5.03,6.17 0.4,0 1.25,0 1.25,-1.59 0,-1.05 -0.35,-2.1 -0.56,-2.6 -0.39,-1.29 -2.64,-7.06 -3.44,-9.22 -0.48,-1.28 -1.14,-2.93 -1.14,-3.98 0,-2.33 1.69,-4.08 4.1,-4.08 4.67,0 6.51,7.22 6.51,7.67 0,0.5 -0.43,0.5 -0.59,0.5 -0.5,0 -0.5,-0.15 -0.75,-0.9 -0.89,-3.13 -2.53,-6.17 -5.08,-6.17 -0.84,0 -1.2,0.5 -1.2,1.64 0,1.25 0.31,1.95 1.45,4.98 z"
           inkscape:connector-curvature="0"
           style="fill:#000000;stroke-width:0" /></g>    </g>
  </g>
</svg>
