<?xml version="1.0" encoding="UTF-8" standalone="no"?>
<!-- Created with Inkscape (http://www.inkscape.org/) -->

<svg
   xmlns:dc="http://purl.org/dc/elements/1.1/"
   xmlns:cc="http://creativecommons.org/ns#"
   xmlns:rdf="http://www.w3.org/1999/02/22-rdf-syntax-ns#"
   xmlns:svg="http://www.w3.org/2000/svg"
   xmlns="http://www.w3.org/2000/svg"
   xmlns:sodipodi="http://sodipodi.sourceforge.net/DTD/sodipodi-0.dtd"
   xmlns:inkscape="http://www.inkscape.org/namespaces/inkscape"
   width="1052.3622"
   height="744.09448"
   id="svg3407"
   version="1.1"
   inkscape:version="0.48.2 r9819"
   sodipodi:docname="curvatureDetail2.svg">
  <defs
     id="defs3409">
    <marker
       inkscape:stockid="Arrow1Lend"
       orient="auto"
       refY="0"
       refX="0"
       id="Arrow1Lend"
       style="overflow:visible">
      <path
         inkscape:connector-curvature="0"
         id="path3958"
         d="M 0,0 5,-5 -12.5,0 5,5 0,0 z"
         style="fill-rule:evenodd;stroke:#000000;stroke-width:1pt;marker-start:none"
         transform="matrix(-0.8,0,0,-0.8,-10,0)" />
    </marker>
    <marker
       inkscape:stockid="Arrow1Lend"
       orient="auto"
       refY="0"
       refX="0"
       id="marker3427"
       style="overflow:visible">
      <path
         inkscape:connector-curvature="0"
         id="path3429"
         d="M 0,0 5,-5 -12.5,0 5,5 0,0 z"
         style="fill-rule:evenodd;stroke:#000000;stroke-width:1pt;marker-start:none"
         transform="matrix(-0.8,0,0,-0.8,-10,0)" />
    </marker>
    <marker
       inkscape:stockid="Arrow1Lend"
       orient="auto"
       refY="0"
       refX="0"
       id="marker3431"
       style="overflow:visible">
      <path
         inkscape:connector-curvature="0"
         id="path3433"
         d="M 0,0 5,-5 -12.5,0 5,5 0,0 z"
         style="fill-rule:evenodd;stroke:#000000;stroke-width:1pt;marker-start:none"
         transform="matrix(-0.8,0,0,-0.8,-10,0)" />
    </marker>
    <inkscape:path-effect
       effect="spiro"
       id="path-effect11301-6"
       is_visible="true" />
    <marker
       style="overflow:visible"
       id="Arrow1Lend-0"
       refX="0"
       refY="0"
       orient="auto"
       inkscape:stockid="Arrow1Lend">
      <path
         transform="matrix(-0.8,0,0,-0.8,-10,0)"
         style="fill-rule:evenodd;stroke:#000000;stroke-width:1pt;marker-start:none"
         d="M 0,0 5,-5 -12.5,0 5,5 0,0 z"
         id="path3958-6"
         inkscape:connector-curvature="0" />
    </marker>
    <marker
       style="overflow:visible"
       id="marker3029"
       refX="0"
       refY="0"
       orient="auto"
       inkscape:stockid="Arrow1Lend">
      <path
         transform="matrix(-0.8,0,0,-0.8,-10,0)"
         style="fill-rule:evenodd;stroke:#000000;stroke-width:1pt;marker-start:none"
         d="M 0,0 5,-5 -12.5,0 5,5 0,0 z"
         id="path3031"
         inkscape:connector-curvature="0" />
    </marker>
  </defs>
  <sodipodi:namedview
     id="base"
     pagecolor="#ffffff"
     bordercolor="#666666"
     borderopacity="1.0"
     inkscape:pageopacity="0.0"
     inkscape:pageshadow="2"
     inkscape:zoom="1.4"
     inkscape:cx="555.86493"
     inkscape:cy="379.89688"
     inkscape:document-units="px"
     inkscape:current-layer="layer1"
     showgrid="false"
     inkscape:window-width="804"
     inkscape:window-height="624"
     inkscape:window-x="825"
     inkscape:window-y="212"
     inkscape:window-maximized="0" />
  <metadata
     id="metadata3412">
    <rdf:RDF>
      <cc:Work
         rdf:about="">
        <dc:format>image/svg+xml</dc:format>
        <dc:type
           rdf:resource="http://purl.org/dc/dcmitype/StillImage" />
        <dc:title />
      </cc:Work>
    </rdf:RDF>
  </metadata>
  <g
     inkscape:label="Layer 1"
     inkscape:groupmode="layer"
     id="layer1"
     transform="translate(0,-308.2677)">
    <path
       style="fill:none;stroke:#000000;stroke-width:3.92328668;stroke-linecap:butt;stroke-linejoin:miter;stroke-miterlimit:4;stroke-opacity:1;stroke-dasharray:none"
       d="m 377.24787,785.24135 135.09698,-245.69545 156.40728,245.30145 -291.50426,0.394"
       id="path11299-9"
       inkscape:path-effect="#path-effect11301-6"
       inkscape:original-d="M 377.24787,785.24135 512.34485,539.5459 668.75213,784.84735 z"
       inkscape:connector-curvature="0"
       sodipodi:nodetypes="cccc" />
    <path
       sodipodi:type="arc"
       style="fill:#000000;stroke-width:3.29999995;stroke-miterlimit:4;stroke-dasharray:none;stroke-dashoffset:0"
       id="path3787-8-8-5-0-6"
       sodipodi:cx="150.51273"
       sodipodi:cy="204.67302"
       sodipodi:rx="10.101525"
       sodipodi:ry="10.101525"
       d="m 160.61425,204.67302 c 0,5.57892 -4.52261,10.10152 -10.10152,10.10152 -5.57892,0 -10.10153,-4.5226 -10.10153,-10.10152 0,-5.57892 4.52261,-10.10153 10.10153,-10.10153 5.57891,0 10.10152,4.52261 10.10152,10.10153 z"
       transform="matrix(1.1767767,0,0,1.1767767,201.59442,542.39632)" />
    <path
       sodipodi:type="arc"
       style="fill:#000000;stroke-width:3.29999995;stroke-miterlimit:4;stroke-dasharray:none;stroke-dashoffset:0"
       id="path3787-8-8-5-0-6-4"
       sodipodi:cx="150.51273"
       sodipodi:cy="204.67302"
       sodipodi:rx="10.101525"
       sodipodi:ry="10.101525"
       d="m 160.61425,204.67302 c 0,5.57892 -4.52261,10.10152 -10.10152,10.10152 -5.57892,0 -10.10153,-4.5226 -10.10153,-10.10152 0,-5.57892 4.52261,-10.10153 10.10153,-10.10153 5.57891,0 10.10152,4.52261 10.10152,10.10153 z"
       transform="matrix(1.1767767,0,0,1.1767767,490.16585,540.96775)" />
    <path
       sodipodi:type="arc"
       style="fill:#000000;stroke-width:3.29999995;stroke-miterlimit:4;stroke-dasharray:none;stroke-dashoffset:0"
       id="path3787-8-8-5-0-6-6"
       sodipodi:cx="150.51273"
       sodipodi:cy="204.67302"
       sodipodi:rx="10.101525"
       sodipodi:ry="10.101525"
       d="m 160.61425,204.67302 c 0,5.57892 -4.52261,10.10152 -10.10152,10.10152 -5.57892,0 -10.10153,-4.5226 -10.10153,-10.10152 0,-5.57892 4.52261,-10.10153 10.10153,-10.10153 5.57891,0 10.10152,4.52261 10.10152,10.10153 z"
       transform="matrix(1.1767767,0,0,1.1767767,334.45156,298.11062)" />
    <path
       style="fill:#999999;stroke:#000000;stroke-width:2;stroke-linecap:butt;stroke-linejoin:miter;stroke-miterlimit:4;stroke-opacity:1;stroke-dasharray:none"
       d="m 444.42857,664.67934 c 147.14286,0 148.57143,0 148.57143,0"
       id="path4534"
       inkscape:connector-curvature="0" />
    <path
       sodipodi:type="star"
       style="color:#000000;fill:#ffffff;stroke:#000000;stroke-width:1.0454545;stroke-linecap:butt;stroke-linejoin:miter;stroke-miterlimit:4;stroke-opacity:1;stroke-dasharray:none;stroke-dashoffset:0;marker:none;visibility:visible;display:inline;overflow:visible;enable-background:accumulate"
       id="path10494-1-1-9-1"
       sodipodi:sides="4"
       sodipodi:cx="383.92856"
       sodipodi:cy="155.8802"
       sodipodi:r1="3.5714285"
       sodipodi:r2="2.5253813"
       sodipodi:arg1="0.92729522"
       sodipodi:arg2="1.7126934"
       inkscape:flatsided="true"
       inkscape:rounded="0"
       inkscape:randomized="0"
       d="m 386.07142,158.73735 -5,-0.71429 0.71428,-5 5,0.71429 z"
       transform="matrix(3.2566763,0,0,3.2566763,-658.58105,156.13511)" />
    <path
       sodipodi:type="star"
       style="color:#000000;fill:#ffffff;stroke:#000000;stroke-width:1.0454545;stroke-linecap:butt;stroke-linejoin:miter;stroke-miterlimit:4;stroke-opacity:1;stroke-dasharray:none;stroke-dashoffset:0;marker:none;visibility:visible;display:inline;overflow:visible;enable-background:accumulate"
       id="path10494-1-1-9"
       sodipodi:sides="4"
       sodipodi:cx="383.92856"
       sodipodi:cy="155.8802"
       sodipodi:r1="3.5714285"
       sodipodi:r2="2.5253813"
       sodipodi:arg1="0.92729522"
       sodipodi:arg2="1.7126934"
       inkscape:flatsided="true"
       inkscape:rounded="0"
       inkscape:randomized="0"
       d="m 386.07142,158.73735 -5,-0.71429 0.71428,-5 5,0.71429 z"
       transform="matrix(3.2566763,0,0,3.2566763,-805.90245,157.02797)" />
    <path
       style="fill:none;stroke:#000000;stroke-width:1.15071797;stroke-linecap:butt;stroke-linejoin:miter;stroke-miterlimit:4;stroke-opacity:1;stroke-dasharray:none;marker-end:url(#Arrow1Lend)"
       d="m 516.65841,665.47768 0.82024,64.03884"
       id="path3182-0-6-6"
       inkscape:connector-curvature="0"
       sodipodi:nodetypes="cc" />
    <text
       xml:space="preserve"
       style="font-size:25.65920639px;font-style:normal;font-weight:normal;line-height:125%;letter-spacing:0px;word-spacing:0px;fill:#000000;fill-opacity:1;stroke:none;font-family:Sans"
       x="505.94449"
       y="657.53052"
       id="text11359-0-6-5-5-3"
       sodipodi:linespacing="125%"><tspan
         sodipodi:role="line"
         id="tspan11361-3-6-10-2-1"
         x="505.94449"
         y="657.53052"
         style="font-style:normal;font-variant:normal;font-weight:normal;font-stretch:normal;font-family:TeXGyreBonum;-inkscape-font-specification:TeXGyreBonum">d</tspan></text>
    <text
       xml:space="preserve"
       style="font-size:25.65920639px;font-style:normal;font-weight:normal;line-height:125%;letter-spacing:0px;word-spacing:0px;fill:#000000;fill-opacity:1;stroke:none;font-family:Sans"
       x="490.13019"
       y="722.48492"
       id="text11359-0-6-5-3"
       sodipodi:linespacing="125%"><tspan
         sodipodi:role="line"
         id="tspan11361-3-6-10-8"
         x="490.13019"
         y="722.48492"
         style="font-style:normal;font-variant:normal;font-weight:normal;font-stretch:normal;font-family:TeXGyreBonum;-inkscape-font-specification:TeXGyreBonum">t<tspan
   style="font-size:65.00091553%;font-weight:bold;baseline-shift:sub;-inkscape-font-specification:TeXGyreBonum Bold"
   id="tspan3720">n</tspan></tspan></text>
    <path
       sodipodi:nodetypes="cc"
       inkscape:connector-curvature="0"
       id="path3182"
       d="m 513.04474,561.8072 -42.4206,78.40357"
       style="fill:none;stroke:#000000;stroke-width:1.17386389;stroke-linecap:butt;stroke-linejoin:miter;stroke-miterlimit:4;stroke-opacity:1;stroke-dasharray:none;marker-end:url(#Arrow1Lend)" />
    <path
       sodipodi:nodetypes="cc"
       inkscape:connector-curvature="0"
       id="path3182-0"
       d="m 513.51116,562.46826 46.17909,77.95475"
       style="fill:none;stroke:#000000;stroke-width:1.25625968;stroke-linecap:butt;stroke-linejoin:miter;stroke-miterlimit:4;stroke-opacity:1;stroke-dasharray:none;marker-end:url(#Arrow1Lend)" />
    <text
       sodipodi:linespacing="125%"
       id="text11359-0-6-0-02-3"
       y="623.27008"
       x="489.22894"
       style="font-size:25.60538864px;font-style:normal;font-weight:normal;line-height:125%;letter-spacing:0px;word-spacing:0px;fill:#000000;fill-opacity:1;stroke:none;font-family:Sans"
       xml:space="preserve"
       transform="scale(1.0021018,0.9979026)"><tspan
         style="font-style:normal;font-variant:normal;font-weight:bold;font-stretch:normal;font-family:TeXGyreBonum;-inkscape-font-specification:TeXGyreBonum Bold"
         y="623.27008"
         x="489.22894"
         id="tspan11361-3-6-1-3-6"
         sodipodi:role="line">t<tspan
   id="tspan5361"
   style="font-size:16.64373589px;baseline-shift:sub">1</tspan></tspan></text>
    <text
       sodipodi:linespacing="125%"
       id="text11359-0-6-0-02-3-0"
       y="623.26215"
       x="519.10168"
       style="font-size:25.60538864px;font-style:normal;font-weight:normal;line-height:125%;letter-spacing:0px;word-spacing:0px;fill:#000000;fill-opacity:1;stroke:none;font-family:Sans"
       xml:space="preserve"
       transform="scale(1.0021018,0.9979026)"><tspan
         style="font-style:normal;font-variant:normal;font-weight:bold;font-stretch:normal;font-family:TeXGyreBonum;-inkscape-font-specification:TeXGyreBonum Bold"
         y="623.26215"
         x="519.10168"
         id="tspan11361-3-6-1-3-6-3"
         sodipodi:role="line">t<tspan
   id="tspan5387"
   style="font-size:16.64373589px;baseline-shift:sub">2</tspan></tspan></text>
    <path
       sodipodi:type="star"
       style="color:#000000;fill:#ffffff;stroke:#000000;stroke-width:0.37093034;stroke-linecap:butt;stroke-linejoin:miter;stroke-miterlimit:4;stroke-opacity:1;stroke-dasharray:none;stroke-dashoffset:0;marker:none;visibility:visible;display:inline;overflow:visible;enable-background:accumulate"
       id="path10494-1-1-9-4"
       sodipodi:sides="4"
       sodipodi:cx="383.92856"
       sodipodi:cy="155.8802"
       sodipodi:r1="3.590385"
       sodipodi:r2="2.5253813"
       sodipodi:arg1="0.78862471"
       sodipodi:arg2="1.5740229"
       inkscape:flatsided="true"
       inkscape:rounded="0"
       inkscape:randomized="0"
       d="m 386.45914,158.42717 -5.07755,-0.0164 0.0164,-5.07754 5.07754,0.0164 z"
       transform="matrix(3.2566763,0,0,3.2566763,-725.32455,165.65107)" />
    <rect
       style="fill:#999999;fill-opacity:1;fill-rule:nonzero;stroke:#000000;stroke-width:1.20799994;stroke-linejoin:miter;stroke-miterlimit:4;stroke-opacity:1;stroke-dasharray:none;stroke-dashoffset:0"
       id="rect3900"
       width="1.5152289"
       height="1.3889598"
       x="524.26917"
       y="364.15085"
       transform="translate(0,308.2677)"
       ry="0.69447988" />
    <g
       id="g3197"
       transform="translate(243.28958,210.66451)">
      <g
         word-spacing="normal"
         letter-spacing="normal"
         font-size-adjust="none"
         font-stretch="normal"
         font-weight="normal"
         font-variant="normal"
         font-style="normal"
         stroke-miterlimit="10.433"
         xml:space="preserve"
         transform="matrix(1.0629921,0,0,-1.0629921,-186.02362,789.27165)"
         id="g3199"
         style="font-style:normal;font-variant:normal;font-weight:normal;font-stretch:normal;letter-spacing:normal;word-spacing:normal;text-anchor:start;fill:none;stroke:#000000;stroke-linecap:butt;stroke-linejoin:miter;stroke-miterlimit:10.43299961;stroke-opacity:1;stroke-dasharray:none;stroke-dashoffset:0"><path
           id="path3201"
           d="m 469.68,437.34 -0.01,0.09 0,0.09 -0.01,0.1 -0.02,0.08 -0.01,0.09 -0.03,0.09 -0.02,0.08 -0.03,0.08 -0.03,0.08 -0.04,0.08 -0.04,0.08 -0.05,0.07 -0.04,0.07 -0.06,0.07 -0.05,0.06 -0.06,0.06 -0.06,0.06 -0.06,0.06 -0.07,0.05 -0.07,0.05 -0.08,0.05 -0.07,0.04 -0.09,0.04 -0.08,0.04 -0.08,0.03 -0.09,0.03 -0.1,0.02 -0.09,0.02 -0.1,0.02 -0.1,0.01 -0.1,0 -0.11,0.01 c -1.36,0 -2.7,-1.3 -2.7,-2.64 0,-0.96 0.7,-1.8 1.91,-1.8 1.14,0 2.64,1.14 2.64,2.64 z"
           inkscape:connector-curvature="0"
           style="fill:#000000;stroke-width:0" /><path
           id="path3203"
           d="m 465.88,418.61 0.05,0.13 0.05,0.12 0.05,0.12 0.05,0.11 0.04,0.1 0.04,0.1 0.03,0.09 0.04,0.09 0.03,0.09 0.04,0.08 0.03,0.08 0.02,0.08 0.03,0.07 0.03,0.07 0.05,0.15 0.05,0.14 0.05,0.14 0.03,0.07 0.03,0.08 0.03,0.08 0.02,0.08 0.04,0.08 0.03,0.09 0.03,0.1 0.04,0.09 0.03,0.11 0.04,0.11 0.05,0.11 0.04,0.13 c 0.41,1 0.66,1.68 0.66,2.64 0,2.23 -1.59,4.07 -4.09,4.07 -4.68,0 -6.58,-7.21 -6.58,-7.67 0,-0.5 0.5,-0.5 0.61,-0.5 0.5,0 0.54,0.11 0.79,0.91 1.35,4.69 3.33,6.17 5.03,6.17 0.4,0 1.25,0 1.25,-1.59 0,-1.05 -0.35,-2.1 -0.56,-2.6 -0.39,-1.29 -2.64,-7.06 -3.44,-9.22 -0.48,-1.28 -1.14,-2.93 -1.14,-3.98 0,-2.33 1.69,-4.08 4.1,-4.08 4.67,0 6.51,7.22 6.51,7.67 0,0.5 -0.43,0.5 -0.59,0.5 -0.5,0 -0.5,-0.15 -0.75,-0.9 -0.89,-3.13 -2.53,-6.17 -5.08,-6.17 -0.84,0 -1.2,0.5 -1.2,1.64 0,1.25 0.31,1.95 1.45,4.98 z"
           inkscape:connector-curvature="0"
           style="fill:#000000;stroke-width:0" /></g>    </g>
  </g>
</svg>
