<?xml version="1.0" encoding="UTF-8" standalone="no"?>
<!-- Created with Inkscape (http://www.inkscape.org/) -->

<svg
   xmlns:dc="http://purl.org/dc/elements/1.1/"
   xmlns:cc="http://creativecommons.org/ns#"
   xmlns:rdf="http://www.w3.org/1999/02/22-rdf-syntax-ns#"
   xmlns:svg="http://www.w3.org/2000/svg"
   xmlns="http://www.w3.org/2000/svg"
   xmlns:sodipodi="http://sodipodi.sourceforge.net/DTD/sodipodi-0.dtd"
   xmlns:inkscape="http://www.inkscape.org/namespaces/inkscape"
   width="1052.3622"
   height="744.09448"
   id="svg12499"
   version="1.1"
   inkscape:version="0.48.1 r9760"
   sodipodi:docname="curvature3.svg">
  <defs
     id="defs12501">
    <inkscape:path-effect
       effect="spiro"
       id="path-effect12596"
       is_visible="true" />
    <marker
       inkscape:stockid="TriangleInM"
       orient="auto"
       refY="0"
       refX="0"
       id="TriangleInM"
       style="overflow:visible">
      <path
         inkscape:connector-curvature="0"
         id="path4094"
         d="m 5.77,0 -8.65,5 0,-10 8.65,5 z"
         style="fill-rule:evenodd;stroke:#000000;stroke-width:1pt;marker-start:none"
         transform="scale(-0.4,-0.4)" />
    </marker>
    <marker
       inkscape:stockid="Arrow2Lend"
       orient="auto"
       refY="0"
       refX="0"
       id="Arrow2Lend"
       style="overflow:visible">
      <path
         inkscape:connector-curvature="0"
         id="path3978"
         style="font-size:12px;fill-rule:evenodd;stroke-width:0.625;stroke-linejoin:round"
         d="M 8.7185878,4.0337352 -2.2072895,0.01601326 8.7185884,-4.0017078 c -1.7454984,2.3720609 -1.7354408,5.6174519 -6e-7,8.035443 z"
         transform="matrix(-1.1,0,0,-1.1,-1.1,0)" />
    </marker>
    <marker
       inkscape:stockid="Arrow2Lend"
       orient="auto"
       refY="0"
       refX="0"
       id="marker12458"
       style="overflow:visible">
      <path
         inkscape:connector-curvature="0"
         id="path12460"
         style="font-size:12px;fill-rule:evenodd;stroke-width:0.625;stroke-linejoin:round"
         d="M 8.7185878,4.0337352 -2.2072895,0.01601326 8.7185884,-4.0017078 c -1.7454984,2.3720609 -1.7354408,5.6174519 -6e-7,8.035443 z"
         transform="matrix(-1.1,0,0,-1.1,-1.1,0)" />
    </marker>
    <inkscape:path-effect
       effect="spiro"
       id="path-effect11307"
       is_visible="true" />
    <marker
       inkscape:stockid="Arrow2Lend"
       orient="auto"
       refY="0"
       refX="0"
       id="marker12463"
       style="overflow:visible">
      <path
         inkscape:connector-curvature="0"
         id="path12465"
         style="font-size:12px;fill-rule:evenodd;stroke-width:0.625;stroke-linejoin:round"
         d="M 8.7185878,4.0337352 -2.2072895,0.01601326 8.7185884,-4.0017078 c -1.7454984,2.3720609 -1.7354408,5.6174519 -6e-7,8.035443 z"
         transform="matrix(-1.1,0,0,-1.1,-1.1,0)" />
    </marker>
    <inkscape:path-effect
       effect="spiro"
       id="path-effect11301"
       is_visible="true" />
    <inkscape:path-effect
       effect="spiro"
       id="path-effect11297"
       is_visible="true" />
    <marker
       inkscape:stockid="Arrow2Lend"
       orient="auto"
       refY="0"
       refX="0"
       id="Arrow2Lend-7"
       style="overflow:visible">
      <path
         inkscape:connector-curvature="0"
         id="path3978-1"
         style="font-size:12px;fill-rule:evenodd;stroke-width:0.625;stroke-linejoin:round"
         d="M 8.7185878,4.0337352 -2.2072895,0.01601326 8.7185884,-4.0017078 c -1.7454984,2.3720609 -1.7354408,5.6174519 -6e-7,8.035443 z"
         transform="matrix(-1.1,0,0,-1.1,-1.1,0)" />
    </marker>
    <marker
       inkscape:stockid="Arrow2Lend"
       orient="auto"
       refY="0"
       refX="0"
       id="Arrow2Lend-4"
       style="overflow:visible">
      <path
         inkscape:connector-curvature="0"
         id="path3978-4"
         style="font-size:12px;fill-rule:evenodd;stroke-width:0.625;stroke-linejoin:round"
         d="M 8.7185878,4.0337352 -2.2072895,0.01601326 8.7185884,-4.0017078 c -1.7454984,2.3720609 -1.7354408,5.6174519 -6e-7,8.035443 z"
         transform="matrix(-1.1,0,0,-1.1,-1.1,0)" />
    </marker>
    <marker
       inkscape:stockid="Arrow2Lend"
       orient="auto"
       refY="0"
       refX="0"
       id="Arrow2Lend-74"
       style="overflow:visible">
      <path
         inkscape:connector-curvature="0"
         id="path3978-5"
         style="font-size:12px;fill-rule:evenodd;stroke-width:0.625;stroke-linejoin:round"
         d="M 8.7185878,4.0337352 -2.2072895,0.01601326 8.7185884,-4.0017078 c -1.7454984,2.3720609 -1.7354408,5.6174519 -6e-7,8.035443 z"
         transform="matrix(-1.1,0,0,-1.1,-1.1,0)" />
    </marker>
    <marker
       inkscape:stockid="Arrow2Lend"
       orient="auto"
       refY="0"
       refX="0"
       id="Arrow2Lend-3"
       style="overflow:visible">
      <path
         inkscape:connector-curvature="0"
         id="path3978-2"
         style="font-size:12px;fill-rule:evenodd;stroke-width:0.625;stroke-linejoin:round"
         d="M 8.7185878,4.0337352 -2.2072895,0.01601326 8.7185884,-4.0017078 c -1.7454984,2.3720609 -1.7354408,5.6174519 -6e-7,8.035443 z"
         transform="matrix(-1.1,0,0,-1.1,-1.1,0)" />
    </marker>
    <marker
       inkscape:stockid="Arrow2Lend"
       orient="auto"
       refY="0"
       refX="0"
       id="Arrow2Lend-5"
       style="overflow:visible">
      <path
         inkscape:connector-curvature="0"
         id="path3978-6"
         style="font-size:12px;fill-rule:evenodd;stroke-width:0.625;stroke-linejoin:round"
         d="M 8.7185878,4.0337352 -2.2072895,0.01601326 8.7185884,-4.0017078 c -1.7454984,2.3720609 -1.7354408,5.6174519 -6e-7,8.035443 z"
         transform="matrix(-1.1,0,0,-1.1,-1.1,0)" />
    </marker>
    <marker
       inkscape:stockid="Arrow2Lend"
       orient="auto"
       refY="0"
       refX="0"
       id="Arrow2Lend-1"
       style="overflow:visible">
      <path
         inkscape:connector-curvature="0"
         id="path3978-3"
         style="font-size:12px;fill-rule:evenodd;stroke-width:0.625;stroke-linejoin:round"
         d="M 8.7185878,4.0337352 -2.2072895,0.01601326 8.7185884,-4.0017078 c -1.7454984,2.3720609 -1.7354408,5.6174519 -6e-7,8.035443 z"
         transform="matrix(-1.1,0,0,-1.1,-1.1,0)" />
    </marker>
    <marker
       inkscape:stockid="Arrow2Lend"
       orient="auto"
       refY="0"
       refX="0"
       id="Arrow2Lend-6"
       style="overflow:visible">
      <path
         inkscape:connector-curvature="0"
         id="path3978-12"
         style="font-size:12px;fill-rule:evenodd;stroke-width:0.625;stroke-linejoin:round"
         d="M 8.7185878,4.0337352 -2.2072895,0.01601326 8.7185884,-4.0017078 c -1.7454984,2.3720609 -1.7354408,5.6174519 -6e-7,8.035443 z"
         transform="matrix(-1.1,0,0,-1.1,-1.1,0)" />
    </marker>
    <marker
       inkscape:stockid="Arrow2Lend"
       orient="auto"
       refY="0"
       refX="0"
       id="Arrow2Lend-68"
       style="overflow:visible">
      <path
         inkscape:connector-curvature="0"
         id="path3978-50"
         style="font-size:12px;fill-rule:evenodd;stroke-width:0.625;stroke-linejoin:round"
         d="M 8.7185878,4.0337352 -2.2072895,0.01601326 8.7185884,-4.0017078 c -1.7454984,2.3720609 -1.7354408,5.6174519 -6e-7,8.035443 z"
         transform="matrix(-1.1,0,0,-1.1,-1.1,0)" />
    </marker>
    <marker
       inkscape:stockid="Arrow2Lend"
       orient="auto"
       refY="0"
       refX="0"
       id="Arrow2Lend-34"
       style="overflow:visible">
      <path
         inkscape:connector-curvature="0"
         id="path3978-67"
         style="font-size:12px;fill-rule:evenodd;stroke-width:0.625;stroke-linejoin:round"
         d="M 8.7185878,4.0337352 -2.2072895,0.01601326 8.7185884,-4.0017078 c -1.7454984,2.3720609 -1.7354408,5.6174519 -6e-7,8.035443 z"
         transform="matrix(-1.1,0,0,-1.1,-1.1,0)" />
    </marker>
    <marker
       inkscape:stockid="Arrow2Lend"
       orient="auto"
       refY="0"
       refX="0"
       id="Arrow2Lend-75"
       style="overflow:visible">
      <path
         inkscape:connector-curvature="0"
         id="path3978-42"
         style="font-size:12px;fill-rule:evenodd;stroke-width:0.625;stroke-linejoin:round"
         d="M 8.7185878,4.0337352 -2.2072895,0.01601326 8.7185884,-4.0017078 c -1.7454984,2.3720609 -1.7354408,5.6174519 -6e-7,8.035443 z"
         transform="matrix(-1.1,0,0,-1.1,-1.1,0)" />
    </marker>
    <marker
       inkscape:stockid="Arrow2Lend"
       orient="auto"
       refY="0"
       refX="0"
       id="Arrow2Lend-11"
       style="overflow:visible">
      <path
         inkscape:connector-curvature="0"
         id="path3978-0"
         style="font-size:12px;fill-rule:evenodd;stroke-width:0.625;stroke-linejoin:round"
         d="M 8.7185878,4.0337352 -2.2072895,0.01601326 8.7185884,-4.0017078 c -1.7454984,2.3720609 -1.7354408,5.6174519 -6e-7,8.035443 z"
         transform="matrix(-1.1,0,0,-1.1,-1.1,0)" />
    </marker>
    <marker
       inkscape:stockid="Arrow2Lend"
       orient="auto"
       refY="0"
       refX="0"
       id="Arrow2Lend-37"
       style="overflow:visible">
      <path
         inkscape:connector-curvature="0"
         id="path3978-57"
         style="font-size:12px;fill-rule:evenodd;stroke-width:0.625;stroke-linejoin:round"
         d="M 8.7185878,4.0337352 -2.2072895,0.01601326 8.7185884,-4.0017078 c -1.7454984,2.3720609 -1.7354408,5.6174519 -6e-7,8.035443 z"
         transform="matrix(-1.1,0,0,-1.1,-1.1,0)" />
    </marker>
    <marker
       inkscape:stockid="Arrow2Lend"
       orient="auto"
       refY="0"
       refX="0"
       id="Arrow2Lend-9"
       style="overflow:visible">
      <path
         inkscape:connector-curvature="0"
         id="path3978-7"
         style="font-size:12px;fill-rule:evenodd;stroke-width:0.625;stroke-linejoin:round"
         d="M 8.7185878,4.0337352 -2.2072895,0.01601326 8.7185884,-4.0017078 c -1.7454984,2.3720609 -1.7354408,5.6174519 -6e-7,8.035443 z"
         transform="matrix(-1.1,0,0,-1.1,-1.1,0)" />
    </marker>
    <marker
       inkscape:stockid="Arrow2Lend"
       orient="auto"
       refY="0"
       refX="0"
       id="Arrow2Lend-61"
       style="overflow:visible">
      <path
         inkscape:connector-curvature="0"
         id="path3978-06"
         style="font-size:12px;fill-rule:evenodd;stroke-width:0.625;stroke-linejoin:round"
         d="M 8.7185878,4.0337352 -2.2072895,0.01601326 8.7185884,-4.0017078 c -1.7454984,2.3720609 -1.7354408,5.6174519 -6e-7,8.035443 z"
         transform="matrix(-1.1,0,0,-1.1,-1.1,0)" />
    </marker>
    <marker
       inkscape:stockid="Arrow2Lend"
       orient="auto"
       refY="0"
       refX="0"
       id="Arrow2Lend-71"
       style="overflow:visible">
      <path
         inkscape:connector-curvature="0"
         id="path3978-55"
         style="font-size:12px;fill-rule:evenodd;stroke-width:0.625;stroke-linejoin:round"
         d="M 8.7185878,4.0337352 -2.2072895,0.01601326 8.7185884,-4.0017078 c -1.7454984,2.3720609 -1.7354408,5.6174519 -6e-7,8.035443 z"
         transform="matrix(-1.1,0,0,-1.1,-1.1,0)" />
    </marker>
    <marker
       inkscape:stockid="Arrow2Lend"
       orient="auto"
       refY="0"
       refX="0"
       id="Arrow2Lend-32"
       style="overflow:visible">
      <path
         inkscape:connector-curvature="0"
         id="path3978-01"
         style="font-size:12px;fill-rule:evenodd;stroke-width:0.625;stroke-linejoin:round"
         d="M 8.7185878,4.0337352 -2.2072895,0.01601326 8.7185884,-4.0017078 c -1.7454984,2.3720609 -1.7354408,5.6174519 -6e-7,8.035443 z"
         transform="matrix(-1.1,0,0,-1.1,-1.1,0)" />
    </marker>
    <marker
       inkscape:stockid="Arrow2Lend"
       orient="auto"
       refY="0"
       refX="0"
       id="Arrow2Lend-92"
       style="overflow:visible">
      <path
         inkscape:connector-curvature="0"
         id="path3978-34"
         style="font-size:12px;fill-rule:evenodd;stroke-width:0.625;stroke-linejoin:round"
         d="M 8.7185878,4.0337352 -2.2072895,0.01601326 8.7185884,-4.0017078 c -1.7454984,2.3720609 -1.7354408,5.6174519 -6e-7,8.035443 z"
         transform="matrix(-1.1,0,0,-1.1,-1.1,0)" />
    </marker>
    <marker
       inkscape:stockid="Arrow2Lend"
       orient="auto"
       refY="0"
       refX="0"
       id="Arrow2Lend-14"
       style="overflow:visible">
      <path
         inkscape:connector-curvature="0"
         id="path3978-49"
         style="font-size:12px;fill-rule:evenodd;stroke-width:0.625;stroke-linejoin:round"
         d="M 8.7185878,4.0337352 -2.2072895,0.01601326 8.7185884,-4.0017078 c -1.7454984,2.3720609 -1.7354408,5.6174519 -6e-7,8.035443 z"
         transform="matrix(-1.1,0,0,-1.1,-1.1,0)" />
    </marker>
    <marker
       inkscape:stockid="Arrow2Lend"
       orient="auto"
       refY="0"
       refX="0"
       id="Arrow2Lend-2"
       style="overflow:visible">
      <path
         inkscape:connector-curvature="0"
         id="path3978-9"
         style="font-size:12px;fill-rule:evenodd;stroke-width:0.625;stroke-linejoin:round"
         d="M 8.7185878,4.0337352 -2.2072895,0.01601326 8.7185884,-4.0017078 c -1.7454984,2.3720609 -1.7354408,5.6174519 -6e-7,8.035443 z"
         transform="matrix(-1.1,0,0,-1.1,-1.1,0)" />
    </marker>
    <marker
       inkscape:stockid="Arrow2Lend"
       orient="auto"
       refY="0"
       refX="0"
       id="Arrow2Lend-19"
       style="overflow:visible">
      <path
         inkscape:connector-curvature="0"
         id="path3978-37"
         style="font-size:12px;fill-rule:evenodd;stroke-width:0.625;stroke-linejoin:round"
         d="M 8.7185878,4.0337352 -2.2072895,0.01601326 8.7185884,-4.0017078 c -1.7454984,2.3720609 -1.7354408,5.6174519 -6e-7,8.035443 z"
         transform="matrix(-1.1,0,0,-1.1,-1.1,0)" />
    </marker>
    <marker
       inkscape:stockid="Arrow2Lend"
       orient="auto"
       refY="0"
       refX="0"
       id="Arrow2Lend-23"
       style="overflow:visible">
      <path
         inkscape:connector-curvature="0"
         id="path3978-71"
         style="font-size:12px;fill-rule:evenodd;stroke-width:0.625;stroke-linejoin:round"
         d="M 8.7185878,4.0337352 -2.2072895,0.01601326 8.7185884,-4.0017078 c -1.7454984,2.3720609 -1.7354408,5.6174519 -6e-7,8.035443 z"
         transform="matrix(-1.1,0,0,-1.1,-1.1,0)" />
    </marker>
    <marker
       inkscape:stockid="Arrow2Lend"
       orient="auto"
       refY="0"
       refX="0"
       id="Arrow2Lend-757"
       style="overflow:visible">
      <path
         inkscape:connector-curvature="0"
         id="path3978-22"
         style="font-size:12px;fill-rule:evenodd;stroke-width:0.625;stroke-linejoin:round"
         d="M 8.7185878,4.0337352 -2.2072895,0.01601326 8.7185884,-4.0017078 c -1.7454984,2.3720609 -1.7354408,5.6174519 -6e-7,8.035443 z"
         transform="matrix(-1.1,0,0,-1.1,-1.1,0)" />
    </marker>
    <marker
       inkscape:stockid="TriangleInM"
       orient="auto"
       refY="0"
       refX="0"
       id="TriangleInM-5"
       style="overflow:visible">
      <path
         inkscape:connector-curvature="0"
         id="path4094-9"
         d="m 5.77,0 -8.65,5 0,-10 8.65,5 z"
         style="fill-rule:evenodd;stroke:#000000;stroke-width:1pt;marker-start:none"
         transform="scale(-0.4,-0.4)" />
    </marker>
  </defs>
  <sodipodi:namedview
     id="base"
     pagecolor="#ffffff"
     bordercolor="#666666"
     borderopacity="1.0"
     inkscape:pageopacity="0.0"
     inkscape:pageshadow="2"
     inkscape:zoom="0.7"
     inkscape:cx="408.82021"
     inkscape:cy="355.82664"
     inkscape:document-units="px"
     inkscape:current-layer="layer1"
     showgrid="false"
     inkscape:window-width="956"
     inkscape:window-height="723"
     inkscape:window-x="569"
     inkscape:window-y="116"
     inkscape:window-maximized="0" />
  <metadata
     id="metadata12504">
    <rdf:RDF>
      <cc:Work
         rdf:about="">
        <dc:format>image/svg+xml</dc:format>
        <dc:type
           rdf:resource="http://purl.org/dc/dcmitype/StillImage" />
        <dc:title />
      </cc:Work>
    </rdf:RDF>
  </metadata>
  <g
     inkscape:label="Layer 1"
     inkscape:groupmode="layer"
     id="layer1"
     transform="translate(0,-308.2677)">
    <path
       sodipodi:type="star"
       style="fill:none;stroke:#000000;stroke-width:1px;stroke-linecap:butt;stroke-linejoin:miter;stroke-opacity:1"
       id="path2993"
       sodipodi:sides="5"
       sodipodi:cx="321.22852"
       sodipodi:cy="297.60706"
       sodipodi:r1="286.41342"
       sodipodi:r2="231.71333"
       sodipodi:arg1="0.46049305"
       sodipodi:arg2="1.0888116"
       inkscape:flatsided="true"
       inkscape:rounded="0"
       inkscape:randomized="0"
       d="M 577.80725,424.88627 279.46598,580.95938 38.839109,345.4492 188.4648,43.822807 521.56544,92.917616 z"
       transform="matrix(1.0000395,0,0,0.83914488,223.00728,422.37631)"
       inkscape:transform-center-x="12.905835"
       inkscape:transform-center-y="12.405947" />
    <path
       style="fill:none;stroke:#000000;stroke-width:1px;stroke-linecap:butt;stroke-linejoin:miter;stroke-opacity:1"
       d="m 411.41028,459.08403 157.08039,87.39502 176.09422,-45.95156"
       id="path3011"
       inkscape:connector-curvature="0"
       sodipodi:nodetypes="ccc" />
    <path
       sodipodi:type="arc"
       style="fill:#000000;stroke-width:3.29999995;stroke-miterlimit:4;stroke-dasharray:none;stroke-dashoffset:0"
       id="path3787-8-4"
       sodipodi:cx="150.51273"
       sodipodi:cy="204.67302"
       sodipodi:rx="10.101525"
       sodipodi:ry="10.101525"
       d="m 160.61425,204.67302 c 0,5.57892 -4.52261,10.10152 -10.10152,10.10152 -5.57892,0 -10.10153,-4.5226 -10.10153,-10.10152 0,-5.57892 4.52261,-10.10153 10.10153,-10.10153 5.57891,0 10.10152,4.52261 10.10152,10.10153 z"
       transform="matrix(0.8232233,0,0,0.8232233,619.49625,331.624)" />
    <path
       sodipodi:type="arc"
       style="fill:#000000;stroke-width:3.29999995;stroke-miterlimit:4;stroke-dasharray:none;stroke-dashoffset:0"
       id="path3787-8-7"
       sodipodi:cx="150.51273"
       sodipodi:cy="204.67302"
       sodipodi:rx="10.101525"
       sodipodi:ry="10.101525"
       d="m 160.61425,204.67302 c 0,5.57892 -4.52261,10.10152 -10.10152,10.10152 -5.57892,0 -10.10153,-4.5226 -10.10153,-10.10152 0,-5.57892 4.52261,-10.10153 10.10153,-10.10153 5.57891,0 10.10152,4.52261 10.10152,10.10153 z"
       transform="matrix(0.8232233,0,0,0.8232233,138.54212,541.70365)" />
    <path
       sodipodi:type="arc"
       style="fill:#000000;stroke-width:3.29999995;stroke-miterlimit:4;stroke-dasharray:none;stroke-dashoffset:0"
       id="path3787-8-9"
       sodipodi:cx="150.51273"
       sodipodi:cy="204.67302"
       sodipodi:rx="10.101525"
       sodipodi:ry="10.101525"
       d="m 160.61425,204.67302 c 0,5.57892 -4.52261,10.10152 -10.10152,10.10152 -5.57892,0 -10.10153,-4.5226 -10.10153,-10.10152 0,-5.57892 4.52261,-10.10153 10.10153,-10.10153 5.57891,0 10.10152,4.52261 10.10152,10.10153 z"
       transform="matrix(0.8232233,0,0,0.8232233,288.28958,291.63405)" />
    <path
       style="fill:none;stroke:#000000;stroke-width:1px;stroke-linecap:butt;stroke-linejoin:miter;stroke-opacity:1"
       d="M 262.76786,710.48718 568.48215,547.63004"
       id="path11295"
       inkscape:path-effect="#path-effect11297"
       inkscape:original-d="M 262.76786,710.48718 568.48215,547.63004"
       inkscape:connector-curvature="0" />
    <path
       style="fill:none;stroke:#000000;stroke-width:4;stroke-linecap:butt;stroke-linejoin:miter;stroke-miterlimit:4;stroke-opacity:1;stroke-dasharray:none"
       d="M 503.52548,907.64798 568.43882,546.454 800.72962,777.61735 503.52548,907.64798"
       id="path11299"
       inkscape:path-effect="#path-effect11301"
       inkscape:original-d="M 503.52548,907.64798 568.43882,546.454 800.72962,777.61735 z"
       inkscape:connector-curvature="0"
       sodipodi:nodetypes="cccc" />
    <path
       sodipodi:type="arc"
       style="fill:#000000;stroke-width:3.29999995;stroke-miterlimit:4;stroke-dasharray:none;stroke-dashoffset:0"
       id="path3787-8-8"
       sodipodi:cx="150.51273"
       sodipodi:cy="204.67302"
       sodipodi:rx="10.101525"
       sodipodi:ry="10.101525"
       d="m 160.61425,204.67302 c 0,5.57892 -4.52261,10.10152 -10.10152,10.10152 -5.57892,0 -10.10153,-4.5226 -10.10153,-10.10152 0,-5.57892 4.52261,-10.10153 10.10153,-10.10153 5.57891,0 10.10152,4.52261 10.10152,10.10153 z"
       transform="matrix(0.8232233,0,0,0.8232233,378.37887,738.96426)" />
    <path
       sodipodi:type="arc"
       style="fill:#000000;stroke-width:3.29999995;stroke-miterlimit:4;stroke-dasharray:none;stroke-dashoffset:0"
       id="path3787-8-42"
       sodipodi:cx="150.51273"
       sodipodi:cy="204.67302"
       sodipodi:rx="10.101525"
       sodipodi:ry="10.101525"
       d="m 160.61425,204.67302 c 0,5.57892 -4.52261,10.10152 -10.10152,10.10152 -5.57892,0 -10.10153,-4.5226 -10.10153,-10.10152 0,-5.57892 4.52261,-10.10153 10.10153,-10.10153 5.57891,0 10.10152,4.52261 10.10152,10.10153 z"
       transform="matrix(0.8232233,0,0,0.8232233,676.50386,608.60712)" />
    <text
       xml:space="preserve"
       style="font-size:40px;font-style:normal;font-weight:normal;line-height:125%;letter-spacing:0px;word-spacing:0px;fill:#000000;fill-opacity:1;stroke:none;font-family:Sans"
       x="708.12366"
       y="880.53009"
       id="text11359-0-6"
       sodipodi:linespacing="125%"><tspan
         sodipodi:role="line"
         id="tspan11361-3-6"
         x="708.12366"
         y="880.53009"
         style="font-style:normal;font-variant:normal;font-weight:normal;font-stretch:normal;font-family:TeXGyreBonum;-inkscape-font-specification:TeXGyreBonum">t<tspan
   style="font-size:65.00091553%;font-style:normal;font-variant:normal;font-weight:normal;font-stretch:normal;baseline-shift:sub;font-family:TeXGyreBonum;-inkscape-font-specification:TeXGyreBonum"
   id="tspan11363-5-9">R</tspan></tspan></text>
    <path
       sodipodi:type="arc"
       style="fill:#000000;stroke-width:3.29999995;stroke-miterlimit:4;stroke-dasharray:none;stroke-dashoffset:0"
       id="path3787-8"
       sodipodi:cx="150.51273"
       sodipodi:cy="204.67302"
       sodipodi:rx="10.101525"
       sodipodi:ry="10.101525"
       d="m 160.61425,204.67302 c 0,5.57892 -4.52261,10.10152 -10.10152,10.10152 -5.57892,0 -10.10153,-4.5226 -10.10153,-10.10152 0,-5.57892 4.52261,-10.10153 10.10153,-10.10153 5.57891,0 10.10152,4.52261 10.10152,10.10153 z"
       transform="matrix(0.8232233,0,0,0.8232233,444.31817,378.55368)" />
    <text
       xml:space="preserve"
       style="font-size:40px;font-style:normal;font-weight:normal;line-height:125%;letter-spacing:0px;word-spacing:0px;fill:#000000;fill-opacity:1;stroke:none;font-family:Sans"
       x="757.05243"
       y="879.82715"
       id="text11359-0-6-0"
       sodipodi:linespacing="125%"><tspan
         sodipodi:role="line"
         id="tspan11361-3-6-1"
         x="757.05243"
         y="879.82715"
         style="font-style:normal;font-variant:normal;font-weight:bold;font-stretch:normal;font-family:TeXGyreBonum;-inkscape-font-specification:TeXGyreBonum Bold">n</tspan></text>
    <text
       xml:space="preserve"
       style="font-size:40px;font-style:normal;font-weight:normal;line-height:125%;letter-spacing:0px;word-spacing:0px;fill:#000000;fill-opacity:1;stroke:none;font-family:Sans"
       x="743.67358"
       y="869.65283"
       id="text11359-0-6-0-0"
       sodipodi:linespacing="125%"><tspan
         sodipodi:role="line"
         id="tspan11361-3-6-1-8"
         x="743.67358"
         y="869.65283"
         style="font-style:normal;font-variant:normal;font-weight:normal;font-stretch:normal;font-family:TeXGyreBonum;-inkscape-font-specification:TeXGyreBonum">.</tspan></text>
    <path
       style="fill:none;stroke:#000000;stroke-width:2;stroke-linecap:butt;stroke-linejoin:miter;stroke-opacity:1;stroke-miterlimit:4;stroke-dasharray:none"
       d="m 535.71429,421.23734 93.78182,15.00027 43.36103,-92.85741"
       id="path12594"
       inkscape:path-effect="#path-effect12596"
       inkscape:original-d="m 535.71429,421.23734 93.78182,15.00027 43.36103,-92.85741"
       inkscape:connector-curvature="0"
       transform="translate(0,308.2677)"
       sodipodi:nodetypes="ccc" />
    <path
       style="fill:none;stroke:#000000;stroke-width:1;stroke-linecap:butt;stroke-linejoin:miter;stroke-miterlimit:4;stroke-opacity:1;stroke-dasharray:none;stroke-dashoffset:0;marker-start:none;marker-end:url(#Arrow2Lend)"
       d="m 666.06284,666.33284 26.71877,9.73978"
       id="path3952-5-3"
       inkscape:connector-curvature="0"
       sodipodi:nodetypes="cc"
       inkscape:transform-center-x="2.8171138"
       inkscape:transform-center-y="5.2882073" />
    <path
       style="fill:none;stroke:#000000;stroke-width:1;stroke-linecap:butt;stroke-linejoin:miter;stroke-miterlimit:4;stroke-opacity:1;stroke-dasharray:none;stroke-dashoffset:0;marker-start:none;marker-end:url(#Arrow2Lend)"
       d="m 547.29715,731.05481 -6.63387,28.24923"
       id="path3952-5-3-9-3-1-0-7-7"
       inkscape:connector-curvature="0"
       sodipodi:nodetypes="cc"
       inkscape:transform-center-x="2.6839321"
       inkscape:transform-center-y="8.3462804" />
    <path
       style="fill:none;stroke:#000000;stroke-width:1;stroke-linecap:butt;stroke-linejoin:miter;stroke-miterlimit:4;stroke-opacity:1;stroke-dasharray:none;stroke-dashoffset:0;marker-start:none;marker-end:url(#Arrow2Lend)"
       d="M 562.22787,734.06848 555.594,762.31771"
       id="path3952-5-3-9-3-1-0-7-7-2"
       inkscape:connector-curvature="0"
       sodipodi:nodetypes="cc"
       inkscape:transform-center-x="2.6839321"
       inkscape:transform-center-y="8.3462804" />
    <path
       style="fill:none;stroke:#000000;stroke-width:1;stroke-linecap:butt;stroke-linejoin:miter;stroke-miterlimit:4;stroke-opacity:1;stroke-dasharray:none;stroke-dashoffset:0;marker-start:none;marker-end:url(#Arrow2Lend)"
       d="m 575.7993,736.38991 -6.63387,28.24923"
       id="path3952-5-3-9-3-1-0-7-7-2-6"
       inkscape:connector-curvature="0"
       sodipodi:nodetypes="cc"
       inkscape:transform-center-x="2.6839321"
       inkscape:transform-center-y="8.3462804" />
    <path
       style="fill:none;stroke:#000000;stroke-width:1;stroke-linecap:butt;stroke-linejoin:miter;stroke-miterlimit:4;stroke-opacity:1;stroke-dasharray:none;stroke-dashoffset:0;marker-start:none;marker-end:url(#Arrow2Lend)"
       d="M 589.72787,738.53277 583.094,766.782"
       id="path3952-5-3-9-3-1-0-7-7-2-6-3"
       inkscape:connector-curvature="0"
       sodipodi:nodetypes="cc"
       inkscape:transform-center-x="2.6839321"
       inkscape:transform-center-y="8.3462804" />
    <path
       style="fill:none;stroke:#000000;stroke-width:1;stroke-linecap:butt;stroke-linejoin:miter;stroke-miterlimit:4;stroke-opacity:1;stroke-dasharray:none;stroke-dashoffset:0;marker-start:none;marker-end:url(#Arrow2Lend)"
       d="m 605.08502,740.85419 -6.63387,28.24923"
       id="path3952-5-3-9-3-1-0-7-7-2-6-3-5"
       inkscape:connector-curvature="0"
       sodipodi:nodetypes="cc"
       inkscape:transform-center-x="2.6839321"
       inkscape:transform-center-y="8.3462804" />
    <path
       style="fill:none;stroke:#000000;stroke-width:1;stroke-linecap:butt;stroke-linejoin:miter;stroke-miterlimit:4;stroke-opacity:1;stroke-dasharray:none;stroke-dashoffset:0;marker-start:none;marker-end:url(#Arrow2Lend)"
       d="m 621.15645,743.35419 -6.63387,28.24923"
       id="path3952-5-3-9-3-1-0-7-7-2-6-3-5-0"
       inkscape:connector-curvature="0"
       sodipodi:nodetypes="cc"
       inkscape:transform-center-x="2.6839321"
       inkscape:transform-center-y="8.3462804" />
    <path
       style="fill:none;stroke:#000000;stroke-width:1;stroke-linecap:butt;stroke-linejoin:miter;stroke-miterlimit:4;stroke-opacity:1;stroke-dasharray:none;stroke-dashoffset:0;marker-start:none;marker-end:url(#Arrow2Lend)"
       d="m 661.08517,678.028 26.71877,9.73978"
       id="path3952-5-3-5"
       inkscape:connector-curvature="0"
       sodipodi:nodetypes="cc"
       inkscape:transform-center-x="2.8171138"
       inkscape:transform-center-y="5.2882073" />
    <path
       style="fill:none;stroke:#000000;stroke-width:1;stroke-linecap:butt;stroke-linejoin:miter;stroke-miterlimit:4;stroke-opacity:1;stroke-dasharray:none;stroke-dashoffset:0;marker-start:none;marker-end:url(#Arrow2Lend)"
       d="m 654.47803,691.42086 26.71877,9.73978"
       id="path3952-5-3-2"
       inkscape:connector-curvature="0"
       sodipodi:nodetypes="cc"
       inkscape:transform-center-x="2.8171138"
       inkscape:transform-center-y="5.2882073" />
    <path
       style="fill:none;stroke:#000000;stroke-width:1;stroke-linecap:butt;stroke-linejoin:miter;stroke-miterlimit:4;stroke-opacity:1;stroke-dasharray:none;stroke-dashoffset:0;marker-start:none;marker-end:url(#Arrow2Lend)"
       d="m 647.87089,705.88515 26.71877,9.73978"
       id="path3952-5-3-7"
       inkscape:connector-curvature="0"
       sodipodi:nodetypes="cc"
       inkscape:transform-center-x="2.8171138"
       inkscape:transform-center-y="5.2882073" />
    <path
       style="fill:none;stroke:#000000;stroke-width:1;stroke-linecap:butt;stroke-linejoin:miter;stroke-miterlimit:4;stroke-opacity:1;stroke-dasharray:none;stroke-dashoffset:0;marker-start:none;marker-end:url(#Arrow2Lend)"
       d="m 641.44232,719.99229 26.71877,9.73978"
       id="path3952-5-3-4"
       inkscape:connector-curvature="0"
       sodipodi:nodetypes="cc"
       inkscape:transform-center-x="2.8171138"
       inkscape:transform-center-y="5.2882073" />
    <path
       style="fill:none;stroke:#000000;stroke-width:1;stroke-linecap:butt;stroke-linejoin:miter;stroke-miterlimit:4;stroke-opacity:1;stroke-dasharray:none;stroke-dashoffset:0;marker-start:none;marker-end:url(#Arrow2Lend)"
       d="m 634.47804,735.17086 26.71877,9.73978"
       id="path3952-5-3-0"
       inkscape:connector-curvature="0"
       sodipodi:nodetypes="cc"
       inkscape:transform-center-x="2.8171138"
       inkscape:transform-center-y="5.2882073" />
    <path
       sodipodi:type="arc"
       style="fill:none;stroke:#000000;stroke-width:1.97675836;stroke-linecap:butt;stroke-linejoin:miter;stroke-miterlimit:4;stroke-opacity:1;stroke-dasharray:none;marker-start:url(#TriangleInM);marker-end:none;display:inline"
       id="path3024"
       sodipodi:cx="237.89093"
       sodipodi:cy="224.87608"
       sodipodi:rx="78.037827"
       sodipodi:ry="37.691685"
       d="m 315.26672,229.77531 a 78.037827,37.691685 0 1 1 -62.89057,-41.9359"
       transform="matrix(-0.44450926,0.42483669,-1.983301,-0.40735771,1116.0274,540.54826)"
       sodipodi:start="0.13035045"
       sodipodi:end="4.8990897"
       sodipodi:open="true" />
  </g>
</svg>
