<?xml version="1.0" encoding="UTF-8" standalone="no"?>
<!-- Created with Inkscape (http://www.inkscape.org/) -->

<svg
   xmlns:dc="http://purl.org/dc/elements/1.1/"
   xmlns:cc="http://creativecommons.org/ns#"
   xmlns:rdf="http://www.w3.org/1999/02/22-rdf-syntax-ns#"
   xmlns:svg="http://www.w3.org/2000/svg"
   xmlns="http://www.w3.org/2000/svg"
   xmlns:sodipodi="http://sodipodi.sourceforge.net/DTD/sodipodi-0.dtd"
   xmlns:inkscape="http://www.inkscape.org/namespaces/inkscape"
   width="1052.3622"
   height="744.09448"
   id="svg5390"
   version="1.1"
   inkscape:version="0.48.2 r9819"
   sodipodi:docname="normal3d2.svg">
  <sodipodi:namedview
     id="base"
     pagecolor="#ffffff"
     bordercolor="#666666"
     borderopacity="1.0"
     inkscape:pageopacity="0.0"
     inkscape:pageshadow="2"
     inkscape:zoom="1"
     inkscape:cx="367.55734"
     inkscape:cy="524.5151"
     inkscape:document-units="px"
     inkscape:current-layer="layer1"
     showgrid="false"
     inkscape:window-width="1222"
     inkscape:window-height="765"
     inkscape:window-x="1803"
     inkscape:window-y="111"
     inkscape:window-maximized="0" />
  <defs
     id="defs5392">
    <inkscape:path-effect
       is_visible="true"
       id="path-effect3100"
       effect="spiro" />
    <marker
       style="overflow:visible"
       id="TriangleInM"
       refX="0.0"
       refY="0.0"
       orient="auto"
       inkscape:stockid="TriangleInM">
      <path
         transform="scale(-0.4)"
         style="fill-rule:evenodd;stroke:#000000;stroke-width:1.0pt;marker-start:none"
         d="M 5.77,0.0 L -2.88,5.0 L -2.88,-5.0 L 5.77,0.0 z "
         id="path4094" />
    </marker>
    <marker
       style="overflow:visible"
       id="Arrow1Mstart"
       refX="0.0"
       refY="0.0"
       orient="auto"
       inkscape:stockid="Arrow1Mstart">
      <path
         transform="scale(0.4) translate(10,0)"
         style="fill-rule:evenodd;stroke:#000000;stroke-width:1.0pt;marker-start:none"
         d="M 0.0,0.0 L 5.0,-5.0 L -12.5,0.0 L 5.0,5.0 L 0.0,0.0 z "
         id="path3963" />
    </marker>
    <inkscape:path-effect
       is_visible="true"
       id="path-effect11307"
       effect="spiro" />
    <inkscape:path-effect
       is_visible="true"
       id="path-effect11301"
       effect="spiro" />
    <inkscape:path-effect
       is_visible="true"
       id="path-effect11297"
       effect="spiro" />
    <inkscape:path-effect
       is_visible="true"
       id="path-effect10362"
       effect="spiro" />
    <inkscape:path-effect
       is_visible="true"
       id="path-effect10358"
       effect="spiro" />
    <inkscape:path-effect
       is_visible="true"
       id="path-effect10354"
       effect="spiro" />
    <inkscape:path-effect
       is_visible="true"
       id="path-effect10338"
       effect="spiro" />
    <marker
       style="overflow:visible"
       id="TriangleOutM"
       refX="0.0"
       refY="0.0"
       orient="auto"
       inkscape:stockid="TriangleOutM">
      <path
         transform="scale(0.4)"
         style="fill-rule:evenodd;stroke:#000000;stroke-width:1.0pt;marker-start:none"
         d="M 5.77,0.0 L -2.88,5.0 L -2.88,-5.0 L 5.77,0.0 z "
         id="path4103" />
    </marker>
    <marker
       orient="auto"
       refY="0"
       refX="0"
       id="InfiniteLineEnd"
       inkscape:stockid="InfiniteLineEnd"
       style="overflow:visible">
      <g
         id="g4193">
        <circle
           cx="3"
           cy="0"
           r="0.8"
           id="circle4195" />
        <circle
           cx="6.5"
           cy="0"
           r="0.8"
           id="circle4197" />
        <circle
           cx="10"
           cy="0"
           r="0.8"
           id="circle4199" />
      </g>
    </marker>
    <marker
       style="overflow:visible"
       id="TriangleOutL"
       refX="0.0"
       refY="0.0"
       orient="auto"
       inkscape:stockid="TriangleOutL">
      <path
         transform="scale(0.8)"
         style="fill-rule:evenodd;stroke:#000000;stroke-width:1.0pt;marker-start:none"
         d="M 5.77,0.0 L -2.88,5.0 L -2.88,-5.0 L 5.77,0.0 z "
         id="path4100" />
    </marker>
    <marker
       style="overflow:visible;"
       id="Arrow1Lend"
       refX="0.0"
       refY="0.0"
       orient="auto"
       inkscape:stockid="Arrow1Lend">
      <path
         transform="scale(0.8) rotate(180) translate(12.5,0)"
         style="fill-rule:evenodd;stroke:#000000;stroke-width:1.0pt;marker-start:none;"
         d="M 0.0,0.0 L 5.0,-5.0 L -12.5,0.0 L 5.0,5.0 L 0.0,0.0 z "
         id="path3960" />
    </marker>
    <inkscape:path-effect
       is_visible="true"
       id="path-effect5459"
       effect="spiro" />
    <inkscape:path-effect
       is_visible="true"
       id="path-effect5451"
       effect="spiro" />
    <inkscape:path-effect
       is_visible="true"
       id="path-effect5447"
       effect="spiro" />
    <inkscape:path-effect
       is_visible="true"
       id="path-effect5422"
       effect="spiro" />
    <inkscape:path-effect
       is_visible="true"
       id="path-effect5418"
       effect="spiro" />
    <inkscape:path-effect
       is_visible="true"
       id="path-effect5414"
       effect="spiro" />
    <inkscape:path-effect
       is_visible="true"
       id="path-effect5410"
       effect="spiro" />
    <inkscape:path-effect
       is_visible="true"
       id="path-effect5422-5"
       effect="spiro" />
    <inkscape:path-effect
       is_visible="true"
       id="path-effect5459-1"
       effect="spiro" />
    <marker
       style="overflow:visible"
       id="TriangleOutL-4"
       refX="0"
       refY="0"
       orient="auto"
       inkscape:stockid="TriangleOutL">
      <path
         transform="scale(0.8,0.8)"
         style="fill-rule:evenodd;stroke:#000000;stroke-width:1pt;marker-start:none"
         d="m 5.77,0 -8.65,5 0,-10 8.65,5 z"
         id="path4100-6"
         inkscape:connector-curvature="0" />
    </marker>
    <inkscape:path-effect
       is_visible="true"
       id="path-effect5459-1-7"
       effect="spiro" />
    <marker
       style="overflow:visible"
       id="TriangleOutL-3"
       refX="0"
       refY="0"
       orient="auto"
       inkscape:stockid="TriangleOutL">
      <path
         transform="scale(0.8,0.8)"
         style="fill-rule:evenodd;stroke:#000000;stroke-width:1pt;marker-start:none"
         d="m 5.77,0 -8.65,5 0,-10 8.65,5 z"
         id="path4100-9"
         inkscape:connector-curvature="0" />
    </marker>
    <inkscape:path-effect
       is_visible="true"
       id="path-effect5459-9"
       effect="spiro" />
    <marker
       style="overflow:visible"
       id="TriangleOutL-6"
       refX="0"
       refY="0"
       orient="auto"
       inkscape:stockid="TriangleOutL">
      <path
         transform="scale(0.8,0.8)"
         style="fill-rule:evenodd;stroke:#000000;stroke-width:1pt;marker-start:none"
         d="m 5.77,0 -8.65,5 0,-10 8.65,5 z"
         id="path4100-7"
         inkscape:connector-curvature="0" />
    </marker>
    <inkscape:path-effect
       is_visible="true"
       id="path-effect5459-1-1"
       effect="spiro" />
    <marker
       style="overflow:visible"
       id="Arrow1Lstart"
       refX="0"
       refY="0"
       orient="auto"
       inkscape:stockid="Arrow1Lstart">
      <path
         transform="matrix(0.8,0,0,0.8,10,0)"
         style="fill-rule:evenodd;stroke:#000000;stroke-width:1pt;marker-start:none"
         d="M 0,0 5,-5 -12.5,0 5,5 0,0 z"
         id="path3957"
         inkscape:connector-curvature="0" />
    </marker>
    <marker
       style="overflow:visible"
       id="Arrow2Lend"
       refX="0"
       refY="0"
       orient="auto"
       inkscape:stockid="Arrow2Lend">
      <path
         transform="matrix(-1.1,0,0,-1.1,-1.1,0)"
         d="M 8.7185878,4.0337352 -2.2072895,0.01601326 8.7185884,-4.0017078 c -1.7454984,2.3720609 -1.7354408,5.6174519 -6e-7,8.035443 z"
         style="font-size:12px;fill-rule:evenodd;stroke-width:0.625;stroke-linejoin:round"
         id="path3978"
         inkscape:connector-curvature="0" />
    </marker>
    <marker
       style="overflow:visible"
       id="Arrow2Lend-5"
       refX="0"
       refY="0"
       orient="auto"
       inkscape:stockid="Arrow2Lend">
      <path
         transform="matrix(-1.1,0,0,-1.1,-1.1,0)"
         d="M 8.7185878,4.0337352 -2.2072895,0.01601326 8.7185884,-4.0017078 c -1.7454984,2.3720609 -1.7354408,5.6174519 -6e-7,8.035443 z"
         style="font-size:12px;fill-rule:evenodd;stroke-width:0.625;stroke-linejoin:round"
         id="path3978-4"
         inkscape:connector-curvature="0" />
    </marker>
    <marker
       style="overflow:visible"
       id="Arrow2Lend-4"
       refX="0"
       refY="0"
       orient="auto"
       inkscape:stockid="Arrow2Lend">
      <path
         transform="matrix(-1.1,0,0,-1.1,-1.1,0)"
         d="M 8.7185878,4.0337352 -2.2072895,0.01601326 8.7185884,-4.0017078 c -1.7454984,2.3720609 -1.7354408,5.6174519 -6e-7,8.035443 z"
         style="font-size:12px;fill-rule:evenodd;stroke-width:0.625;stroke-linejoin:round"
         id="path3978-5"
         inkscape:connector-curvature="0" />
    </marker>
    <font
       inkscape:label="font 1"
       id="font11480"
       horiz-adv-x="1024">
      <font-face
         font-family="SVGFont 1"
         id="font-face11482"
         units-per-em="1024" />
      <missing-glyph
         id="missing-glyph11484"
         d="M0,0h1000v1024h-1000z" />
    </font>
    <marker
       style="overflow:visible"
       id="Arrow1Lstart-3"
       refX="0"
       refY="0"
       orient="auto"
       inkscape:stockid="Arrow1Lstart">
      <path
         transform="matrix(0.8,0,0,0.8,10,0)"
         style="fill-rule:evenodd;stroke:#000000;stroke-width:1pt;marker-start:none"
         d="M 0,0 5,-5 -12.5,0 5,5 0,0 z"
         id="path3957-6"
         inkscape:connector-curvature="0" />
    </marker>
    <inkscape:path-effect
       is_visible="true"
       id="path-effect3100-2"
       effect="spiro" />
    <marker
       inkscape:stockid="Arrow2Mend"
       orient="auto"
       refY="0"
       refX="0"
       id="Arrow2Mend-2"
       style="overflow:visible">
      <path
         inkscape:connector-curvature="0"
         id="path6980-46"
         style="font-size:12px;fill-rule:evenodd;stroke-width:0.625;stroke-linejoin:round"
         d="M 8.7185878,4.0337352 -2.2072895,0.01601326 8.7185884,-4.0017078 c -1.7454984,2.3720609 -1.7354408,5.6174519 -6e-7,8.035443 z"
         transform="scale(-0.6,-0.6)" />
    </marker>
    <marker
       inkscape:stockid="Arrow2Mend"
       orient="auto"
       refY="0"
       refX="0"
       id="marker3284"
       style="overflow:visible">
      <path
         inkscape:connector-curvature="0"
         id="path3286"
         style="font-size:12px;fill-rule:evenodd;stroke-width:0.625;stroke-linejoin:round"
         d="M 8.7185878,4.0337352 -2.2072895,0.01601326 8.7185884,-4.0017078 c -1.7454984,2.3720609 -1.7354408,5.6174519 -6e-7,8.035443 z"
         transform="scale(-0.6,-0.6)" />
    </marker>
    <marker
       inkscape:stockid="Arrow2Mend"
       orient="auto"
       refY="0"
       refX="0"
       id="marker3288"
       style="overflow:visible">
      <path
         inkscape:connector-curvature="0"
         id="path3290"
         style="font-size:12px;fill-rule:evenodd;stroke-width:0.625;stroke-linejoin:round"
         d="M 8.7185878,4.0337352 -2.2072895,0.01601326 8.7185884,-4.0017078 c -1.7454984,2.3720609 -1.7354408,5.6174519 -6e-7,8.035443 z"
         transform="scale(-0.6,-0.6)" />
    </marker>
    <marker
       inkscape:stockid="Arrow2Mend"
       orient="auto"
       refY="0"
       refX="0"
       id="marker3292"
       style="overflow:visible">
      <path
         inkscape:connector-curvature="0"
         id="path3294"
         style="font-size:12px;fill-rule:evenodd;stroke-width:0.625;stroke-linejoin:round"
         d="M 8.7185878,4.0337352 -2.2072895,0.01601326 8.7185884,-4.0017078 c -1.7454984,2.3720609 -1.7354408,5.6174519 -6e-7,8.035443 z"
         transform="scale(-0.6,-0.6)" />
    </marker>
    <marker
       style="overflow:visible"
       id="Arrow2Lend-43"
       refX="0"
       refY="0"
       orient="auto"
       inkscape:stockid="Arrow2Lend">
      <path
         transform="matrix(-1.1,0,0,-1.1,-1.1,0)"
         d="M 8.7185878,4.0337352 -2.2072895,0.01601326 8.7185884,-4.0017078 c -1.7454984,2.3720609 -1.7354408,5.6174519 -6e-7,8.035443 z"
         style="font-size:12px;fill-rule:evenodd;stroke-width:0.625;stroke-linejoin:round"
         id="path3978-0"
         inkscape:connector-curvature="0" />
    </marker>
    <marker
       style="overflow:visible"
       id="marker3298"
       refX="0"
       refY="0"
       orient="auto"
       inkscape:stockid="Arrow2Lend">
      <path
         transform="matrix(-1.1,0,0,-1.1,-1.1,0)"
         d="M 8.7185878,4.0337352 -2.2072895,0.01601326 8.7185884,-4.0017078 c -1.7454984,2.3720609 -1.7354408,5.6174519 -6e-7,8.035443 z"
         style="font-size:12px;fill-rule:evenodd;stroke-width:0.625;stroke-linejoin:round"
         id="path3300"
         inkscape:connector-curvature="0" />
    </marker>
    <marker
       style="overflow:visible"
       id="marker3302"
       refX="0"
       refY="0"
       orient="auto"
       inkscape:stockid="Arrow2Lend">
      <path
         transform="matrix(-1.1,0,0,-1.1,-1.1,0)"
         d="M 8.7185878,4.0337352 -2.2072895,0.01601326 8.7185884,-4.0017078 c -1.7454984,2.3720609 -1.7354408,5.6174519 -6e-7,8.035443 z"
         style="font-size:12px;fill-rule:evenodd;stroke-width:0.625;stroke-linejoin:round"
         id="path3304"
         inkscape:connector-curvature="0" />
    </marker>
    <marker
       style="overflow:visible"
       id="marker3306"
       refX="0"
       refY="0"
       orient="auto"
       inkscape:stockid="Arrow2Lend">
      <path
         transform="matrix(-1.1,0,0,-1.1,-1.1,0)"
         d="M 8.7185878,4.0337352 -2.2072895,0.01601326 8.7185884,-4.0017078 c -1.7454984,2.3720609 -1.7354408,5.6174519 -6e-7,8.035443 z"
         style="font-size:12px;fill-rule:evenodd;stroke-width:0.625;stroke-linejoin:round"
         id="path3308"
         inkscape:connector-curvature="0" />
    </marker>
    <marker
       style="overflow:visible"
       id="marker3310"
       refX="0"
       refY="0"
       orient="auto"
       inkscape:stockid="Arrow2Lend">
      <path
         transform="matrix(-1.1,0,0,-1.1,-1.1,0)"
         d="M 8.7185878,4.0337352 -2.2072895,0.01601326 8.7185884,-4.0017078 c -1.7454984,2.3720609 -1.7354408,5.6174519 -6e-7,8.035443 z"
         style="font-size:12px;fill-rule:evenodd;stroke-width:0.625;stroke-linejoin:round"
         id="path3312"
         inkscape:connector-curvature="0" />
    </marker>
    <marker
       style="overflow:visible"
       id="marker3314"
       refX="0"
       refY="0"
       orient="auto"
       inkscape:stockid="Arrow2Lend">
      <path
         transform="matrix(-1.1,0,0,-1.1,-1.1,0)"
         d="M 8.7185878,4.0337352 -2.2072895,0.01601326 8.7185884,-4.0017078 c -1.7454984,2.3720609 -1.7354408,5.6174519 -6e-7,8.035443 z"
         style="font-size:12px;fill-rule:evenodd;stroke-width:0.625;stroke-linejoin:round"
         id="path3316"
         inkscape:connector-curvature="0" />
    </marker>
    <marker
       style="overflow:visible"
       id="marker3318"
       refX="0"
       refY="0"
       orient="auto"
       inkscape:stockid="Arrow2Lend">
      <path
         transform="matrix(-1.1,0,0,-1.1,-1.1,0)"
         d="M 8.7185878,4.0337352 -2.2072895,0.01601326 8.7185884,-4.0017078 c -1.7454984,2.3720609 -1.7354408,5.6174519 -6e-7,8.035443 z"
         style="font-size:12px;fill-rule:evenodd;stroke-width:0.625;stroke-linejoin:round"
         id="path3320"
         inkscape:connector-curvature="0" />
    </marker>
    <marker
       style="overflow:visible"
       id="marker3322"
       refX="0"
       refY="0"
       orient="auto"
       inkscape:stockid="Arrow2Lend">
      <path
         transform="matrix(-1.1,0,0,-1.1,-1.1,0)"
         d="M 8.7185878,4.0337352 -2.2072895,0.01601326 8.7185884,-4.0017078 c -1.7454984,2.3720609 -1.7354408,5.6174519 -6e-7,8.035443 z"
         style="font-size:12px;fill-rule:evenodd;stroke-width:0.625;stroke-linejoin:round"
         id="path3324"
         inkscape:connector-curvature="0" />
    </marker>
    <marker
       inkscape:stockid="Arrow2Mend"
       orient="auto"
       refY="0"
       refX="0"
       id="marker3326"
       style="overflow:visible">
      <path
         inkscape:connector-curvature="0"
         id="path3328"
         style="font-size:12px;fill-rule:evenodd;stroke-width:0.625;stroke-linejoin:round"
         d="M 8.7185878,4.0337352 -2.2072895,0.01601326 8.7185884,-4.0017078 c -1.7454984,2.3720609 -1.7354408,5.6174519 -6e-7,8.035443 z"
         transform="scale(-0.6,-0.6)" />
    </marker>
    <marker
       style="overflow:visible"
       id="marker3330"
       refX="0"
       refY="0"
       orient="auto"
       inkscape:stockid="Arrow2Lend">
      <path
         transform="matrix(-1.1,0,0,-1.1,-1.1,0)"
         d="M 8.7185878,4.0337352 -2.2072895,0.01601326 8.7185884,-4.0017078 c -1.7454984,2.3720609 -1.7354408,5.6174519 -6e-7,8.035443 z"
         style="font-size:12px;fill-rule:evenodd;stroke-width:0.625;stroke-linejoin:round"
         id="path3332"
         inkscape:connector-curvature="0" />
    </marker>
    <marker
       style="overflow:visible"
       id="marker3334"
       refX="0"
       refY="0"
       orient="auto"
       inkscape:stockid="Arrow2Lend">
      <path
         transform="matrix(-1.1,0,0,-1.1,-1.1,0)"
         d="M 8.7185878,4.0337352 -2.2072895,0.01601326 8.7185884,-4.0017078 c -1.7454984,2.3720609 -1.7354408,5.6174519 -6e-7,8.035443 z"
         style="font-size:12px;fill-rule:evenodd;stroke-width:0.625;stroke-linejoin:round"
         id="path3336"
         inkscape:connector-curvature="0" />
    </marker>
    <inkscape:path-effect
       effect="spiro"
       id="path-effect11297-1"
       is_visible="true" />
    <inkscape:path-effect
       effect="spiro"
       id="path-effect3100-2-7"
       is_visible="true" />
    <inkscape:path-effect
       effect="spiro"
       id="path-effect3100-9"
       is_visible="true" />
    <marker
       inkscape:stockid="Arrow2Mend"
       orient="auto"
       refY="0"
       refX="0"
       id="Arrow2Mend-2-2"
       style="overflow:visible">
      <path
         inkscape:connector-curvature="0"
         id="path6980-46-3"
         style="font-size:12px;fill-rule:evenodd;stroke-width:0.625;stroke-linejoin:round"
         d="M 8.7185878,4.0337352 -2.2072895,0.01601326 8.7185884,-4.0017078 c -1.7454984,2.3720609 -1.7354408,5.6174519 -6e-7,8.035443 z"
         transform="scale(-0.6,-0.6)" />
    </marker>
  </defs>
  <metadata
     id="metadata5395">
    <rdf:RDF>
      <cc:Work
         rdf:about="">
        <dc:format>image/svg+xml</dc:format>
        <dc:type
           rdf:resource="http://purl.org/dc/dcmitype/StillImage" />
        <dc:title />
      </cc:Work>
    </rdf:RDF>
  </metadata>
  <g
     transform="translate(0,-308.2677)"
     id="layer1"
     inkscape:groupmode="layer"
     inkscape:label="Layer 1">
    <path
       style="fill:none;stroke:#000000;stroke-width:5;stroke-linecap:butt;stroke-linejoin:miter;stroke-miterlimit:4;stroke-opacity:1;stroke-dasharray:none;stroke-dashoffset:0;marker-start:none;marker-end:url(#Arrow2Mend-2)"
       d="M 538.44055,575.98397 516.46931,383.25688"
       id="path3952-0-7-7-0-0-7-2"
       inkscape:connector-curvature="0"
       sodipodi:nodetypes="cc" />
    <text
       transform="translate(0,308.2677)"
       sodipodi:linespacing="125%"
       id="text11476"
       y="612.66589"
       x="288.57144"
       style="font-size:40px;font-style:normal;font-variant:normal;font-weight:normal;font-stretch:normal;line-height:125%;letter-spacing:0px;word-spacing:0px;fill:#000000;fill-opacity:1;stroke:none;font-family:Symbol;-inkscape-font-specification:Symbol"
       xml:space="preserve"><tspan
         y="612.66589"
         x="288.57144"
         id="tspan11478"
         sodipodi:role="line" /></text>
    <path
       style="fill:none;stroke:#000000;stroke-width:1px;stroke-linecap:butt;stroke-linejoin:miter;stroke-opacity:1"
       d="m 539.65362,576.25308 -67.19339,359.3823"
       id="path3098"
       inkscape:path-effect="#path-effect3100-9"
       inkscape:original-d="m 539.65362,576.25308 -67.19339,359.3823"
       inkscape:connector-curvature="0"
       sodipodi:nodetypes="cc" />
    <path
       style="fill:none;stroke:#000000;stroke-width:1px;stroke-linecap:butt;stroke-linejoin:miter;stroke-opacity:1"
       d="M 537.62437,575.9036 770.96504,804.64629"
       id="path3098-2"
       inkscape:path-effect="#path-effect3100-2-7"
       inkscape:original-d="M 537.62437,575.9036 770.96504,804.64629"
       inkscape:connector-curvature="0"
       sodipodi:nodetypes="cc" />
    <path
       sodipodi:type="star"
       style="fill:none;stroke:#000000;stroke-width:1px;stroke-linecap:butt;stroke-linejoin:miter;stroke-opacity:1"
       id="path2993"
       sodipodi:sides="5"
       sodipodi:cx="321.22852"
       sodipodi:cy="297.60706"
       sodipodi:r1="286.41342"
       sodipodi:r2="231.71333"
       sodipodi:arg1="0.46049305"
       sodipodi:arg2="1.0888116"
       inkscape:flatsided="true"
       inkscape:rounded="0"
       inkscape:randomized="0"
       d="M 577.80725,424.88627 279.46598,580.95938 38.839109,345.4492 188.4648,43.822807 521.56544,92.917616 z"
       transform="matrix(1.0000395,0,0,0.83914488,193.99497,450.68918)"
       inkscape:transform-center-x="12.905835"
       inkscape:transform-center-y="12.405947" />
    <path
       style="fill:none;stroke:#000000;stroke-width:1px;stroke-linecap:butt;stroke-linejoin:miter;stroke-opacity:1"
       d="m 382.39798,487.3969 157.08039,87.39502 176.09422,-45.95156"
       id="path3011"
       inkscape:connector-curvature="0"
       sodipodi:nodetypes="ccc" />
    <path
       sodipodi:type="arc"
       style="fill:#ffffff;fill-opacity:1;stroke:#000000;stroke-width:4.85894918;stroke-miterlimit:4;stroke-opacity:1;stroke-dasharray:none;stroke-dashoffset:0"
       id="path3787-8-9"
       sodipodi:cx="150.51273"
       sodipodi:cy="204.67302"
       sodipodi:rx="10.101525"
       sodipodi:ry="10.101525"
       d="m 160.61425,204.67302 c 0,5.57892 -4.52261,10.10152 -10.10152,10.10152 -5.57892,0 -10.10153,-4.5226 -10.10153,-10.10152 0,-5.57892 4.52261,-10.10153 10.10153,-10.10153 5.57891,0 10.10152,4.52261 10.10152,10.10153 z"
       transform="matrix(0.8232233,0,0,0.8232233,259.27727,319.94691)" />
    <path
       style="fill:none;stroke:#000000;stroke-width:1px;stroke-linecap:butt;stroke-linejoin:miter;stroke-opacity:1"
       d="M 233.75555,738.80005 539.46985,575.94291"
       id="path11295"
       inkscape:path-effect="#path-effect11297-1"
       inkscape:original-d="M 233.75555,738.80005 539.46985,575.94291"
       inkscape:connector-curvature="0" />
    <path
       sodipodi:type="arc"
       style="fill:#000000;stroke-width:3.29999995;stroke-miterlimit:4;stroke-dasharray:none;stroke-dashoffset:0"
       id="path3787-8-76"
       sodipodi:cx="150.51273"
       sodipodi:cy="204.67302"
       sodipodi:rx="10.101525"
       sodipodi:ry="10.101525"
       d="m 160.61425,204.67302 c 0,5.57892 -4.52261,10.10152 -10.10152,10.10152 -5.57892,0 -10.10153,-4.5226 -10.10153,-10.10152 0,-5.57892 4.52261,-10.10153 10.10153,-10.10153 5.57891,0 10.10152,4.52261 10.10152,10.10153 z"
       transform="matrix(0.35034563,0,0,0.35034563,495.15991,532.09425)" />
    <path
       sodipodi:type="arc"
       style="fill:#ffffff;fill-opacity:1;stroke:#000000;stroke-width:4.85894918;stroke-miterlimit:4;stroke-opacity:1;stroke-dasharray:none;stroke-dashoffset:0"
       id="path3787-8-9-9"
       sodipodi:cx="150.51273"
       sodipodi:cy="204.67302"
       sodipodi:rx="10.101525"
       sodipodi:ry="10.101525"
       d="m 160.61425,204.67302 c 0,5.57892 -4.52261,10.10152 -10.10152,10.10152 -5.57892,0 -10.10153,-4.5226 -10.10153,-10.10152 0,-5.57892 4.52261,-10.10153 10.10153,-10.10153 5.57891,0 10.10152,4.52261 10.10152,10.10153 z"
       transform="matrix(0.8232233,0,0,0.8232233,111.56426,570.16559)" />
    <path
       sodipodi:type="arc"
       style="fill:#ffffff;fill-opacity:1;stroke:#000000;stroke-width:4.85894918;stroke-miterlimit:4;stroke-opacity:1;stroke-dasharray:none;stroke-dashoffset:0"
       id="path3787-8-9-5"
       sodipodi:cx="150.51273"
       sodipodi:cy="204.67302"
       sodipodi:rx="10.101525"
       sodipodi:ry="10.101525"
       d="m 160.61425,204.67302 c 0,5.57892 -4.52261,10.10152 -10.10152,10.10152 -5.57892,0 -10.10153,-4.5226 -10.10153,-10.10152 0,-5.57892 4.52261,-10.10153 10.10153,-10.10153 5.57891,0 10.10152,4.52261 10.10152,10.10153 z"
       transform="matrix(0.8232233,0,0,0.8232233,348.56427,767.16559)" />
    <path
       sodipodi:type="arc"
       style="fill:#ffffff;fill-opacity:1;stroke:#000000;stroke-width:4.85894918;stroke-miterlimit:4;stroke-opacity:1;stroke-dasharray:none;stroke-dashoffset:0"
       id="path3787-8-9-7"
       sodipodi:cx="150.51273"
       sodipodi:cy="204.67302"
       sodipodi:rx="10.101525"
       sodipodi:ry="10.101525"
       d="m 160.61425,204.67302 c 0,5.57892 -4.52261,10.10152 -10.10152,10.10152 -5.57892,0 -10.10153,-4.5226 -10.10153,-10.10152 0,-5.57892 4.52261,-10.10153 10.10153,-10.10153 5.57891,0 10.10152,4.52261 10.10152,10.10153 z"
       transform="matrix(0.8232233,0,0,0.8232233,647.56427,636.16559)" />
    <path
       sodipodi:type="arc"
       style="fill:#ffffff;fill-opacity:1;stroke:#000000;stroke-width:4.85894918;stroke-miterlimit:4;stroke-opacity:1;stroke-dasharray:none;stroke-dashoffset:0"
       id="path3787-8-9-77"
       sodipodi:cx="150.51273"
       sodipodi:cy="204.67302"
       sodipodi:rx="10.101525"
       sodipodi:ry="10.101525"
       d="m 160.61425,204.67302 c 0,5.57892 -4.52261,10.10152 -10.10152,10.10152 -5.57892,0 -10.10153,-4.5226 -10.10153,-10.10152 0,-5.57892 4.52261,-10.10153 10.10153,-10.10153 5.57891,0 10.10152,4.52261 10.10152,10.10153 z"
       transform="matrix(0.8232233,0,0,0.8232233,589.56427,360.16559)" />
    <path
       sodipodi:type="arc"
       style="fill:#ffffff;fill-opacity:1;stroke:#000000;stroke-width:4.85894918;stroke-miterlimit:4;stroke-opacity:1;stroke-dasharray:none;stroke-dashoffset:0"
       id="path3787-8-9-76"
       sodipodi:cx="150.51273"
       sodipodi:cy="204.67302"
       sodipodi:rx="10.101525"
       sodipodi:ry="10.101525"
       d="m 160.61425,204.67302 c 0,5.57892 -4.52261,10.10152 -10.10152,10.10152 -5.57892,0 -10.10153,-4.5226 -10.10153,-10.10152 0,-5.57892 4.52261,-10.10153 10.10153,-10.10153 5.57891,0 10.10152,4.52261 10.10152,10.10153 z"
       transform="matrix(0.8232233,0,0,0.8232233,414.56427,407.16559)" />
    <path
       style="fill:none;stroke:#000000;stroke-width:2.5;stroke-linecap:butt;stroke-linejoin:miter;stroke-miterlimit:4;stroke-opacity:1;stroke-dasharray:none;stroke-dashoffset:0;marker-start:none;marker-end:url(#Arrow2Mend-2)"
       d="m 547.86994,604.28424 95.42411,-37.27988"
       id="path3952-0-7-7"
       inkscape:connector-curvature="0"
       sodipodi:nodetypes="cc" />
    <path
       sodipodi:type="arc"
       style="fill:#000000;stroke-width:3.29999995;stroke-miterlimit:4;stroke-dasharray:none;stroke-dashoffset:0"
       id="path3787-8-76-6"
       sodipodi:cx="150.51273"
       sodipodi:cy="204.67302"
       sodipodi:rx="10.101525"
       sodipodi:ry="10.101525"
       d="m 160.61425,204.67302 c 0,5.57892 -4.52261,10.10152 -10.10152,10.10152 -5.57892,0 -10.10153,-4.5226 -10.10153,-10.10152 0,-5.57892 4.52261,-10.10153 10.10153,-10.10153 5.57891,0 10.10152,4.52261 10.10152,10.10153 z"
       transform="matrix(0.35034563,0,0,0.35034563,474.94714,522.40077)" />
    <path
       sodipodi:type="arc"
       style="fill:#000000;stroke-width:3.29999995;stroke-miterlimit:4;stroke-dasharray:none;stroke-dashoffset:0"
       id="path3787-8-76-2"
       sodipodi:cx="150.51273"
       sodipodi:cy="204.67302"
       sodipodi:rx="10.101525"
       sodipodi:ry="10.101525"
       d="m 160.61425,204.67302 c 0,5.57892 -4.52261,10.10152 -10.10152,10.10152 -5.57892,0 -10.10153,-4.5226 -10.10153,-10.10152 0,-5.57892 4.52261,-10.10153 10.10153,-10.10153 5.57891,0 10.10152,4.52261 10.10152,10.10153 z"
       transform="matrix(0.35034563,0,0,0.35034563,464.87087,503.66244)" />
    <path
       sodipodi:type="arc"
       style="fill:#000000;stroke-width:3.29999995;stroke-miterlimit:4;stroke-dasharray:none;stroke-dashoffset:0"
       id="path3787-8-76-23"
       sodipodi:cx="150.51273"
       sodipodi:cy="204.67302"
       sodipodi:rx="10.101525"
       sodipodi:ry="10.101525"
       d="m 160.61425,204.67302 c 0,5.57892 -4.52261,10.10152 -10.10152,10.10152 -5.57892,0 -10.10153,-4.5226 -10.10153,-10.10152 0,-5.57892 4.52261,-10.10153 10.10153,-10.10153 5.57891,0 10.10152,4.52261 10.10152,10.10153 z"
       transform="matrix(0.35034563,0,0,0.35034563,491.9177,487.2222)" />
    <path
       sodipodi:type="arc"
       style="fill:#000000;stroke-width:3.29999995;stroke-miterlimit:4;stroke-dasharray:none;stroke-dashoffset:0"
       id="path3787-8-76-66"
       sodipodi:cx="150.51273"
       sodipodi:cy="204.67302"
       sodipodi:rx="10.101525"
       sodipodi:ry="10.101525"
       d="m 160.61425,204.67302 c 0,5.57892 -4.52261,10.10152 -10.10152,10.10152 -5.57892,0 -10.10153,-4.5226 -10.10153,-10.10152 0,-5.57892 4.52261,-10.10153 10.10153,-10.10153 5.57891,0 10.10152,4.52261 10.10152,10.10153 z"
       transform="matrix(0.35034563,0,0,0.35034563,513.66124,512.50127)" />
    <path
       style="fill:none;stroke:#000000;stroke-width:2.5;stroke-linecap:butt;stroke-linejoin:miter;stroke-miterlimit:4;stroke-opacity:1;stroke-dasharray:none;stroke-dashoffset:0;marker-start:none;marker-end:url(#Arrow2Mend-2)"
       d="m 565.83265,583.90837 68.73083,-77.58496"
       id="path3952-0-7-7-0"
       inkscape:connector-curvature="0"
       sodipodi:nodetypes="cc" />
    <path
       style="fill:none;stroke:#000000;stroke-width:2.5;stroke-linecap:butt;stroke-linejoin:miter;stroke-miterlimit:4;stroke-opacity:1;stroke-dasharray:none;stroke-dashoffset:0;marker-start:none;marker-end:url(#Arrow2Mend-2)"
       d="m 544.37549,557.63212 19.23335,-93.14131"
       id="path3952-0-7-7-0-0"
       inkscape:connector-curvature="0"
       sodipodi:nodetypes="cc" />
    <path
       style="fill:none;stroke:#000000;stroke-width:2.5;stroke-linecap:butt;stroke-linejoin:miter;stroke-miterlimit:4;stroke-opacity:1;stroke-dasharray:none;stroke-dashoffset:0;marker-start:none;marker-end:url(#Arrow2Mend-2)"
       d="M 517.402,575.05455 486.43076,483.32746"
       id="path3952-0-7-7-0-0-7"
       inkscape:connector-curvature="0"
       sodipodi:nodetypes="cc" />
    <path
       style="fill:none;stroke:#000000;stroke-width:2.5;stroke-linecap:butt;stroke-linejoin:miter;stroke-miterlimit:4;stroke-opacity:1;stroke-dasharray:none;stroke-dashoffset:0;marker-start:none;marker-end:url(#Arrow2Mend-2)"
       d="M 527.08018,593.36846 446.61147,556.7957"
       id="path3952-0-7-7-0-0-7-9"
       inkscape:connector-curvature="0"
       sodipodi:nodetypes="cc" />
    <g
       id="g5427"
       transform="matrix(0.77670141,0,0,0.77670141,155.83058,284.94625)">
      <g
         word-spacing="normal"
         letter-spacing="normal"
         font-size-adjust="none"
         font-stretch="normal"
         font-weight="normal"
         font-variant="normal"
         font-style="normal"
         stroke-miterlimit="10.433"
         xml:space="preserve"
         transform="matrix(1.0629921,0,0,-1.0629921,-186.02362,789.27165)"
         id="content"
         style="font-style:normal;font-variant:normal;font-weight:normal;font-stretch:normal;letter-spacing:normal;word-spacing:normal;text-anchor:start;fill:none;stroke:#000000;stroke-linecap:butt;stroke-linejoin:miter;stroke-miterlimit:10.43299961;stroke-opacity:1;stroke-dasharray:none;stroke-dashoffset:0"><path
           id="path5430"
           d="m 461.19,423.93 v -15.39 h -3.44 v -2.34 c 1.41,0.05 4.39,0.16 6.29,0.16 1.95,0 4.89,-0.11 6.28,-0.16 v 2.34 h -3.44 v 10.41 c 0,5.44 4.28,7.87 7.42,7.87 1.7,0 2.74,-1.04 2.74,-4.82 v -13.46 h -3.44 v -2.34 c 1.4,0.05 4.39,0.16 6.28,0.16 1.95,0 4.89,-0.11 6.28,-0.16 v 2.34 h -3.44 v 12.91 c 0,5.23 -2.68,7.17 -7.67,7.17 -4.78,0 -7.42,-2.84 -8.72,-5.39 v 5.39 l -8.58,-0.41 v -2.34 c 3.1,0 3.44,0 3.44,-1.94 z"
           inkscape:connector-curvature="0"
           style="fill:#000000;stroke-width:0" /><path
           id="path5432"
           d="m 493.9,416.04 0.12,-0.01 0.11,-0.02 0.11,-0.01 0.12,-0.01 0.1,-0.02 0.11,-0.01 0.11,-0.01 0.1,-0.01 0.1,-0.01 0.1,0 0.09,-0.01 0.09,-0.01 0.09,0 0.09,-0.01 0.09,0 0.08,-0.01 0.08,0 0.08,0 0.08,-0.01 0.07,0 0.07,0 0.07,0 0.06,-0.01 0.07,0 0.06,0 0.05,0 0.06,0 0.05,0 0.05,0 0.05,0 0.04,0 0.04,0 c 0.83,0 3.24,0 5.81,1.53 1.02,0.6 3.41,2.38 3.41,3.42 0,0.14 0,0.8 -0.62,0.8 -0.07,0 -0.14,0 -0.55,-0.14 -2.31,-0.77 -4.36,-0.97 -5.97,-0.97 -1.42,0 -3.58,0.17 -5.89,0.94 -0.48,0.17 -0.55,0.17 -0.63,0.17 -0.62,0 -0.62,-0.56 -0.62,-1.08 v -10.31 c 0,-0.7 0,-1.19 1.02,-1.19 0.34,0 0.59,0 0.87,0.28 0.66,0.74 1.94,2.13 5.25,2.13 3.63,0 3.63,-3.03 3.63,-5.55 0,-2.33 0,-5.78 -4.82,-5.78 -1.62,0 -3.43,0.56 -4.45,1.7 1.75,0.46 1.87,1.93 1.87,2.44 0,1.72 -1.31,2.58 -2.53,2.58 -1.26,0 -2.57,-0.83 -2.57,-2.61 0,-3.2 3.12,-5.89 7.82,-5.89 6.6,0 9.94,3.48 9.94,7.42 0,3.7 -2.72,7.28 -8.72,7.28 -1.36,0 -3.15,-0.17 -4.84,-1.14 z"
           inkscape:connector-curvature="0"
           style="fill:#000000;stroke-width:0" /></g>    </g>
    <g
       id="g5678"
       transform="matrix(0.77670141,0,0,0.77670141,215.83058,182.94625)">
      <g
         id="g5680"
         transform="matrix(1.0629921,0,0,-1.0629921,-186.02362,789.27165)"
         xml:space="preserve"
         stroke-miterlimit="10.433"
         font-style="normal"
         font-variant="normal"
         font-weight="normal"
         font-stretch="normal"
         font-size-adjust="none"
         letter-spacing="normal"
         word-spacing="normal"
         style="font-style:normal;font-variant:normal;font-weight:normal;font-stretch:normal;letter-spacing:normal;word-spacing:normal;text-anchor:start;fill:none;stroke:#000000;stroke-linecap:butt;stroke-linejoin:miter;stroke-miterlimit:10.43299961;stroke-opacity:1;stroke-dasharray:none;stroke-dashoffset:0"><path
           d="m 461.19,423.93 v -15.39 h -3.44 v -2.34 c 1.41,0.05 4.39,0.16 6.29,0.16 1.95,0 4.89,-0.11 6.28,-0.16 v 2.34 h -3.44 v 10.41 c 0,5.44 4.28,7.87 7.42,7.87 1.7,0 2.74,-1.04 2.74,-4.82 v -13.46 h -3.44 v -2.34 c 1.4,0.05 4.39,0.16 6.28,0.16 1.95,0 4.89,-0.11 6.28,-0.16 v 2.34 h -3.44 v 12.91 c 0,5.23 -2.68,7.17 -7.67,7.17 -4.78,0 -7.42,-2.84 -8.72,-5.39 v 5.39 l -8.58,-0.41 v -2.34 c 3.1,0 3.44,0 3.44,-1.94 z"
           id="path5682"
           inkscape:connector-curvature="0"
           style="fill:#000000;stroke-width:0" /><path
           d="m 508.43,404.12 v 1.95 h -3.8 v 14.54 c 0,1.04 -0.17,1.21 -1.22,1.21 h -0.51 c -0.67,0 -0.94,0 -1.39,-0.51 l -12.8,-15.24 v -1.95 h 11.16 l 0.45,1.95 h -9.2 l 9.2,10.96 v -10.96 l -0.45,-1.95 v -3.41 h -4.33 v -1.95 c 1.72,0.14 4.84,0.14 6.66,0.14 0.76,0 5.37,-0.08 6.23,-0.14 v 1.95 h -3.8 v 3.41 z"
           id="path5684"
           inkscape:connector-curvature="0"
           style="fill:#000000;stroke-width:0" /></g>    </g>
    <g
       id="g5938"
       transform="matrix(0.77670141,0,0,0.77670141,321.83058,165.94625)">
      <g
         word-spacing="normal"
         letter-spacing="normal"
         font-size-adjust="none"
         font-stretch="normal"
         font-weight="normal"
         font-variant="normal"
         font-style="normal"
         stroke-miterlimit="10.433"
         xml:space="preserve"
         transform="matrix(1.0629921,0,0,-1.0629921,-186.02362,789.27165)"
         id="g5940"
         style="font-style:normal;font-variant:normal;font-weight:normal;font-stretch:normal;letter-spacing:normal;word-spacing:normal;text-anchor:start;fill:none;stroke:#000000;stroke-linecap:butt;stroke-linejoin:miter;stroke-miterlimit:10.43299961;stroke-opacity:1;stroke-dasharray:none;stroke-dashoffset:0"><path
           id="path5942"
           d="m 461.19,423.93 v -15.39 h -3.44 v -2.34 c 1.41,0.05 4.39,0.16 6.29,0.16 1.95,0 4.89,-0.11 6.28,-0.16 v 2.34 h -3.44 v 10.41 c 0,5.44 4.28,7.87 7.42,7.87 1.7,0 2.74,-1.04 2.74,-4.82 v -13.46 h -3.44 v -2.34 c 1.4,0.05 4.39,0.16 6.28,0.16 1.95,0 4.89,-0.11 6.28,-0.16 v 2.34 h -3.44 v 12.91 c 0,5.23 -2.68,7.17 -7.67,7.17 -4.78,0 -7.42,-2.84 -8.72,-5.39 v 5.39 l -8.58,-0.41 v -2.34 c 3.1,0 3.44,0 3.44,-1.94 z"
           inkscape:connector-curvature="0"
           style="fill:#000000;stroke-width:0" /><path
           id="path5944"
           d="m 497.84,410.09 0.19,0 0.18,-0.01 0.18,-0.01 0.18,-0.02 0.17,-0.02 0.16,-0.02 0.16,-0.03 0.16,-0.03 0.14,-0.03 0.15,-0.04 0.14,-0.05 0.13,-0.04 0.13,-0.05 0.12,-0.05 0.12,-0.06 0.12,-0.06 0.11,-0.06 0.1,-0.07 0.1,-0.06 0.1,-0.07 0.18,-0.15 0.17,-0.16 0.15,-0.17 0.14,-0.17 0.13,-0.18 0.11,-0.19 0.1,-0.19 0.09,-0.2 0.07,-0.2 0.07,-0.21 0.06,-0.2 0.05,-0.21 0.04,-0.21 0.03,-0.21 0.03,-0.21 0.02,-0.2 0.02,-0.2 0.01,-0.2 0.01,-0.2 0,-0.19 0,-0.18 0,-0.17 c 0,-1.47 0,-4.99 -4.18,-4.99 -0.94,0 -3.13,0.17 -4.63,1.11 0.74,0.31 1.64,1.13 1.64,2.63 0,1.59 -1.15,2.81 -2.83,2.81 -1.75,0 -2.86,-1.22 -2.86,-2.86 0,-3.55 3.88,-5.47 8.82,-5.47 7.28,0 9.72,3.8 9.72,6.73 0,2.68 -2.13,5.11 -6.1,5.93 2.52,0.93 4.85,2.75 4.85,5.67 0,2.72 -2.79,4.95 -8.36,4.95 -4.74,0 -7.68,-2.34 -7.68,-5.23 0,-1.74 1.27,-2.68 2.63,-2.68 1.73,0 2.64,1.29 2.64,2.61 0,1.79 -1.39,2.41 -1.73,2.52 1.42,1.03 3.26,1.17 3.96,1.17 3.41,0 3.41,-2.26 3.41,-3.23 0,-1.61 -0.69,-4.82 -4.17,-4.99 -0.88,-0.03 -1.75,-0.06 -1.95,-0.14 -0.46,-0.14 -0.46,-0.56 -0.46,-0.76 0,-0.8 0.46,-0.8 1.11,-0.8 z"
           inkscape:connector-curvature="0"
           style="fill:#000000;stroke-width:0" /></g>    </g>
    <g
       id="g6206"
       transform="matrix(0.77670141,0,0,0.77670141,409.83058,209.94625)">
      <g
         id="g6208"
         transform="matrix(1.0629921,0,0,-1.0629921,-186.02362,789.27165)"
         xml:space="preserve"
         stroke-miterlimit="10.433"
         font-style="normal"
         font-variant="normal"
         font-weight="normal"
         font-stretch="normal"
         font-size-adjust="none"
         letter-spacing="normal"
         word-spacing="normal"
         style="font-style:normal;font-variant:normal;font-weight:normal;font-stretch:normal;letter-spacing:normal;word-spacing:normal;text-anchor:start;fill:none;stroke:#000000;stroke-linecap:butt;stroke-linejoin:miter;stroke-miterlimit:10.43299961;stroke-opacity:1;stroke-dasharray:none;stroke-dashoffset:0"><path
           d="m 461.19,423.93 v -15.39 h -3.44 v -2.34 c 1.41,0.05 4.39,0.16 6.29,0.16 1.95,0 4.89,-0.11 6.28,-0.16 v 2.34 h -3.44 v 10.41 c 0,5.44 4.28,7.87 7.42,7.87 1.7,0 2.74,-1.04 2.74,-4.82 v -13.46 h -3.44 v -2.34 c 1.4,0.05 4.39,0.16 6.28,0.16 1.95,0 4.89,-0.11 6.28,-0.16 v 2.34 h -3.44 v 12.91 c 0,5.23 -2.68,7.17 -7.67,7.17 -4.78,0 -7.42,-2.84 -8.72,-5.39 v 5.39 l -8.58,-0.41 v -2.34 c 3.1,0 3.44,0 3.44,-1.94 z"
           id="path6210"
           inkscape:connector-curvature="0"
           style="fill:#000000;stroke-width:0" /><path
           d="m 507.46,406.7 h -2.2 c -0.06,-0.41 -0.38,-2.89 -1,-3.03 -0.74,-0.13 -2.83,-0.13 -3.63,-0.13 h -4.78 c 1.92,1.42 3.88,2.85 5.89,4.14 2.83,1.82 5.72,3.66 5.72,7.14 0,4.19 -3.94,6.8 -9.48,6.8 -4.74,0 -8.28,-1.84 -8.28,-5.16 0,-2.01 1.62,-2.75 2.67,-2.75 1.26,0 2.72,0.86 2.72,2.72 0,1.68 -1.29,2.36 -1.39,2.41 1.25,0.8 2.85,0.83 3.28,0.83 2.95,0 5.29,-1.88 5.29,-4.88 0,-2.68 -1.81,-4.92 -3.84,-6.68 l -8.28,-7.36 c -0.42,-0.43 -0.45,-0.46 -0.45,-1.14 v -0.85 h 16.57 z"
           id="path6212"
           inkscape:connector-curvature="0"
           style="fill:#000000;stroke-width:0" /></g>    </g>
    <g
       id="g6482"
       transform="matrix(0.77670141,0,0,0.77670141,409.83058,325.94625)">
      <g
         word-spacing="normal"
         letter-spacing="normal"
         font-size-adjust="none"
         font-stretch="normal"
         font-weight="normal"
         font-variant="normal"
         font-style="normal"
         stroke-miterlimit="10.433"
         xml:space="preserve"
         transform="matrix(1.0629921,0,0,-1.0629921,-186.02362,789.27165)"
         id="g6484"
         style="font-style:normal;font-variant:normal;font-weight:normal;font-stretch:normal;letter-spacing:normal;word-spacing:normal;text-anchor:start;fill:none;stroke:#000000;stroke-linecap:butt;stroke-linejoin:miter;stroke-miterlimit:10.43299961;stroke-opacity:1;stroke-dasharray:none;stroke-dashoffset:0"><path
           id="path6486"
           d="m 461.19,423.93 v -15.39 h -3.44 v -2.34 c 1.41,0.05 4.39,0.16 6.29,0.16 1.95,0 4.89,-0.11 6.28,-0.16 v 2.34 h -3.44 v 10.41 c 0,5.44 4.28,7.87 7.42,7.87 1.7,0 2.74,-1.04 2.74,-4.82 v -13.46 h -3.44 v -2.34 c 1.4,0.05 4.39,0.16 6.28,0.16 1.95,0 4.89,-0.11 6.28,-0.16 v 2.34 h -3.44 v 12.91 c 0,5.23 -2.68,7.17 -7.67,7.17 -4.78,0 -7.42,-2.84 -8.72,-5.39 v 5.39 l -8.58,-0.41 v -2.34 c 3.1,0 3.44,0 3.44,-1.94 z"
           inkscape:connector-curvature="0"
           style="fill:#000000;stroke-width:0" /><path
           id="path6488"
           d="m 501.23,420.4 0,0.06 0,0.05 0,0.06 -0.01,0.05 0,0.05 0,0.04 0,0.05 -0.01,0.04 0,0.05 0,0.04 -0.01,0.04 -0.01,0.04 0,0.03 -0.01,0.04 -0.01,0.07 -0.02,0.06 -0.03,0.05 -0.02,0.06 -0.03,0.04 -0.03,0.05 -0.04,0.03 -0.04,0.04 -0.04,0.03 -0.05,0.03 -0.05,0.02 -0.06,0.02 -0.06,0.02 -0.07,0.01 -0.07,0.01 -0.07,0.01 -0.09,0.01 -0.09,0.01 -0.09,0 -0.1,0.01 -0.05,0 -0.06,0 -0.05,0 -0.06,0 -0.06,0 -0.06,0 -0.06,0 -0.06,0 -0.07,0 -0.07,0 c -2.17,-1.75 -5.03,-2.23 -7.81,-2.23 h -0.84 v -1.96 h 0.84 c 1.39,0 3.52,0.25 4.99,0.74 v -17.46 h -5.5 v -1.95 c 1.7,0.14 5.87,0.14 7.76,0.14 1.25,0 2.5,-0.03 3.77,-0.03 1.04,0 2.86,-0.05 3.86,-0.11 v 1.95 h -5.36 z"
           inkscape:connector-curvature="0"
           style="fill:#000000;stroke-width:0" /></g>    </g>
    <g
       id="g3261"
       transform="matrix(1.5575178,0,0,1.5575178,61.43189,-183.91455)">
      <g
         word-spacing="normal"
         letter-spacing="normal"
         font-size-adjust="none"
         font-stretch="normal"
         font-weight="normal"
         font-variant="normal"
         font-style="normal"
         stroke-miterlimit="10.433"
         xml:space="preserve"
         transform="matrix(1.0629921,0,0,-1.0629921,-186.02362,789.27165)"
         id="g3263"
         style="font-style:normal;font-variant:normal;font-weight:normal;font-stretch:normal;letter-spacing:normal;word-spacing:normal;text-anchor:start;fill:none;stroke:#000000;stroke-linecap:butt;stroke-linejoin:miter;stroke-miterlimit:10.43299961;stroke-opacity:1;stroke-dasharray:none;stroke-dashoffset:0"><path
           id="path3265"
           d="m 461.19,423.93 v -15.39 h -3.44 v -2.34 c 1.41,0.05 4.39,0.16 6.29,0.16 1.95,0 4.89,-0.11 6.28,-0.16 v 2.34 h -3.44 v 10.41 c 0,5.44 4.28,7.87 7.42,7.87 1.7,0 2.74,-1.04 2.74,-4.82 v -13.46 h -3.44 v -2.34 c 1.4,0.05 4.39,0.16 6.28,0.16 1.95,0 4.89,-0.11 6.28,-0.16 v 2.34 h -3.44 v 12.91 c 0,5.23 -2.68,7.17 -7.67,7.17 -4.78,0 -7.42,-2.84 -8.72,-5.39 v 5.39 l -8.58,-0.41 v -2.34 c 3.1,0 3.44,0 3.44,-1.94 z"
           inkscape:connector-curvature="0"
           style="fill:#000000;stroke-width:0" /><path
           id="path3267"
           d="m 498.62,420.54 0,0.05 -0.01,0.06 0,0.05 -0.01,0.06 -0.01,0.05 -0.02,0.06 -0.02,0.05 -0.01,0.06 -0.03,0.06 -0.02,0.05 -0.03,0.06 -0.03,0.05 -0.03,0.06 -0.04,0.05 -0.04,0.05 -0.04,0.05 -0.04,0.05 -0.05,0.05 -0.05,0.04 -0.05,0.05 -0.06,0.04 -0.06,0.03 -0.06,0.04 -0.06,0.03 -0.07,0.03 -0.07,0.03 -0.08,0.02 -0.08,0.02 -0.08,0.01 -0.08,0.01 -0.09,0.01 -0.09,0 c -0.94,0 -1.95,-0.91 -1.95,-1.92 0,-0.59 0.45,-1.33 1.4,-1.33 1,0 1.96,0.99 1.96,1.92 z"
           inkscape:connector-curvature="0"
           style="fill:#000000;stroke-width:0" /><path
           id="path3269"
           d="m 491.51,402.84 -0.06,-0.17 -0.05,-0.17 -0.03,-0.08 -0.02,-0.09 -0.03,-0.08 -0.02,-0.09 -0.02,-0.09 -0.02,-0.09 -0.02,-0.1 -0.02,-0.09 -0.01,-0.1 0,-0.05 -0.01,-0.05 0,-0.06 0,-0.05 0,-0.05 0,-0.06 c 0,-1.64 1.39,-2.95 3.29,-2.95 3.49,0 5.03,4.79 5.03,5.33 0,0.45 -0.45,0.45 -0.56,0.45 -0.48,0 -0.53,-0.2 -0.67,-0.59 -0.8,-2.79 -2.33,-4.22 -3.69,-4.22 -0.7,0 -0.87,0.45 -0.87,1.22 0,0.79 0.25,1.46 0.56,2.23 0.34,0.94 0.73,1.87 1.11,2.78 0.31,0.84 1.58,4.02 1.72,4.44 0.09,0.34 0.2,0.76 0.2,1.11 0,1.64 -1.39,2.95 -3.31,2.95 -3.46,0 -5.05,-4.73 -5.05,-5.33 0,-0.45 0.49,-0.45 0.59,-0.45 0.49,0 0.52,0.17 0.63,0.56 0.91,3 2.44,4.25 3.72,4.25 0.56,0 0.87,-0.28 0.87,-1.22 0,-0.79 -0.2,-1.32 -1.07,-3.48 z"
           inkscape:connector-curvature="0"
           style="fill:#000000;stroke-width:0" /></g>    </g>
  </g>
</svg>
